<svg width="328" height="216" viewBox="0 0 328 216" fill="none" xmlns="http://www.w3.org/2000/svg">
    <path d="M273.141 28.1682H248.322V74.3883H273.141V28.1682Z" fill="#E6E6E6" />
    <path d="M271.924 28.1682H242.769V74.3883H271.924V28.1682Z" fill="#F0F0F0" />
    <path d="M267.478 32.2736H247.2V70.2826H267.478V32.2736Z" fill="white" />
    <path d="M261.534 43.6096H253.65V58.3827H261.534V43.6096Z" fill="#EBEBEB" />
    <path d="M78.9438 28.1682H54.1243V74.3883H78.9438V28.1682Z" fill="#E6E6E6" />
    <path d="M77.7264 28.1682H48.5715V74.3883H77.7264V28.1682Z" fill="#F0F0F0" />
    <path d="M73.281 32.2736H53.0027V70.2826H73.281V32.2736Z" fill="white" />
    <path d="M67.3367 43.6096H59.4529V58.3827H67.3367V43.6096Z" fill="#EBEBEB" />
    <path
        d="M294.647 139.25H215.6C214.187 139.25 213.037 138.113 213.037 136.717V22.9833C213.037 21.5871 214.187 20.4509 215.6 20.4509H294.647C296.06 20.4509 297.21 21.5867 297.21 22.9833V136.717C297.21 138.114 296.06 139.25 294.647 139.25ZM215.6 20.5589C214.247 20.5589 213.146 21.6463 213.146 22.9833V136.717C213.146 138.054 214.247 139.142 215.6 139.142H294.647C296 139.142 297.101 138.054 297.101 136.717V22.9833C297.101 21.6467 296 20.5589 294.647 20.5589H215.6Z"
        fill="#E0E0E0" />
    <path
        d="M203.494 139.25H124.448C123.034 139.25 121.884 138.113 121.884 136.717V22.9833C121.884 21.5871 123.034 20.4509 124.448 20.4509H203.494C204.908 20.4509 206.058 21.5867 206.058 22.9833V136.717C206.058 138.114 204.907 139.25 203.494 139.25ZM124.448 20.5589C123.095 20.5589 121.993 21.6463 121.993 22.9833V136.717C121.993 138.054 123.095 139.142 124.448 139.142H203.494C204.848 139.142 205.949 138.054 205.949 136.717V22.9833C205.949 21.6467 204.847 20.5589 203.494 20.5589H124.448Z"
        fill="#E0E0E0" />
    <path
        d="M112.4 139.25H33.3537C31.9402 139.25 30.79 138.113 30.79 136.717V22.9833C30.79 21.5871 31.9398 20.4509 33.3537 20.4509H112.4C113.813 20.4509 114.964 21.5867 114.964 22.9833V136.717C114.964 138.114 113.814 139.25 112.4 139.25ZM33.3537 20.5589C32.0006 20.5589 30.8994 21.6463 30.8994 22.9833V136.717C30.8994 138.054 32.0006 139.142 33.3537 139.142H112.4C113.753 139.142 114.854 138.054 114.854 136.717V22.9833C114.854 21.6467 113.753 20.5589 112.4 20.5589H33.3537Z"
        fill="#E0E0E0" />
    <path d="M328 165.632H0V165.685H328V165.632Z" fill="#E0E0E0" />
    <path d="M310.225 178.322H285.852V178.504H310.225V178.322Z" fill="#EBEBEB" />
    <path d="M222.896 180.295H216.499V180.477H222.896V180.295Z" fill="#EBEBEB" />
    <path d="M49.5581 172.794H17.7754V172.976H49.5581V172.794Z" fill="#EBEBEB" />
    <path d="M60.7696 172.794H56.1094V172.976H60.7696V172.794Z" fill="#EBEBEB" />
    <path d="M144.844 175.863H75.915V176.045H144.844V175.863Z" fill="#EBEBEB" />
    <path
        d="M104.295 48.0535C103.199 49.7025 102.461 51.5138 102.069 53.3827L99.0563 53.663L99.0559 59.4259L102.069 59.7063C102.461 61.5743 103.199 63.3856 104.295 65.0354L102.371 67.3311L106.496 71.4062L108.82 69.5058C110.49 70.5888 112.324 71.3172 114.215 71.7047L114.498 74.6807L120.332 74.6803L120.616 71.7047C122.507 71.3167 124.341 70.5884 126.011 69.5053L128.335 71.4057L132.46 67.3307L130.536 65.035C131.632 63.3856 132.37 61.5743 132.762 59.7063L135.775 59.4259L135.775 53.663L132.763 53.3827C132.37 51.5147 131.632 49.7033 130.536 48.0544L132.46 45.7587L128.335 41.6837L126.011 43.5841C124.341 42.501 122.507 41.7722 120.616 41.3847L120.333 38.4087L114.499 38.4091L114.215 41.3852C112.324 41.7731 110.49 42.501 108.821 43.5841L106.496 41.6833L102.371 45.7583L104.295 48.0535ZM123.001 51.0278C126.085 54.0743 126.085 59.0142 123.001 62.0611C119.916 65.108 114.915 65.1076 111.831 62.0611C108.747 59.0142 108.747 54.0747 111.832 51.0278C114.915 47.9814 119.916 47.9814 123.001 51.0278Z"
        fill="#EBEBEB" />
    <path
        d="M115.679 117.57C115.131 118.394 114.763 119.299 114.567 120.233L113.061 120.373V123.254L114.567 123.394C114.763 124.327 115.131 125.233 115.679 126.057L114.717 127.204L116.779 129.241L117.941 128.291C118.775 128.832 119.692 129.197 120.637 129.39L120.779 130.878H123.695L123.836 129.391C124.781 129.197 125.698 128.832 126.532 128.292L127.694 129.242L129.756 127.205L128.794 126.057C129.342 125.233 129.711 124.328 129.907 123.394L131.412 123.254V120.374L129.906 120.234C129.71 119.3 129.341 118.395 128.794 117.571L129.756 116.423L127.694 114.387L126.532 115.337C125.698 114.795 124.781 114.431 123.836 114.238L123.694 112.75H120.778L120.637 114.238C119.692 114.432 118.775 114.795 117.941 115.337L116.779 114.387L114.717 116.424L115.679 117.57ZM125.028 119.057C126.569 120.579 126.57 123.048 125.028 124.571C123.486 126.094 120.987 126.094 119.446 124.571C117.904 123.048 117.904 120.579 119.446 119.057C120.987 117.534 123.486 117.534 125.028 119.057Z"
        fill="#EBEBEB" />
    <path
        d="M32.5634 87.5069C31.6979 88.8085 31.1158 90.2384 30.8057 91.7133L28.4275 91.9345V96.4838L30.8057 96.705C31.1153 98.1799 31.6979 99.6094 32.5629 100.912L31.0441 102.724L34.3009 105.941L36.1355 104.44C37.4536 105.295 38.9012 105.87 40.3938 106.176L40.6177 108.525L45.2233 108.525L45.4472 106.176C46.9402 105.87 48.3878 105.295 49.7059 104.44L51.5406 105.94L54.7974 102.724L53.2785 100.911C54.1436 99.6094 54.7257 98.1794 55.0357 96.705L57.4135 96.4838L57.4139 91.9345L55.0357 91.7128C54.7257 90.2384 54.1436 88.8085 53.2781 87.5065L54.7969 85.6942L51.5406 82.4775L49.7059 83.9779C48.3878 83.123 46.9402 82.548 45.4476 82.2417L45.2237 79.8925H40.6182L40.3942 82.2417C38.9012 82.548 37.4541 83.1225 36.1359 83.9774L34.3013 82.4771L31.0445 85.6942L32.5634 87.5069ZM47.3295 89.8544C49.7637 92.2593 49.7641 96.159 47.3295 98.5639C44.8944 100.969 40.947 100.969 38.5124 98.5639C36.0778 96.159 36.0778 92.2598 38.5124 89.8544C40.947 87.4499 44.8944 87.4494 47.3295 89.8544Z"
        fill="#EBEBEB" />
    <path
        d="M282.906 78.2111C282.501 78.8202 282.229 79.4898 282.083 80.1797L280.97 80.2834V82.4127L282.083 82.5164C282.229 83.2067 282.501 83.8759 282.906 84.4855L282.195 85.3335L283.719 86.839L284.578 86.137C285.195 86.537 285.872 86.8062 286.571 86.9492L286.675 88.0486H288.831L288.936 86.9492C289.635 86.8057 290.312 86.5366 290.929 86.1366L291.788 86.8386L293.312 85.333L292.601 84.485C293.006 83.8755 293.279 83.2063 293.424 82.516L294.537 82.4123V80.283L293.424 80.1793C293.279 79.489 293.006 78.8198 292.601 78.2107L293.312 77.3622L291.788 75.8567L290.929 76.5591C290.312 76.1591 289.635 75.89 288.936 75.7465L288.832 74.6471H286.676L286.571 75.7465C285.872 75.89 285.195 76.1587 284.578 76.5591L283.719 75.8567L282.195 77.3622L282.906 78.2111ZM289.817 79.3097C290.957 80.4355 290.957 82.2602 289.817 83.386C288.678 84.5118 286.83 84.5118 285.691 83.386C284.551 82.2602 284.551 80.4355 285.691 79.3097C286.83 78.1843 288.678 78.1843 289.817 79.3097Z"
        fill="#EBEBEB" />
    <path
        d="M200.71 51.5808C200.305 52.19 200.032 52.8596 199.887 53.5495L198.774 53.6531V55.7825L199.887 55.8861C200.032 56.5765 200.305 57.2457 200.71 57.8552L199.999 58.7032L201.523 60.2087L202.381 59.5063C202.998 59.9063 203.676 60.1755 204.374 60.3189L204.479 61.4183H206.635L206.74 60.3189C207.439 60.1755 208.116 59.9063 208.733 59.5063L209.592 60.2087L211.116 58.7032L210.405 57.8552C210.81 57.2457 211.082 56.5765 211.228 55.8866L212.341 55.7829V53.6536L211.228 53.5499C211.082 52.8596 210.81 52.1904 210.405 51.5813L211.116 50.7328L209.592 49.2273L208.733 49.9297C208.116 49.5297 207.439 49.2606 206.74 49.1171L206.635 48.0177H204.48L204.375 49.1171C203.676 49.2606 202.998 49.5293 202.382 49.9297L201.523 49.2273L199.999 50.7328L200.71 51.5808ZM207.621 52.6798C208.76 53.8056 208.76 55.6304 207.621 56.7562C206.481 57.882 204.633 57.882 203.494 56.7562C202.354 55.6304 202.355 53.8056 203.494 52.6798C204.634 51.5541 206.481 51.5541 207.621 52.6798Z"
        fill="#F5F5F5" />
    <path
        d="M56.4493 112.693C56.0443 113.302 55.7719 113.972 55.6267 114.662L54.5137 114.766V116.895L55.6267 116.999C55.7719 117.689 56.0443 118.358 56.4493 118.968L55.7382 119.816L57.2623 121.321L58.1208 120.619C58.7379 121.019 59.4153 121.288 60.1137 121.431L60.2187 122.531H62.3743L62.4793 121.431C63.1781 121.288 63.8555 121.019 64.4726 120.619L65.3311 121.321L66.8552 119.816L66.1441 118.967C66.5491 118.358 66.8215 117.688 66.9667 116.999L68.0798 116.895V114.766L66.9667 114.662C66.8215 113.972 66.5491 113.302 66.1441 112.693L66.8552 111.845L65.3311 110.339L64.4726 111.041C63.8555 110.641 63.1781 110.372 62.4797 110.229L62.3747 109.129H60.2191L60.1142 110.229C59.4153 110.372 58.7379 110.641 58.1212 111.041L57.2623 110.339L55.7382 111.844L56.4493 112.693ZM63.3605 113.792C64.4997 114.918 64.5002 116.743 63.3605 117.868C62.2208 118.994 60.3731 118.994 59.2338 117.868C58.0941 116.742 58.0941 114.918 59.2338 113.792C60.3731 112.666 62.2208 112.666 63.3605 113.792Z"
        fill="#F5F5F5" />
    <path
        d="M251.465 86.7988C250.768 87.846 250.3 88.996 250.051 90.1827L248.138 90.3607V94.0202L250.052 94.1981C250.301 95.3844 250.769 96.5344 251.465 97.582L250.243 99.0396L252.863 101.627L254.338 100.42C255.398 101.108 256.563 101.57 257.764 101.816L257.944 103.706L261.649 103.706L261.829 101.816C263.03 101.57 264.194 101.108 265.255 100.42L266.73 101.627L269.35 99.0396L268.128 97.582C268.824 96.5348 269.292 95.3844 269.541 94.1981L271.454 94.0202L271.454 90.3607L269.541 90.1827C269.292 88.9964 268.824 87.8464 268.127 86.7993L269.349 85.3417L266.73 82.754L265.254 83.961C264.194 83.2733 263.029 82.8106 261.828 82.5644L261.648 80.6748H257.944L257.763 82.5644C256.563 82.8106 255.398 83.2729 254.338 83.9606L252.863 82.7536L250.243 85.3413L251.465 86.7988ZM263.342 88.6875C265.3 90.622 265.3 93.7588 263.342 95.6933C261.383 97.6278 258.208 97.6278 256.25 95.6933C254.291 93.7588 254.291 90.6225 256.25 88.6875C258.208 86.753 261.383 86.753 263.342 88.6875Z"
        fill="#EBEBEB" />
    <path
        d="M177.838 107.316C177.136 108.372 176.664 109.531 176.413 110.726L174.485 110.906V114.594L176.413 114.773C176.664 115.968 177.136 117.127 177.838 118.183L176.607 119.652L179.246 122.26L180.734 121.044C181.802 121.737 182.976 122.203 184.186 122.451L184.368 124.356L188.101 124.355L188.283 122.451C189.493 122.202 190.666 121.736 191.735 121.043L193.222 122.259L195.862 119.652L194.631 118.183C195.333 117.127 195.805 115.968 196.056 114.772L197.983 114.593L197.984 110.905L196.056 110.725C195.805 109.53 195.333 108.371 194.631 107.316L195.862 105.846L193.223 103.239L191.735 104.455C190.666 103.762 189.493 103.296 188.283 103.048L188.101 101.143H184.368L184.186 103.048C182.976 103.296 181.803 103.762 180.734 104.455L179.247 103.239L176.607 105.846L177.838 107.316ZM189.808 109.219C191.782 111.169 191.782 114.33 189.808 116.28C187.834 118.229 184.634 118.229 182.66 116.28C180.686 114.33 180.686 111.169 182.66 109.219C184.634 107.27 187.834 107.27 189.808 109.219Z"
        fill="#EBEBEB" />
    <path
        d="M188.78 142.077C187.603 143.848 186.811 145.793 186.389 147.8L183.154 148.101L183.153 154.29L186.389 154.591C186.81 156.597 187.602 158.542 188.78 160.314L186.713 162.779L191.144 167.155L193.639 165.114C195.433 166.277 197.402 167.059 199.433 167.475L199.738 170.671L206.003 170.671L206.308 167.475C208.339 167.058 210.308 166.276 212.101 165.113L214.597 167.155L219.028 162.778L216.962 160.313C218.138 158.542 218.93 156.597 219.352 154.59L222.587 154.289L222.587 148.1L219.352 147.799C218.931 145.793 218.138 143.848 216.962 142.077L219.028 139.612L214.598 135.235L212.102 137.277C210.308 136.114 208.339 135.331 206.309 134.915L206.004 131.719L199.738 131.719L199.434 134.915C197.403 135.332 195.433 136.114 193.64 137.277L191.144 135.236L186.714 139.612L188.78 142.077ZM208.868 145.271C212.18 148.543 212.18 153.848 208.868 157.119C205.555 160.391 200.185 160.391 196.873 157.119C193.56 153.847 193.561 148.543 196.873 145.27C200.185 142 205.555 141.999 208.868 145.271Z"
        fill="#EBEBEB" />
    <path
        d="M306.358 193.706C306.358 195.169 244.58 196.355 168.373 196.355C92.1666 196.355 30.3889 195.169 30.3889 193.706C30.3889 192.243 92.1666 191.057 168.373 191.057C244.58 191.057 306.358 192.243 306.358 193.706Z"
        fill="#F5F5F5" />
    <path
        d="M51.2032 118.435C43.2279 127.65 40.8987 141.291 45.3726 152.58C50.3434 148.198 53.8438 141.518 54.0651 135.675C54.2868 129.832 52.7386 124.082 51.2032 118.435Z"
        fill="#207DA9" />
    <path
        d="M49.8115 153.645C47.1053 157.741 45.8104 162.728 46.186 167.605C50.4973 166.122 54.2981 161.311 56.5766 157.404C58.8552 153.497 60.1291 149.107 61.2885 144.746C56.6182 146.37 52.5178 149.549 49.8115 153.645Z"
        fill="#207DA9" />
    <path
        d="M48.8169 134.528C45.613 145.901 43.9809 157.699 43.9905 169.505C43.9931 172.863 44.1309 176.221 44.3968 179.569C44.4134 179.776 44.7414 179.778 44.7248 179.569C43.7907 167.794 44.4838 155.903 46.7986 144.313C47.4503 141.052 48.2313 137.817 49.1336 134.614C49.19 134.413 48.8738 134.327 48.8169 134.528Z"
        fill="#263238" />
    <path
        d="M44.4865 171.458C47.7595 163.761 52.0629 156.551 57.0367 149.811C57.1613 149.642 56.8766 149.481 56.7533 149.647C52.8597 154.923 49.361 160.485 46.4659 166.358C45.6529 168.007 44.8893 169.68 44.1703 171.371C44.0885 171.564 44.4061 171.647 44.4865 171.458Z"
        fill="#263238" />
    <path
        d="M39.8446 160.027C42.1013 163.442 43.181 167.601 42.8679 171.667C39.273 170.431 36.1037 166.42 34.2039 163.162C32.3037 159.904 31.2414 156.244 30.2749 152.607C34.1689 153.961 37.588 156.612 39.8446 160.027Z"
        fill="#207DA9" />
    <path
        d="M44.3889 174.362C41.7041 168.052 38.156 162.204 34.0797 156.68C33.9563 156.514 33.6716 156.675 33.7963 156.844C37.8543 162.342 41.3997 168.166 44.0727 174.448C44.1532 174.638 44.4711 174.554 44.3889 174.362Z"
        fill="#263238" />
    <path
        d="M44.5153 176.458C49.5884 171.302 54.7686 166.25 59.8417 161.095C59.9891 160.945 59.7573 160.716 59.6099 160.866C54.5368 166.022 49.3566 171.073 44.2836 176.229C44.1362 176.378 44.3675 176.608 44.5153 176.458Z"
        fill="#263238" />
    <path
        d="M60.0324 158.726C55.6311 162.919 51.6207 167.513 48.0696 172.43H48.8747C52.2247 172.275 55.4767 170.642 57.5785 168.061C59.6803 165.479 60.597 161.991 60.0324 158.726Z"
        fill="#207DA9" />
    <path
        d="M39.1973 148.727C41.087 151.78 42.8678 154.897 44.5358 158.074C44.6329 158.259 44.9163 158.095 44.8192 157.91C43.1512 154.733 41.3704 151.616 39.4807 148.563C39.3704 148.386 39.0866 148.548 39.1973 148.727Z"
        fill="#263238" />
    <path
        d="M34.6398 133.313C33.9191 136.515 33.2041 140.679 33.1971 144.014C33.1896 147.348 34.2195 150.602 36.1381 152.836C38.0567 155.071 41.9289 156.05 43.4897 154.771L34.6398 133.313Z"
        fill="#207DA9" />
    <path d="M53.7679 177.946H34.541V181.466H53.7679V177.946Z" fill="#263238" />
    <path d="M50.6542 194.006H38.715L36.5454 180.66H52.3681L50.6542 194.006Z" fill="#263238" />
    <path opacity="0.2" d="M36.687 181.532H52.2561L52.0623 183.043H36.9328L36.687 181.532Z"
        fill="black" />
    <path
        d="M277.783 101.878C282.641 99.1344 288.83 100.8 291.607 105.598C294.384 110.396 292.699 116.51 287.841 119.253C284.091 121.371 279.554 120.852 276.399 118.302L273.393 118.769L274.108 115.672C274.079 115.624 274.045 115.581 274.017 115.532C271.24 110.735 272.926 104.622 277.783 101.878Z"
        fill="#207DA9" />
    <path d="M279.583 99.6598C276.349 100.275 273.502 102.603 272.286 105.627" stroke="#207DA9"
        stroke-width="0.5" stroke-miterlimit="10" stroke-linecap="round" stroke-linejoin="round" />
    <path d="M271.779 107.034C271.56 107.48 271.435 107.972 271.415 108.468" stroke="#207DA9"
        stroke-width="0.5" stroke-miterlimit="10" stroke-linecap="round" stroke-linejoin="round" />
    <path
        d="M281.624 114.348L277.348 110.493L278.71 109.019L281.578 111.604L286.342 107.008L287.754 108.436L281.624 114.348Z"
        fill="white" />
    <path
        d="M173.436 37.9763C178.539 35.0473 185.08 36.7589 188.045 41.7999C191.01 46.8405 189.277 53.3015 184.174 56.2304C180.235 58.4915 175.445 57.9774 172.098 55.3103L168.931 55.8248L169.662 52.5537C169.632 52.5031 169.596 52.4578 169.565 52.4068C166.6 47.3662 168.334 40.9052 173.436 37.9763Z"
        fill="#207DA9" />
    <path d="M188.063 39.3699C185.988 36.6176 182.443 35.0149 178.977 35.262" stroke="#207DA9"
        stroke-width="0.5" stroke-miterlimit="10" stroke-linecap="round" stroke-linejoin="round" />
    <path d="M177.392 35.4309C176.862 35.4296 176.333 35.5381 175.846 35.7471" stroke="#207DA9"
        stroke-width="0.5" stroke-miterlimit="10" stroke-linecap="round" stroke-linejoin="round" />
    <path d="M183.439 45.5859H173.457V48.0509H183.439V45.5859Z" fill="white" />
    <path d="M182.516 49.3928V44.4122L184.975 46.9027L182.516 49.3928Z" fill="white" />
    <path
        d="M238.818 100.676C238.818 100.676 238.553 105.201 236.316 113.13C234.913 118.03 233.209 122.841 231.216 127.537C230.1 130.19 228.82 133.006 227.35 135.968C226.689 137.315 225.98 138.685 225.237 140.09C224.381 164.087 210.746 188.482 210.746 188.482C209.991 188.867 207.353 188.447 207.37 187.689C209.389 184.523 213.361 153.773 215.923 139.186C216.082 137.204 216.312 135.105 216.595 132.884C217.345 126.995 218.454 120.593 219.546 114.961C221.24 106.088 222.852 99.132 222.852 99.132L227.344 99.5635L238.818 100.676Z"
        fill="#EEC1BB" />
    <path
        d="M210.599 193.659H209.831L209.613 192.703L207.016 193.869H200.435C200.435 193.869 199.391 192.831 202.519 192.009C202.671 191.966 202.819 191.91 202.961 191.84C204.632 191.065 207.005 188.453 207.005 188.453H210.611C210.722 188.618 210.821 188.792 210.906 188.972C211.301 189.741 211.98 191.409 210.599 193.659Z"
        fill="#263238" />
    <path
        d="M210.906 188.959C210.434 188.435 208.268 190.738 206.68 191.525C205.264 192.218 203.67 192.527 202.961 191.822C204.632 191.046 207.606 187.418 207.606 187.418L210.156 187.671C210.156 187.671 210.741 188.622 210.906 188.959Z"
        fill="#EEC1BB" />
    <path
        d="M244.178 133.898C243.815 136.478 243.349 139.24 242.778 142.182C247.648 158.233 237.632 189.56 237.632 189.56C235.938 189.892 234.438 189.676 233.677 189.111C235.566 179.672 234.208 155.132 232.739 140.468C232.609 139.139 232.443 137.675 232.266 136.113C231.965 133.466 231.605 130.551 231.222 127.536C230.572 122.493 229.846 117.187 229.191 112.482C228.388 106.798 227.692 101.988 227.332 99.5682C227.184 98.5072 227.096 97.9067 227.096 97.9067L241.155 99.411C241.155 99.411 244.732 103.37 245.287 115.736C245.47 121.811 245.099 127.889 244.178 133.898Z"
        fill="#EEC1BB" />
    <path
        d="M237.98 193.659H237.195L236.977 192.703L234.386 193.869H227.81C227.81 193.869 226.765 192.831 229.899 192.009C230.052 191.966 230.2 191.91 230.342 191.84C232.006 191.065 234.385 188.453 234.385 188.453H237.991C238.1 188.62 238.199 188.793 238.287 188.971C238.682 189.741 239.344 191.408 237.98 193.659Z"
        fill="#263238" />
    <path
        d="M238.287 188.959C237.809 188.435 235.643 190.738 234.055 191.525C232.639 192.218 231.045 192.527 230.343 191.822C232.007 191.046 234.634 187.671 234.634 187.671H237.532C237.532 187.671 238.116 188.622 238.287 188.959Z"
        fill="#EEC1BB" />
    <path
        d="M247.87 65.8031C247.148 65.1871 245.981 65.4234 244.988 65.308C243.481 65.1331 242.267 64.0574 241.618 62.8374C240.97 61.617 240.781 60.2515 240.55 58.9179C240.319 57.5843 240.02 56.2183 239.193 55.0865C238.365 53.9546 236.372 52.5515 234.924 53.4099L232.985 56.3781C234.149 59.8557 235.095 63.3912 235.818 66.9617C236.141 68.5562 236.462 70.2427 237.634 71.4847C238.782 72.7013 240.599 73.2944 242.382 73.408C243.286 73.4655 244.221 73.4084 245.047 73.0771C245.873 72.7458 246.576 72.106 246.76 71.318C246.942 70.53 246.503 69.6202 245.663 69.3187C246.474 68.9804 247.318 68.6189 247.859 67.9843C248.398 67.3496 248.515 66.3548 247.87 65.8031Z"
        fill="#263238" />
    <path
        d="M220.094 51.0305C217.877 53.149 217.597 55.6706 217.949 57.3964C218.694 59.6787 219.82 61.1864 220.878 63.3446L224.632 48.5275C223.219 49.0787 222.504 48.9003 220.094 51.0305Z"
        fill="#263238" />
    <path
        d="M226.779 48.4406C231.106 48.5274 235.45 52.1013 235.79 55.569C236.131 59.0371 232.677 63.5117 232.03 63.7865L229.98 64.5308C229.98 64.5308 232.241 59.3676 231.303 57.9882C230.365 56.6088 229.684 56.5937 229.684 56.5937L226.779 48.4406Z"
        fill="#263238" />
    <path
        d="M223.105 49.2627C225.356 47.6902 228.015 48.5892 229.593 49.2627C231.37 50.2762 232.624 51.9916 233.039 53.9776C233.382 55.8416 233.799 58.1014 232.834 59.2791C232.297 59.9573 231.496 60.3807 230.627 60.4468L219.725 53.6186C220.458 51.9061 221.622 50.4071 223.105 49.2627Z"
        fill="#263238" />
    <path
        d="M227.502 74.5121C228.355 75.1144 228.965 74.7523 229.851 74.1929C235.177 71.1425 232.989 68.7281 232.989 68.7281C231.677 67.6697 231.353 66.1793 231.325 63.8232C231.321 63.7553 231.311 63.6875 231.297 63.621C231.237 63.3169 231.083 63.0382 230.857 62.824C230.254 62.2217 229.27 62.2161 228.66 62.8119L228.659 62.8136L226.24 63.9929C226.24 64.0288 226.239 64.0647 226.238 64.1053C226.462 65.3563 226.677 66.3201 226.809 67.0848C226.807 67.1789 226.842 67.274 226.854 67.3638C226.852 67.458 226.878 67.5569 226.894 67.6472C227.026 68.7039 225.519 70.5611 224.856 71.057C224.46 71.3862 224.613 72.4848 227.502 74.5121Z"
        fill="#EEC1BB" />
    <path opacity="0.2"
        d="M226.246 63.9567C226.251 63.9956 226.25 64.0349 226.243 64.0733C226.467 65.3244 226.682 66.2882 226.814 67.0529C226.836 67.1444 226.851 67.2377 226.859 67.3319C226.871 67.4304 226.877 67.5294 226.876 67.6283C228.719 66.7587 230.248 65.3516 231.257 63.5973C231.199 63.297 231.054 63.0206 230.839 62.8007C230.242 62.1929 229.259 62.176 228.641 62.7635L226.246 63.9567Z"
        fill="black" />
    <path
        d="M231.655 54.7663C232.352 59.0941 232.743 60.9042 231.102 63.6176C228.629 67.6939 223.228 67.6969 221.246 63.6837C219.492 60.0648 218.627 53.6125 222.376 50.8943C226.124 48.1766 230.954 50.4342 231.655 54.7663Z"
        fill="#EEC1BB" />
    <path
        d="M234.268 58.1101C233.998 59.1201 233.321 59.8899 232.614 60.2809C231.55 60.8688 230.464 59.2142 230.544 57.98C230.616 56.8694 231.553 55.8961 232.724 55.8209C233.878 55.7466 234.577 56.9558 234.268 58.1101Z"
        fill="#EEC1BB" />
    <path opacity="0.2"
        d="M231.794 58.5286C231.711 58.1177 231.798 57.6758 232.033 57.3267C232.268 56.9777 232.646 56.7258 233.061 56.6425"
        stroke="black" stroke-width="0.5" stroke-miterlimit="10" stroke-linecap="round"
        stroke-linejoin="round" />
    <path
        d="M226.313 57.6448C226.415 58.101 226.27 58.5373 225.988 58.6189C225.705 58.7006 225.394 58.3969 225.292 57.9407C225.189 57.4845 225.335 57.0482 225.617 56.9665C225.899 56.8849 226.211 57.1881 226.313 57.6448Z"
        fill="#263238" />
    <path
        d="M222.057 58.7697C222.155 59.2121 222.007 59.6367 221.726 59.7184C221.445 59.7996 221.137 59.5071 221.039 59.0648C220.941 58.6224 221.089 58.1977 221.37 58.1161C221.651 58.0349 221.959 58.3273 222.057 58.7697Z"
        fill="#263238" />
    <path
        d="M226.782 55.8343C226.729 55.855 226.669 55.8541 226.616 55.8269C225.785 55.3971 225.095 55.8105 225.087 55.8152C224.985 55.8766 224.856 55.8451 224.8 55.7401C224.745 55.6351 224.783 55.499 224.886 55.4355C224.922 55.4139 225.787 54.8938 226.818 55.4277C226.921 55.4809 226.959 55.6135 226.903 55.7241C226.876 55.7764 226.832 55.8148 226.782 55.8343Z"
        fill="#263238" />
    <path
        d="M220.041 57.0154C219.994 57.0128 219.949 56.9903 219.917 56.9489C219.851 56.8629 219.866 56.7277 219.949 56.6465C220.784 55.8356 221.629 56.0559 221.665 56.0663C221.765 56.0939 221.82 56.2093 221.786 56.3242C221.752 56.4387 221.643 56.5091 221.542 56.4819C221.51 56.4728 220.851 56.3125 220.188 56.9575C220.144 56.999 220.091 57.0184 220.041 57.0154Z"
        fill="#263238" />
    <path
        d="M223.157 58.2526C223.157 58.2526 222.92 60.0277 222.431 61.2247C222.346 61.4338 222.498 61.6654 222.725 61.6852C223.311 61.7362 223.886 61.3945 223.886 61.3945L223.157 58.2526Z"
        fill="#D4827D" />
    <path d="M225.785 56.9415L224.731 56.9757C224.731 56.9757 225.473 57.5597 225.785 56.9415Z"
        fill="#263238" />
    <path d="M221.475 58.0992L220.422 58.1329C220.422 58.1329 221.163 58.717 221.475 58.0992Z"
        fill="#263238" />
    <path
        d="M230.338 56.0887C230.338 56.0887 227.326 53.7239 226.805 51.3315C226.805 51.3315 217.527 50.9816 219.751 58.4375C219.751 58.4375 216.611 52.2089 223.699 49.8242C230.788 47.4396 234.025 56.5695 231.327 60.4402C231.308 60.4087 232.206 57.5739 230.338 56.0887Z"
        fill="#263238" />
    <path
        d="M220.56 51.3618C219.768 52.4435 219.346 53.746 219.355 55.0804C219.528 56.0183 220.945 56.4637 220.945 56.4637L222.147 54.1348L222.478 55.9311C225.011 55.1859 226.256 53.5611 226.78 51.4452L224.87 49.1625C224.869 49.162 221.282 50.4732 220.56 51.3618Z"
        fill="#263238" />
    <path
        d="M225.695 62.1696C225.986 62.2158 226.296 62.1191 226.507 61.916C226.717 61.713 226.823 61.4089 226.783 61.1207"
        stroke="#263238" stroke-width="0.5" stroke-miterlimit="10" stroke-linecap="round"
        stroke-linejoin="round" />
    <path opacity="0.2"
        d="M234.341 60.7673C234.341 60.7673 237.611 56.7601 235.05 53.3451C235.05 53.3451 236.937 54.6273 236.578 56.8404C236.297 58.5779 235.531 59.9862 234.341 60.7673Z"
        fill="black" />
    <path opacity="0.2"
        d="M244.177 133.898C240.331 135.18 236.322 135.926 232.267 136.113C231.966 133.466 231.605 130.551 231.222 127.537C230.106 130.19 228.826 133.006 227.356 135.968C223.605 135.631 219.954 134.586 216.602 132.889C217.351 127.001 218.461 120.599 219.553 114.967C221.043 114.103 222.654 113.461 224.334 113.061C225.931 112.681 227.567 112.485 229.209 112.477C231.601 112.467 233.989 112.683 236.339 113.124C239.391 113.689 242.376 114.564 245.246 115.736C245.443 121.809 245.085 127.888 244.177 133.898Z"
        fill="black" />
    <path
        d="M222.581 97.9067H241.25L241.758 100.285C241.758 100.285 248.617 109.661 245.14 133.04C245.14 133.04 230.118 134.755 215.97 131.758C215.97 131.758 219.146 107.737 222.463 99.8948L222.581 97.9067Z"
        fill="#263238" />
    <path
        d="M240.307 90.6569L241.634 100.464L221.168 99.649C221.114 97.5421 223.017 91.9512 222.797 90.4223C222.176 88.5336 219.032 85.6833 218.195 83.4015C217.302 80.2328 219.145 71.5202 219.746 71.2437C220.474 70.9089 221.383 70.9391 221.941 70.6964C224.114 70.1914 229.056 68.4478 231.27 68.1756C231.699 68.1359 232.125 68.0594 232.548 68.011C232.548 68.011 240.922 67.6127 241.292 70.9785C241.329 71.1655 239.296 79.9939 240.307 90.6569Z"
        fill="#207DA9" />
    <path opacity="0.2"
        d="M240.146 88.576L239.979 85.8902L236.877 77.5461L239.307 87.3698L231.605 90.0353L240.146 88.576Z"
        fill="black" />
    <path opacity="0.2"
        d="M231.232 97.3287C231.506 97.2933 233.936 94.6857 233.936 94.6857L240.888 94.9458L240.552 92.4626C240.758 92.3019 232.429 92.6769 232.429 92.6769L231.232 95.24L231.232 97.3287Z"
        fill="black" />
    <path
        d="M238.131 68.7934C238.489 68.8374 239.944 68.0231 242.572 71.3568C245.2 74.6906 248.146 87.3996 248.312 89.2537C248.523 91.6086 246.934 92.7694 245.35 93.0277C240.597 93.8027 231.825 93.9591 231.825 93.9591V89.9674L240.578 88.01C240.578 88.01 235.61 76.1983 236.395 73.1548C237.178 70.1123 238.131 68.7934 238.131 68.7934Z"
        fill="#207DA9" />
    <path
        d="M234.194 67.9999C233.562 71.3933 230.993 74.057 227.61 74.9175C226.424 75.1992 225.098 74.5507 224.159 73.7831C223.209 72.9994 222.576 71.9039 222.376 70.6969C226.497 69.0924 230.227 67.7165 234.194 67.9999Z"
        fill="#EEC1BB" />
    <path opacity="0.2"
        d="M240.577 88.0106C240.577 88.0106 242 87.9311 242.603 88.697C242.603 88.697 242.24 87.2286 240.382 87.5371L240.577 88.0106Z"
        fill="black" />
    <path
        d="M228.998 113.624V69.1122H184V86.8968C184.816 87.2026 187.48 87.4044 188.291 87.1063C189.711 86.5836 188.784 84.967 190.155 84.3294C192.179 83.3885 194.699 84.7147 195.759 86.6592C196.582 88.1677 196.736 88.9578 196.661 90.2612C196.736 91.5645 196.582 92.3546 195.759 93.8632C194.699 95.8081 192.179 97.1339 190.155 96.193C188.784 95.5553 189.899 93.979 188.479 93.4562C187.669 93.1582 184.816 93.3193 184 93.6256V113.625H204.122C204.146 114.059 204.096 114.493 203.941 114.905C203.411 116.308 201.902 117.142 201.256 118.497C200.304 120.495 201.646 122.985 203.615 124.032C205.142 124.845 205.942 124.997 207.261 124.923C208.581 124.997 209.381 124.845 210.908 124.032C212.876 122.985 214.219 120.495 213.266 118.497C212.621 117.142 211.111 116.307 210.582 114.905C210.427 114.493 210.376 114.059 210.401 113.625L228.998 113.624Z"
        fill="#207DA9" />
    <path
        d="M231.232 113.624V69.1122H186.234V86.8968C187.05 87.2026 187.943 87.2791 188.753 86.981C190.173 86.4583 191.018 84.967 192.389 84.3294C194.412 83.3885 196.933 84.7147 197.993 86.6592C198.816 88.1677 198.97 88.9578 198.895 90.2612C198.97 91.5645 198.816 92.3546 197.993 93.8632C196.933 95.8081 194.412 97.1339 192.389 96.193C191.018 95.5553 190.173 94.0641 188.753 93.5414C187.943 93.2433 187.05 93.3193 186.234 93.6256V113.625H206.356C206.38 114.059 206.33 114.493 206.175 114.905C205.645 116.308 204.136 117.142 203.49 118.497C202.538 120.495 203.88 122.985 205.849 124.032C207.376 124.845 208.176 124.997 209.496 124.923C210.815 124.997 211.615 124.845 213.142 124.032C215.111 122.985 216.453 120.495 215.501 118.497C214.855 117.142 213.345 116.307 212.816 114.905C212.661 114.493 212.611 114.059 212.635 113.625L231.232 113.624Z"
        fill="#207DA9" />
    <g opacity="0.3">
        <path
            d="M231.232 113.624V69.1122H186.234V86.8968C187.05 87.2026 187.943 87.2791 188.753 86.981C190.173 86.4583 191.018 84.967 192.389 84.3294C194.412 83.3885 196.933 84.7147 197.993 86.6592C198.816 88.1677 198.97 88.9578 198.895 90.2612C198.97 91.5645 198.816 92.3546 197.993 93.8632C196.933 95.8081 194.412 97.1339 192.389 96.193C191.018 95.5553 190.173 94.0641 188.753 93.5414C187.943 93.2433 187.05 93.3193 186.234 93.6256V113.625H206.356C206.38 114.059 206.33 114.493 206.175 114.905C205.645 116.308 204.136 117.142 203.49 118.497C202.538 120.495 203.88 122.985 205.849 124.032C207.376 124.845 208.176 124.997 209.496 124.923C210.815 124.997 211.615 124.845 213.142 124.032C215.111 122.985 216.453 120.495 215.501 118.497C214.855 117.142 213.345 116.307 212.816 114.905C212.661 114.493 212.611 114.059 212.635 113.625L231.232 113.624Z"
            fill="white" />
    </g>
    <path
        d="M231.232 90.7481C231.232 90.7481 228.212 91.4937 227.881 92.1957C227.55 92.8977 228.667 92.8442 228.667 92.8442C228.667 92.8442 227.442 92.9781 227.429 93.4995C227.414 94.1259 228.584 94.0641 228.584 94.0641C228.584 94.0641 227.588 94.214 227.608 94.6789C227.629 95.161 228.955 95.1843 228.955 95.1843C228.955 95.1843 228.273 95.421 228.472 95.7364C228.671 96.0518 231.485 96.155 232.313 95.6349C233.142 95.1147 233.145 91.5434 232.984 90.7641C232.822 89.9848 232.224 89.5644 231.233 88.3807V90.7481H231.232Z"
        fill="#EEC1BB" />
    <path opacity="0.2"
        d="M228.67 92.9024C228.672 92.9024 228.674 92.902 228.675 92.902L230.801 92.5676C230.83 92.5629 230.849 92.5335 230.845 92.5015C230.841 92.4696 230.813 92.4467 230.785 92.4514L228.66 92.7858C228.631 92.7906 228.611 92.8199 228.616 92.8519C228.619 92.8821 228.643 92.9037 228.67 92.9024Z"
        fill="black" />
    <path opacity="0.2"
        d="M228.647 94.1199H228.649L230.716 93.9592C230.745 93.957 230.767 93.9289 230.764 93.897C230.762 93.8646 230.741 93.8456 230.708 93.8425L228.64 94.0032C228.611 94.0054 228.59 94.0335 228.592 94.0654C228.594 94.0974 228.619 94.1216 228.647 94.1199Z"
        fill="black" />
    <path opacity="0.2"
        d="M229.028 95.2395L230.568 95.1635C230.596 95.1622 230.618 95.1346 230.617 95.1026C230.615 95.0702 230.591 95.0451 230.562 95.0464L229.022 95.1225C228.993 95.1238 228.971 95.1514 228.973 95.1834C228.974 95.2158 228.999 95.2408 229.028 95.2395Z"
        fill="black" />
    <path
        d="M196.693 89.57C196.693 89.57 199.928 90.4634 200.258 91.165C200.589 91.867 199.472 91.8134 199.472 91.8134C199.472 91.8134 200.698 91.9473 200.71 92.4687C200.726 93.0951 199.555 93.0334 199.555 93.0334C199.555 93.0334 200.551 93.1828 200.531 93.6481C200.51 94.1302 199.184 94.1535 199.184 94.1535C199.184 94.1535 199.866 94.3898 199.667 94.7056C199.468 95.021 196.654 95.1242 195.826 94.6041C194.997 94.084 194.994 90.5126 195.155 89.7333C195.317 88.954 195.383 89.0827 196.374 87.899L196.554 88.5617C196.603 88.7419 196.636 88.9259 196.652 89.1117L196.693 89.57Z"
        fill="#EEC1BB" />
    <path opacity="0.2"
        d="M199.469 91.8717C199.467 91.8717 199.466 91.8712 199.464 91.8712L197.338 91.5369C197.309 91.5321 197.29 91.5028 197.294 91.4708C197.298 91.4388 197.326 91.4159 197.354 91.4207L199.479 91.755C199.508 91.7598 199.528 91.7892 199.523 91.8211C199.519 91.8518 199.495 91.873 199.469 91.8717Z"
        fill="black" />
    <path opacity="0.2"
        d="M199.492 93.0895H199.49L197.423 92.9288C197.394 92.9266 197.372 92.8985 197.375 92.8666C197.377 92.8342 197.398 92.8147 197.431 92.8121L199.499 92.9728C199.528 92.975 199.549 93.0031 199.547 93.0355C199.544 93.0666 199.52 93.0908 199.492 93.0895Z"
        fill="black" />
    <path opacity="0.2"
        d="M199.111 94.2089L197.571 94.1329C197.543 94.1316 197.521 94.1039 197.522 94.072C197.524 94.0396 197.548 94.0145 197.577 94.0158L199.117 94.0918C199.146 94.0931 199.168 94.1208 199.166 94.1532C199.165 94.1851 199.14 94.2106 199.111 94.2089Z"
        fill="black" />
    <path d="M130.405 188.679L134.87 189.111L138.171 177.942L131.377 177.212L130.405 188.679Z"
        fill="#EEC1BB" />
    <path
        d="M135.517 187.163H133.923C133.562 187.163 133.228 187.343 133.015 187.631C132.096 188.871 131.405 188.402 130.405 187.237C129.769 187.163 129.598 187.884 129.546 188.078L128.354 192.36C128.25 192.718 128.46 193.091 128.822 193.193C128.886 193.212 128.953 193.22 129.02 193.219C130.956 193.219 131.872 193.219 134.282 193.219H141.653C143.662 193.219 144.078 191.219 143.251 191.034C139.529 190.222 136.894 189.14 135.744 188.071C135.53 187.883 135.749 187.743 135.517 187.163Z"
        fill="#263238" />
    <path
        d="M138.977 188.381C139.145 188.262 139.245 188.071 139.248 187.867C139.262 187.757 139.212 187.65 139.118 187.589C138.618 187.24 136.625 188.16 136.401 188.268C136.376 188.276 136.356 188.296 136.348 188.32C136.331 188.366 136.355 188.416 136.401 188.432C136.891 188.547 137.391 188.611 137.895 188.622C138.272 188.658 138.652 188.574 138.977 188.381ZM138.993 187.738C139.034 187.763 139.054 187.81 139.045 187.856C139.037 188.004 138.965 188.141 138.847 188.232C138.395 188.566 137.301 188.422 136.713 188.314C137.541 187.954 138.717 187.548 138.993 187.738Z"
        fill="#207DA9" />
    <path
        d="M136.469 188.453C137.067 188.206 138.322 187.234 138.254 186.72C138.243 186.612 138.166 186.484 137.895 186.448C136.802 186.324 136.333 188.263 136.333 188.345C136.322 188.378 136.333 188.415 136.359 188.437C136.379 188.444 136.401 188.444 136.422 188.437L136.469 188.453ZM137.858 186.607C138.061 186.628 138.061 186.7 138.061 186.725C138.118 187.039 137.207 187.846 136.557 188.186C136.692 187.733 137.093 186.602 137.785 186.602L137.858 186.607Z"
        fill="#207DA9" />
    <path d="M136.624 188.379C136.075 188.453 135.565 188.777 135.27 189.24" stroke="#207DA9"
        stroke-width="0.5" stroke-miterlimit="10" stroke-linecap="round" stroke-linejoin="round" />
    <path d="M137.615 189.115C137.066 189.189 136.556 189.514 136.261 189.977" stroke="#207DA9"
        stroke-width="0.5" stroke-miterlimit="10" stroke-linecap="round" stroke-linejoin="round" />
    <path d="M138.848 189.735C138.299 189.809 137.789 190.134 137.494 190.597" stroke="#207DA9"
        stroke-width="0.5" stroke-miterlimit="10" stroke-linecap="round" stroke-linejoin="round" />
    <path opacity="0.3"
        d="M136.427 183.845L136.022 185.215L130.766 184.417L130.861 183.295L136.427 183.845Z"
        fill="black" />
    <path d="M156.401 188.679L160.867 189.111L164.168 177.942L157.374 177.212L156.401 188.679Z"
        fill="#EEC1BB" />
    <path
        d="M161.514 187.163H159.92C159.559 187.163 159.225 187.343 159.012 187.631C158.092 188.871 157.402 188.402 156.401 187.237C155.765 187.163 155.594 187.884 155.542 188.078L154.35 192.36C154.247 192.718 154.456 193.091 154.818 193.193C154.882 193.212 154.949 193.22 155.016 193.219C156.953 193.219 157.869 193.219 160.279 193.219H167.649C169.658 193.219 170.075 191.219 169.247 191.034C165.525 190.222 162.89 189.14 161.74 188.071C161.527 187.883 161.746 187.743 161.514 187.163Z"
        fill="#263238" />
    <path
        d="M164.974 188.381C165.142 188.262 165.242 188.071 165.245 187.867C165.259 187.757 165.209 187.65 165.115 187.589C164.615 187.24 162.621 188.16 162.397 188.268C162.373 188.276 162.353 188.296 162.344 188.32C162.328 188.366 162.352 188.416 162.397 188.432C162.887 188.547 163.388 188.611 163.891 188.622C164.269 188.658 164.648 188.574 164.974 188.381ZM164.99 187.738C165.03 187.763 165.051 187.81 165.042 187.856C165.033 188.004 164.961 188.141 164.844 188.232C164.391 188.566 163.298 188.422 162.71 188.314C163.538 187.954 164.714 187.548 164.99 187.738Z"
        fill="#207DA9" />
    <path
        d="M162.465 188.453C163.064 188.206 164.318 187.234 164.25 186.72C164.24 186.612 164.162 186.484 163.891 186.448C162.798 186.324 162.33 188.263 162.33 188.345C162.319 188.378 162.329 188.415 162.356 188.437C162.377 188.444 162.398 188.444 162.418 188.437L162.465 188.453ZM163.855 186.607C164.058 186.628 164.058 186.7 164.058 186.725C164.115 187.039 163.204 187.846 162.554 188.186C162.689 187.733 163.09 186.602 163.782 186.602L163.855 186.607Z"
        fill="#207DA9" />
    <path d="M162.621 188.379C162.072 188.453 161.562 188.777 161.267 189.24" stroke="#207DA9"
        stroke-width="0.5" stroke-miterlimit="10" stroke-linecap="round" stroke-linejoin="round" />
    <path d="M163.612 189.115C163.063 189.189 162.553 189.514 162.258 189.977" stroke="#207DA9"
        stroke-width="0.5" stroke-miterlimit="10" stroke-linecap="round" stroke-linejoin="round" />
    <path d="M164.845 189.735C164.296 189.809 163.786 190.134 163.491 190.597" stroke="#207DA9"
        stroke-width="0.5" stroke-miterlimit="10" stroke-linecap="round" stroke-linejoin="round" />
    <path opacity="0.3"
        d="M162.423 183.845L162.019 185.215L156.763 184.417L156.858 183.295L162.423 183.845Z"
        fill="black" />
    <path
        d="M165.947 104.511C165.947 104.511 169.649 120.658 171.413 134.722C171.95 139.009 172.053 144.741 171.103 148.961L163.969 183.998L154.991 183.11C156.401 167.999 158.368 149.362 158.931 141.433C156.956 132.141 152.748 120.893 148.611 109.708L165.947 104.511Z"
        fill="#207DA9" />
    <g opacity="0.2">
        <path
            d="M165.947 104.511C165.947 104.511 169.649 120.658 171.413 134.722C171.95 139.009 172.053 144.741 171.103 148.961L163.969 183.998L154.991 183.11C156.401 167.999 158.368 149.362 158.931 141.433C156.956 132.141 152.748 120.893 148.611 109.708L165.947 104.511Z"
            fill="black" />
    </g>
    <path
        d="M136.446 144.255C136.649 143.381 136.974 141.606 137.372 139.265C137.36 139.262 137.346 139.259 137.335 139.256C137.626 136.16 138.166 121.8 139.157 112.641C139.919 106.807 141.429 102.859 142.949 100.926C143.027 100.826 143.099 100.736 143.164 100.656C143.417 100.344 143.57 100.173 143.57 100.173C143.859 100.244 144.146 100.311 144.432 100.373C144.539 100.396 144.646 100.418 144.751 100.44C155.483 102.657 164.926 99.8706 164.926 99.8706C165.914 102.281 166.652 107.419 167.372 112.748C166.25 113.965 161.324 115.544 155.672 116.59L154.061 123.79C153.213 128.253 152.124 132.632 151.199 136.574L150.232 140.892C150.174 141.175 150.116 141.456 150.061 141.732C149.571 144.214 137.903 184.208 137.903 184.208L130.301 183.768C130.301 183.768 133.697 156.088 136.446 144.255Z"
        fill="#207DA9" />
    <path opacity="0.2"
        d="M136.446 144.255C136.649 143.381 136.974 141.606 137.372 139.265C137.36 139.262 137.346 139.259 137.335 139.256C137.626 136.16 138.166 121.8 139.157 112.641C139.919 106.807 141.429 102.859 142.949 100.926C143.027 100.826 143.099 100.736 143.164 100.656C143.417 100.344 143.57 100.173 143.57 100.173C143.859 100.244 144.146 100.311 144.432 100.373C144.539 100.396 144.646 100.418 144.751 100.44C155.483 102.657 164.926 99.8706 164.926 99.8706C165.914 102.281 166.652 107.419 167.372 112.748C166.25 113.965 161.324 115.544 155.672 116.59L154.061 123.79C153.213 128.253 152.124 132.632 151.199 136.574L150.232 140.892C150.174 141.175 150.116 141.456 150.061 141.732C149.571 144.214 137.903 184.208 137.903 184.208L130.301 183.768C130.301 183.768 133.697 156.088 136.446 144.255Z"
        fill="black" />
    <path opacity="0.2"
        d="M153.958 124.455C153.928 124.602 157.439 111.995 157.439 111.995C157.439 111.995 160.395 123.25 155.897 130.29L153.958 124.455Z"
        fill="black" />
    <path
        d="M146.403 67.5769C146.403 67.5769 148.188 68.9329 150.487 70.8899C150.966 71.2977 151.493 71.6502 152.051 71.9431C153.558 72.7333 154.931 73.1856 155.303 72.468C155.385 72.3103 155.449 72.1393 155.496 71.9604C155.812 70.759 155.682 69.0703 154.699 68.2975C153.591 67.4261 153.057 66.6805 153.256 65.5007C153.361 64.832 153.606 64.1416 153.893 63.4707L153.021 62.4633L148.459 57.9156C148.573 60.9522 148.806 65.9284 146.403 67.5769Z"
        fill="#EEC1BB" />
    <path opacity="0.2"
        d="M153.219 65.7595C151.965 65.0238 150.588 63.7477 150.753 62.2897C150.827 61.6758 150.961 61.0939 151.11 60.7211L153.658 64.0539C153.449 64.5914 153.372 64.9465 153.219 65.7595Z"
        fill="black" />
    <path
        d="M147.167 53.0366C147.596 57.6663 147.679 59.6298 150.098 62.0576C153.736 65.7093 159.333 64.4807 160.297 59.8916C161.164 55.7608 160.316 48.8833 155.715 46.9376C151.182 45.0208 146.738 48.4068 147.167 53.0366Z"
        fill="#EEC1BB" />
    <path
        d="M153.005 54.4968C153.03 54.9301 153.299 55.2869 153.608 55.2929C153.916 55.2994 154.146 54.9534 154.122 54.5197C154.097 54.0864 153.828 53.7295 153.519 53.7235C153.211 53.717 152.981 54.063 153.005 54.4968Z"
        fill="#263238" />
    <path
        d="M157.863 54.4312C157.887 54.8511 158.157 55.1967 158.464 55.2032C158.771 55.2097 159 54.8744 158.976 54.4541C158.951 54.0342 158.682 53.6886 158.375 53.6821C158.067 53.6756 157.838 54.0109 157.863 54.4312Z"
        fill="#263238" />
    <path
        d="M152.26 52.8379C152.32 52.8443 152.38 52.8275 152.427 52.7852C153.149 52.1246 153.962 52.3566 153.971 52.3592C154.092 52.3938 154.214 52.3264 154.241 52.205C154.268 52.0836 154.192 51.9562 154.07 51.9199C154.027 51.9073 153.007 51.6153 152.111 52.4352C152.022 52.5169 152.02 52.6616 152.107 52.7584C152.149 52.8046 152.204 52.8318 152.26 52.8379Z"
        fill="#263238" />
    <path
        d="M159.362 52.6072C159.418 52.6206 159.477 52.6137 159.527 52.5826C159.63 52.519 159.657 52.3786 159.587 52.2694C158.885 51.1734 157.842 51.1068 157.798 51.1047C157.673 51.0982 157.574 51.195 157.576 51.3215C157.578 51.4477 157.681 51.5553 157.806 51.5622C157.847 51.5643 158.655 51.6278 159.213 52.4992C159.249 52.5562 159.304 52.5934 159.362 52.6072Z"
        fill="#263238" />
    <path
        d="M149.164 55.9415C149.164 55.9415 150.611 53.7819 150.015 49.5768C149.915 48.8718 150.366 48.2043 151.074 48.0687C153.096 47.6807 155.8 45.1609 159.098 50.1656C159.098 50.1656 157.525 44.1712 148.315 46.5861C140.118 48.7353 145.73 55.5976 146.575 56.303C147.421 57.0089 149.164 55.9415 149.164 55.9415Z"
        fill="#263238" />
    <path
        d="M145.749 56.8102C146.303 57.7597 147.202 58.3559 148.027 58.5602C149.268 58.8674 149.909 56.897 149.485 55.6693C149.104 54.5642 147.885 53.8324 146.677 54.0735C145.488 54.3111 145.116 55.7246 145.749 56.8102Z"
        fill="#EEC1BB" />
    <path
        d="M156.681 58.9541C156.3 59.5343 155.841 60.6584 155.841 60.6584C155.73 60.6355 155.62 60.613 155.511 60.5845C154.019 60.2393 153.442 59.5926 153.255 58.9796C153.154 58.644 153.174 58.3157 153.225 58.056C153.28 57.7549 153.389 57.5527 153.389 57.5527C154.069 58.2025 155.436 58.6297 156.175 58.828C156.483 58.9148 156.681 58.9541 156.681 58.9541Z"
        fill="#263238" />
    <path
        d="M156.174 58.8289L155.914 59.3252C154.509 58.9969 153.565 58.5796 153.224 58.0569C153.28 57.7558 153.389 57.5536 153.389 57.5536C154.069 58.2029 155.435 58.6306 156.174 58.8289Z"
        fill="white" />
    <path
        d="M155.51 60.585C154.018 60.2398 153.441 59.5931 153.254 58.9801C153.758 59.117 154.35 59.3374 154.834 59.6877C155.206 59.9538 155.402 60.2778 155.51 60.585Z"
        fill="#DC5753" />
    <path
        d="M156.603 54.3046C156.603 54.3046 157.336 56.0377 158.163 57.1182C158.308 57.307 158.219 57.5826 157.994 57.6642C157.415 57.8746 156.738 57.6841 156.738 57.6841L156.603 54.3046Z"
        fill="#D4827D" />
    <path d="M153.425 53.7132L154.501 53.4622C154.501 53.4622 153.913 54.2544 153.425 53.7132Z"
        fill="#263238" />
    <path d="M158.264 53.6933L159.34 53.4423C159.34 53.4423 158.752 54.2345 158.264 53.6933Z"
        fill="#263238" />
    <path
        d="M159.918 52.1238C159.918 52.1238 162.757 48.8065 160.863 46.0724C160.152 45.0446 158.844 44.8917 157.691 44.3897C155.03 43.2315 152.873 42.9974 149.477 46.2858C145.943 49.7068 145.304 50.8589 149.202 55.0735C149.202 55.0735 148.781 54.5223 150.222 53.2686C151.663 52.0145 153.253 50.8991 152.481 49.683C152.481 49.683 153.679 50.1396 153.765 51.2654L155.872 50.6969C155.872 50.6969 155.78 49.8921 155.223 49.0873C155.223 49.0873 156.315 49.7228 156.669 50.6546L158.492 50.9937C158.492 50.9937 158.225 49.3417 157.71 48.7486C157.709 48.7477 159.379 50.4438 159.918 52.1238Z"
        fill="#263238" />
    <path opacity="0.2"
        d="M148.534 56.6741C148.495 56.2374 148.29 55.8166 147.968 55.5147C147.646 55.2127 147.211 55.0312 146.767 55.0153"
        stroke="black" stroke-width="0.5" stroke-miterlimit="10" stroke-linecap="round"
        stroke-linejoin="round" />
    <path
        d="M170.818 95.094C170.554 94.8931 170.304 94.671 170.07 94.4296C169.871 94.2235 169.732 93.9578 169.78 93.9578C169.77 93.9284 169.758 93.8995 169.744 93.8714L169.66 93.6787L169.455 93.1603C169.316 92.7884 169.183 92.3827 169.05 91.971C168.773 91.1537 168.513 90.3031 168.26 89.446C167.747 87.7249 167.259 85.984 166.764 84.2365L165.856 80.5727C165.725 79.9792 165.521 79.1143 165.251 78.1276L165.25 78.1246C164.511 75.4336 163.278 71.8442 161.665 70.4168C159.162 68.5247 157.563 70.8588 156.533 73.2857C155.544 75.6151 157.986 81.9802 157.986 81.9802L160.96 81.7676C161.336 83.1219 161.73 84.4694 162.119 85.8444C162.626 87.6385 163.229 89.3993 163.832 91.1602C164.14 92.044 164.46 92.9279 164.81 93.8183C165.015 94.2701 165.202 94.7151 165.413 95.1873C165.516 95.4197 165.631 95.6659 165.757 95.9117L165.98 96.3239C166.074 96.4958 166.179 96.6604 166.294 96.8155C166.734 97.3758 167.277 97.8285 167.886 98.1443C168.356 98.404 168.849 98.607 169.358 98.7491C170.286 99.0139 171.243 99.1284 172.2 99.0882L172.737 96.5235C172.097 96.0508 171.392 95.5592 170.818 95.094Z"
        fill="#263238" />
    <path opacity="0.5"
        d="M170.818 95.094C170.554 94.8931 170.304 94.671 170.07 94.4296C169.871 94.2235 169.732 93.9578 169.78 93.9578C169.77 93.9284 169.758 93.8995 169.744 93.8714L169.66 93.6787L169.455 93.1603C169.316 92.7884 169.183 92.3827 169.05 91.971C168.773 91.1537 168.513 90.3031 168.26 89.446C167.747 87.7249 167.259 85.984 166.764 84.2365L165.856 80.5727C165.725 79.9792 165.521 79.1143 165.251 78.1276L165.25 78.1246C164.511 75.4336 163.278 71.8442 161.665 70.4168C159.162 68.5247 157.563 70.8588 156.533 73.2857C155.544 75.6151 157.986 81.9802 157.986 81.9802L160.96 81.7676C161.336 83.1219 161.73 84.4694 162.119 85.8444C162.626 87.6385 163.229 89.3993 163.832 91.1602C164.14 92.044 164.46 92.9279 164.81 93.8183C165.015 94.2701 165.202 94.7151 165.413 95.1873C165.516 95.4197 165.631 95.6659 165.757 95.9117L165.98 96.3239C166.074 96.4958 166.179 96.6604 166.294 96.8155C166.734 97.3758 167.277 97.8285 167.886 98.1443C168.356 98.404 168.849 98.607 169.358 98.7491C170.286 99.0139 171.243 99.1284 172.2 99.0882L172.737 96.5235C172.097 96.0508 171.392 95.5592 170.818 95.094Z"
        fill="white" />
    <g opacity="0.3">
        <path
            d="M162.215 74.5511C162.717 75.3987 162.89 75.8817 163.205 76.8585C163.52 77.8352 163.876 83.1104 162.073 84.6699V81.0126C162.139 78.7714 162.149 76.7919 162.215 74.5511Z"
            fill="black" />
    </g>
    <path
        d="M140.037 81.2229L137.245 71.8192C139.012 69.2155 147.751 67.2145 147.751 67.2145L152.229 68.7671L153.508 67.5255C153.508 67.5255 155.721 68.0132 157.615 68.6237C160.145 69.4384 161.513 70.0938 162.115 71.48C162.115 71.48 163.17 74.5516 162.536 80.8808C162.361 82.6213 162.56 91.6696 163.051 94.659L166.031 103.976C155.511 112.069 140.786 104.512 140.786 104.512C141.259 103.083 142.834 98.6956 143.048 97.299C142.894 95.5174 143.109 92.7699 142.345 89.6504C142.197 89.0473 140.293 81.8079 140.037 81.2229Z"
        fill="#263238" />
    <path opacity="0.5"
        d="M140.037 81.2229L137.245 71.8192C139.012 69.2155 147.751 67.2145 147.751 67.2145L152.229 68.7671L153.508 67.5255C153.508 67.5255 155.721 68.0132 157.615 68.6237C160.145 69.4384 161.513 70.0938 162.115 71.48C162.115 71.48 163.17 74.5516 162.536 80.8808C162.361 82.6213 162.56 91.6696 163.051 94.659L166.031 103.976C155.511 112.069 140.786 104.512 140.786 104.512C141.259 103.083 142.834 98.6956 143.048 97.299C142.894 95.5174 143.109 92.7699 142.345 89.6504C142.197 89.0473 140.293 81.8079 140.037 81.2229Z"
        fill="white" />
    <path
        d="M171.997 91.3504C172.324 87.4369 175.379 84.2837 179.323 83.7882L178.515 85.117L180.056 84.2133L172.992 92.9648L171.997 91.3504Z"
        fill="#207DA9" />
    <path opacity="0.8"
        d="M171.997 91.3504C172.324 87.4369 175.379 84.2837 179.323 83.7882L178.515 85.117L180.056 84.2133L172.992 92.9648L171.997 91.3504Z"
        fill="white" />
    <path
        d="M160.931 84.167L163.359 84.094L174.984 87.988L164.389 103.976L153.962 101.404C153.368 101.242 153.02 100.634 153.184 100.047C153.209 99.9596 153.244 99.8754 153.289 99.7963L157.501 92.2743C157.584 92.1257 157.584 91.9447 157.501 91.7957L156.929 90.7922C156.809 90.5865 156.809 90.3334 156.929 90.1277L159.754 84.8984C159.993 84.4711 160.438 84.1951 160.931 84.167Z"
        fill="#207DA9" />
    <path d="M174.984 87.9881L181.603 83.7882L170.719 99.7627L164.388 103.976L174.984 87.9881Z"
        fill="#207DA9" />
    <path opacity="0.2"
        d="M174.984 87.9881L181.603 83.7882L170.719 99.7627L164.388 103.976L174.984 87.9881Z"
        fill="black" />
    <path
        d="M173.684 95.4171C173.684 95.4171 171.112 94.751 170.546 95.1869C169.981 95.6228 170.755 96.0366 170.755 96.0366C170.755 96.0366 169.869 95.6431 169.605 96.0625C169.288 96.5658 170.101 96.9956 170.101 96.9956C170.101 96.9956 169.361 96.7092 169.147 97.0959C168.924 97.4968 169.8 98.0592 169.8 98.0592C169.8 98.0592 169.228 97.9724 169.207 98.3107C169.185 98.6489 171.016 99.8862 171.826 99.8024C172.635 99.7185 174.387 96.8129 174.661 96.1126C174.935 95.4119 174.907 94.8663 174.387 94.379L173.684 95.4171Z"
        fill="#EEC1BB" />
    <path opacity="0.2"
        d="M170.728 96.0855C170.729 96.0863 170.73 96.0867 170.732 96.0872L172.317 96.6864C172.339 96.6941 172.366 96.6782 172.379 96.6505C172.392 96.6224 172.384 96.5926 172.364 96.5853L170.778 95.9861C170.756 95.9783 170.729 95.9943 170.716 96.0219C170.704 96.0483 170.71 96.076 170.728 96.0855Z"
        fill="black" />
    <path opacity="0.2"
        d="M170.116 97.0673L170.117 97.0678L171.579 97.7845C171.599 97.7944 171.627 97.7806 171.641 97.7534C171.655 97.7261 171.651 97.702 171.63 97.686L170.169 96.9693C170.148 96.9593 170.12 96.9732 170.106 97.0004C170.092 97.0272 170.096 97.057 170.116 97.0673Z"
        fill="black" />
    <path opacity="0.2"
        d="M169.822 98.1345L170.889 98.7038C170.909 98.7146 170.937 98.7012 170.952 98.6745C170.967 98.6477 170.962 98.617 170.942 98.6062L169.875 98.0368C169.855 98.026 169.827 98.0394 169.812 98.0662C169.797 98.0934 169.802 98.1241 169.822 98.1345Z"
        fill="black" />
    <path
        d="M155.159 67.9234L153.217 66.0662L152.229 68.7671L147.916 65.3716L145.729 67.7411L151.146 71.4697L152.229 69.1019L155.159 71.2727V67.9234Z"
        fill="#263238" />
    <path opacity="0.3"
        d="M155.159 67.9235C155.296 68.1325 155.159 71.2728 155.159 71.2728L152.229 69.102L151.146 71.4697L145.94 67.9235L151.268 72.5091L152.229 69.7249L155.496 72.5091L155.159 67.9235Z"
        fill="black" />
    <path opacity="0.3"
        d="M157.93 82.4878L143.01 96.6885V93.8823C143.01 93.8823 156.44 81.7292 156.603 81.712C156.766 81.6943 157.93 82.4878 157.93 82.4878Z"
        fill="black" />
    <path opacity="0.3" d="M143.917 83.6115L142.301 77.0273L141.98 84.6699L143.917 83.6115Z"
        fill="black" />
    <path
        d="M146.594 58.4392C146.594 58.9282 146.996 59.3248 147.491 59.3248C147.986 59.3248 148.387 58.9282 148.387 58.4392C148.387 57.9502 147.986 57.5536 147.491 57.5536C146.995 57.5532 146.594 57.9497 146.594 58.4392Z"
        fill="#207DA9" />
    <path
        d="M137.245 71.8187C137.245 71.8187 135.228 73.7588 134.549 80.3775C134.061 85.1282 132.829 95.3727 136.566 96.6881C140.304 98.0035 156.603 82.6105 156.603 82.6105L153.957 78.1238L141.98 84.669C141.98 84.669 143.201 73.818 141.09 72.8266C138.98 71.8351 137.245 71.8187 137.245 71.8187Z"
        fill="#263238" />
    <path opacity="0.5"
        d="M137.245 71.8187C137.245 71.8187 135.228 73.7588 134.549 80.3775C134.061 85.1282 132.829 95.3727 136.566 96.6881C140.304 98.0035 156.603 82.6105 156.603 82.6105L153.957 78.1238L141.98 84.669C141.98 84.669 143.201 73.818 141.09 72.8266C138.98 71.8351 137.245 71.8187 137.245 71.8187Z"
        fill="white" />
    <path
        d="M154.98 77.7915C154.98 77.7915 156.553 74.6811 157.299 74.5442C158.045 74.4072 158.647 74.6531 158.647 74.6531C158.647 74.6531 163.728 71.696 164.066 72.4741C164.249 72.8953 163.121 73.8232 160.699 75.1883C160.699 75.1883 162.093 75.6955 161.531 76.5029C161.531 76.5029 162.558 76.9681 162.01 77.976C162.01 77.976 162.482 78.8664 161.889 79.4349C161.296 80.0034 158.504 81.5728 156.888 81.807C155.271 82.0411 154.328 78.9376 154.328 78.9376L154.98 77.7915Z"
        fill="#EEC1BB" />
    <path
        d="M172.146 166.662C173.517 167.299 174.363 168.791 175.783 169.313C176.58 169.607 177.459 169.538 178.264 169.244V149.23H158.873C158.849 148.796 158.899 148.362 159.054 147.95C159.583 146.547 161.093 145.712 161.738 144.358C162.691 142.36 161.348 139.87 159.38 138.822C157.853 138.01 157.053 137.857 155.733 137.932C154.414 137.857 153.614 138.01 152.087 138.822C150.118 139.87 148.775 142.36 149.728 144.358C150.374 145.712 151.884 146.547 152.413 147.95C152.568 148.362 152.618 148.796 152.594 149.23H133.203V193.742H178.264V175.943C177.459 175.649 176.581 175.58 175.783 175.873C174.363 176.396 173.511 177.876 172.146 178.525C170.325 179.391 167.611 178.137 166.542 176.195C165.713 174.69 165.565 173.896 165.641 172.593C165.565 171.29 165.719 170.5 166.542 168.991C167.603 167.047 170.123 165.721 172.146 166.662Z"
        fill="#207DA9" />
    <path opacity="0.4"
        d="M172.146 166.662C173.517 167.299 174.363 168.791 175.783 169.313C176.58 169.607 177.459 169.538 178.264 169.244V149.23H158.873C158.849 148.796 158.899 148.362 159.054 147.95C159.583 146.547 161.093 145.712 161.738 144.358C162.691 142.36 161.348 139.87 159.38 138.822C157.853 138.01 157.053 137.857 155.733 137.932C154.414 137.857 153.614 138.01 152.087 138.822C150.118 139.87 148.775 142.36 149.728 144.358C150.374 145.712 151.884 146.547 152.413 147.95C152.568 148.362 152.618 148.796 152.594 149.23H133.203V193.742H178.264V175.943C177.459 175.649 176.581 175.58 175.783 175.873C174.363 176.396 173.511 177.876 172.146 178.525C170.325 179.391 167.611 178.137 166.542 176.195C165.713 174.69 165.565 173.896 165.641 172.593C165.565 171.29 165.719 170.5 166.542 168.991C167.603 167.047 170.123 165.721 172.146 166.662Z"
        fill="black" />
    <path
        d="M174.356 166.662C175.727 167.299 176.572 168.791 177.992 169.313C178.79 169.607 179.668 169.538 180.474 169.244V149.23H161.082C161.058 148.796 161.108 148.362 161.264 147.95C161.793 146.547 163.302 145.712 163.948 144.358C164.9 142.36 163.558 139.87 161.589 138.822C160.062 138.01 159.262 137.857 157.943 137.932C156.623 137.857 155.824 138.01 154.296 138.822C152.328 139.87 150.985 142.36 151.938 144.358C152.583 145.712 154.093 146.547 154.622 147.95C154.777 148.362 154.828 148.796 154.804 149.23H135.412V193.742H180.474V175.943C179.668 175.649 178.79 175.58 177.992 175.873C176.572 176.396 175.721 177.876 174.356 178.525C172.535 179.391 169.82 178.137 168.752 176.195C167.923 174.69 167.775 173.896 167.85 172.593C167.775 171.29 167.929 170.5 168.752 168.991C169.812 167.047 172.332 165.721 174.356 166.662Z"
        fill="#207DA9" />
    <path opacity="0.4"
        d="M172.991 178.835C172.991 178.835 174.552 181.597 177.232 181.367C179.912 181.136 180.473 179.985 180.473 179.985L180.436 176.187L174.457 178.448C174.045 178.783 173.551 178.897 172.991 178.835Z"
        fill="black" />
    <path
        d="M228.481 155.339L243.884 149.492L252.775 140.978C253.022 140.696 255.6 136.304 255.6 136.304L259.964 145.537C259.964 145.537 249.114 156.308 245.139 157.562C241.927 158.576 230.555 161.328 230.555 161.328L228.481 155.339Z"
        fill="#207DA9" />
    <path opacity="0.4"
        d="M237.923 159.502C237.923 159.502 239.78 152.311 243.931 150.815C248.083 149.32 253.449 151.665 253.295 151.766C253.141 151.868 248.646 156.002 248.493 156.052C248.378 156.09 242.664 158.08 239.707 159.045L237.923 159.502Z"
        fill="black" />
    <path
        d="M209.959 149.459C209.935 149.894 209.986 150.328 210.141 150.739C210.67 152.142 212.18 152.977 212.825 154.332C213.778 156.33 212.435 158.82 210.467 159.867C208.94 160.68 208.14 160.832 206.82 160.758C205.501 160.832 204.701 160.679 203.174 159.867C201.205 158.82 199.863 156.33 200.815 154.332C201.461 152.977 202.97 152.142 203.5 150.739C203.655 150.328 203.705 149.894 203.681 149.459H183.596V169.458C182.78 169.765 181.887 169.841 181.077 169.543C179.657 169.02 178.812 167.529 177.441 166.891C175.418 165.95 172.897 167.276 171.837 169.221C171.014 170.729 170.86 171.52 170.935 172.823C170.86 174.126 171.014 174.916 171.837 176.425C172.897 178.369 175.418 179.696 177.441 178.755C178.812 178.117 179.657 176.626 181.077 176.103C181.887 175.805 182.78 175.881 183.596 176.187V193.972L228.502 194.17V149.658L209.959 149.459Z"
        fill="#263238" />
    <g opacity="0.4">
        <path
            d="M209.959 149.459C209.935 149.894 209.986 150.328 210.141 150.739C210.67 152.142 212.18 152.977 212.825 154.332C213.778 156.33 212.435 158.82 210.467 159.867C208.94 160.68 208.14 160.832 206.82 160.758C205.501 160.832 204.701 160.679 203.174 159.867C201.205 158.82 199.863 156.33 200.815 154.332C201.461 152.977 202.97 152.142 203.5 150.739C203.655 150.328 203.705 149.894 203.681 149.459H183.596V169.458C182.78 169.765 181.887 169.841 181.077 169.543C179.657 169.02 178.812 167.529 177.441 166.891C175.418 165.95 172.897 167.276 171.837 169.221C171.014 170.729 170.86 171.52 170.935 172.823C170.86 174.126 171.014 174.916 171.837 176.425C172.897 178.369 175.418 179.696 177.441 178.755C178.812 178.117 179.657 176.626 181.077 176.103C181.887 175.805 182.78 175.881 183.596 176.187V193.972L228.502 194.17V149.658L209.959 149.459Z"
            fill="black" />
    </g>
    <path
        d="M211.947 149.459C211.923 149.894 211.973 150.328 212.129 150.739C212.658 152.142 214.168 152.977 214.813 154.332C215.766 156.33 214.423 158.82 212.455 159.867C210.927 160.68 210.127 160.832 208.808 160.758C207.489 160.832 206.689 160.679 205.162 159.867C203.193 158.82 201.85 156.33 202.803 154.332C203.449 152.977 204.958 152.142 205.487 150.739C205.643 150.328 205.693 149.894 205.669 149.459H185.584V169.458C184.768 169.765 183.875 169.841 183.065 169.543C181.645 169.02 180.799 167.529 179.428 166.891C177.405 165.95 174.885 167.276 173.824 169.221C173.002 170.729 172.847 171.52 172.923 172.823C172.848 174.126 173.002 174.916 173.824 176.425C174.885 178.369 177.405 179.696 179.428 178.755C180.799 178.117 181.645 176.626 183.065 176.103C183.875 175.805 184.768 175.881 185.584 176.187V193.972L230.49 194.17V149.658L211.947 149.459Z"
        fill="#263238" />
    <path
        d="M243.578 179.465L250.641 179.042C249.511 185.189 248.349 189.177 248.843 192.333L245.996 194.213L243.36 191.652C243.36 191.652 242.873 186.628 243.578 179.465Z"
        fill="#E9B376" />
    <path
        d="M242.936 187.339L245.502 187.368C246.744 189.493 247.603 188.992 248.919 187.494C249.665 187.417 249.855 188.263 249.913 188.49L251.249 193.52C251.365 193.94 251.114 194.373 250.689 194.488C250.614 194.509 250.535 194.518 250.457 194.516C248.19 194.49 247.118 194.477 244.297 194.445L235.67 194.344C233.318 194.317 232.858 191.97 233.83 191.765C238.197 190.865 241.297 189.634 242.658 188.398C242.911 188.181 242.656 188.014 242.936 187.339Z"
        fill="#207DA9" />
    <path d="M241.623 188.746C242.265 188.841 242.857 189.227 243.196 189.773" stroke="#263238"
        stroke-width="0.5" stroke-miterlimit="10" stroke-linecap="round" stroke-linejoin="round" />
    <path d="M240.453 189.595C241.095 189.69 241.687 190.076 242.026 190.622" stroke="#263238"
        stroke-width="0.5" stroke-miterlimit="10" stroke-linecap="round" stroke-linejoin="round" />
    <path d="M239.001 190.304C239.643 190.398 240.235 190.784 240.574 191.331" stroke="#263238"
        stroke-width="0.5" stroke-miterlimit="10" stroke-linecap="round" stroke-linejoin="round" />
    <path opacity="0.7"
        d="M250.689 194.488C250.613 194.509 250.535 194.518 250.457 194.516C248.191 194.49 247.118 194.477 244.297 194.445L235.67 194.344C234.397 194.33 233.683 193.636 233.446 192.969C233.804 192.976 250.946 193.306 251.173 193.234L251.264 193.609C251.325 193.999 251.085 194.382 250.689 194.488Z"
        fill="white" />
    <path
        d="M270.627 160.961C270.627 160.961 251.337 151.121 247.581 150.84C243.825 150.56 240.236 152.569 239.518 160.251C238.8 167.934 240.236 187.691 240.236 187.691L250.641 187.867L251.931 164.978C251.931 164.978 268.046 176.606 268.525 176.488C269.003 176.37 275.294 176.089 275.294 176.089L270.627 160.961Z"
        fill="#263238" />
    <path opacity="0.3"
        d="M270.627 160.961C270.627 160.961 251.337 151.121 247.581 150.84C243.825 150.56 240.236 152.569 239.518 160.251C238.8 167.934 240.236 187.691 240.236 187.691L250.641 187.867L251.931 164.978C251.931 164.978 268.046 176.606 268.525 176.488C269.003 176.37 275.294 176.089 275.294 176.089L270.627 160.961Z"
        fill="white" />
    <path opacity="0.4"
        d="M251.339 175.683C251.339 175.683 242.838 178.624 242.748 185.549C242.657 192.475 250.154 191.157 250.154 191.157L251.339 175.683Z"
        fill="black" />
    <path
        d="M278.01 193.726L276.098 186.859C282.782 186.144 287.248 187.77 290.356 186.321L293.155 188.622L291.306 192.048C291.306 192.048 286.378 193.701 278.01 193.726Z"
        fill="#E9B376" />
    <path
        d="M286.983 193.775L286.239 191.181C288.058 189.291 287.283 188.576 285.339 187.702C285.035 186.974 285.851 186.528 286.068 186.401L290.856 183.54C291.255 183.296 291.778 183.418 292.025 183.812C292.068 183.882 292.101 183.958 292.123 184.037C292.779 186.328 293.089 187.412 293.906 190.262L296.403 198.981C297.083 201.358 294.8 202.528 294.295 201.611C292.049 197.484 289.845 194.733 288.158 193.735C287.86 193.546 287.764 193.853 286.983 193.775Z"
        fill="#207DA9" />
    <path d="M288.831 194.673C288.735 193.998 288.955 193.285 289.417 192.779" stroke="#263238"
        stroke-width="0.5" stroke-miterlimit="10" stroke-linecap="round" stroke-linejoin="round" />
    <path d="M290.06 195.595C289.964 194.921 290.184 194.208 290.646 193.701" stroke="#263238"
        stroke-width="0.5" stroke-miterlimit="10" stroke-linecap="round" stroke-linejoin="round" />
    <path d="M291.229 196.844C291.132 196.169 291.353 195.457 291.814 194.95" stroke="#263238"
        stroke-width="0.5" stroke-miterlimit="10" stroke-linecap="round" stroke-linejoin="round" />
    <path opacity="0.7"
        d="M292.025 183.812C292.069 183.882 292.102 183.958 292.123 184.037C292.779 186.328 293.09 187.412 293.906 190.262L296.403 198.981C296.771 200.267 296.271 201.195 295.654 201.636C295.554 201.273 290.727 183.909 290.584 183.703L290.944 183.498C291.329 183.319 291.795 183.446 292.025 183.812Z"
        fill="white" />
    <path
        d="M291.767 164.712L292.605 168.865C292.605 168.865 294.752 177.103 291.742 181.241C288.867 185.194 284.626 185.899 284.626 185.899L285.498 193.844L284.626 194.381C284.626 194.381 279.077 194.381 267.718 193.868C256.929 193.382 247.654 192.872 245.739 189.563C243.825 186.254 243.383 184.646 246.513 180.699C249.343 177.131 270.884 171.876 271.634 171.663L271.333 169.849L270.984 168.566L291.767 164.712Z"
        fill="#263238" />
    <path opacity="0.3"
        d="M291.767 164.712L292.605 168.865C292.605 168.865 294.752 177.103 291.742 181.241C288.867 185.194 284.626 185.899 284.626 185.899L285.498 193.844L284.626 194.381C284.626 194.381 279.077 194.381 267.718 193.868C256.929 193.382 247.654 192.872 245.739 189.563C243.825 186.254 243.383 184.646 246.513 180.699C249.343 177.131 270.884 171.876 271.634 171.663L271.333 169.849L270.984 168.566L291.767 164.712Z"
        fill="white" />
    <path opacity="0.4"
        d="M284.626 185.899C283.964 186.07 260.564 185.324 260.564 185.324C260.564 185.324 267.48 186.496 272.595 186.922C277.709 187.348 284.626 185.899 284.626 185.899Z"
        fill="black" />
    <path opacity="0.4"
        d="M271.634 171.663L285.108 169.341C285.108 169.341 275.396 169.185 271.634 171.663Z"
        fill="black" />
    <path
        d="M237.283 162.238C237.283 162.238 236.159 160.529 234.486 160.198C232.813 159.867 231.566 159.163 230.306 159.002C229.045 158.841 230.189 160.104 230.935 160.655C231.681 161.205 232.522 161.837 232.012 162.324C231.503 162.811 225.595 164.291 224.967 165.045C224.338 165.8 225.37 165.855 225.37 165.855C225.37 165.855 223.945 166.253 223.95 166.854C223.952 167.01 224.211 167.37 224.89 167.289C226.415 167.108 229.598 166.564 229.598 166.564C229.414 166.592 225.535 167.54 224.973 167.757C224.238 168.04 224.038 168.544 224.218 168.96C224.475 169.551 229.325 168.538 229.56 168.636C229.56 168.636 226.748 169.128 226.479 169.914C226.21 170.701 227.997 170.486 229.537 170.002C230.948 169.558 233.835 169.052 235.226 168.463C236.939 167.737 237.924 166.87 237.962 165.144C237.999 163.417 237.283 162.238 237.283 162.238Z"
        fill="#E9B376" />
    <path d="M235.435 162.201L239.749 160.496L241.24 165.107L236.18 166.889L235.435 162.201Z"
        fill="#E9B376" />
    <path
        d="M266.733 130.314C266.733 130.314 265.561 127.7 265.81 122.525C265.808 122.52 265.523 122.467 265.522 122.463C265.553 121.739 265.61 121.065 265.675 120.476C265.676 120.459 265.675 120.454 265.675 120.454L259.964 126.129C260.496 127.639 260.658 130.763 260.629 132.105C260.629 132.105 260.336 134.592 263.441 133.964C265.709 133.505 266.733 130.314 266.733 130.314Z"
        fill="#E9B376" />
    <path opacity="0.2"
        d="M260.376 128.332L264.025 126.561C263.962 127.829 263.24 129.484 260.584 130.233C260.584 130.233 260.531 128.844 260.376 128.332Z"
        fill="black" />
    <path
        d="M264.948 117.226C265.512 121.529 265.919 123.945 264.162 126.523C261.518 130.4 255.949 129.489 254.089 125.427C252.415 121.771 251.773 115.347 255.674 112.891C259.517 110.472 264.383 112.922 264.948 117.226Z"
        fill="#E9B376" />
    <path
        d="M263.27 111.172C261.253 108.839 257.497 110.882 256.07 112.395C255.856 112.622 259.719 113.699 259.49 113.663L260.711 114.662C260.868 114.595 261.193 116.074 261.469 117.355C261.722 118.532 262.29 119.616 263.121 120.496C263.817 121.233 264.749 122.116 265.796 122.832C267.159 121.822 266.742 119.221 266.917 117.592C267.177 115.165 267.119 110.621 263.27 111.172Z"
        fill="#263238" />
    <path
        d="M267.339 120.448C267.208 121.609 266.544 122.597 265.771 123.178C264.609 124.053 263.86 122.757 263.72 121.393C263.595 120.167 263.665 118.629 265.054 118.29C266.422 117.956 267.489 119.121 267.339 120.448Z"
        fill="#E9B376" />
    <path
        d="M259.024 119.626C259.109 120.061 258.943 120.456 258.655 120.508C258.365 120.56 258.062 120.25 257.978 119.814C257.893 119.379 258.058 118.984 258.347 118.932C258.636 118.88 258.939 119.191 259.024 119.626Z"
        fill="#263238" />
    <path
        d="M254.719 120.533C254.804 120.968 254.639 121.363 254.35 121.415C254.061 121.467 253.757 121.156 253.673 120.721C253.588 120.286 253.753 119.891 254.042 119.839C254.331 119.787 254.634 120.097 254.719 120.533Z"
        fill="#263238" />
    <path
        d="M256.078 120.024C256.078 120.024 255.104 122.452 254.829 123.417C255.549 123.848 256.556 123.395 256.556 123.395L256.078 120.024Z"
        fill="#D58745" />
    <path
        d="M259.701 117.37C259.64 117.409 259.559 117.416 259.489 117.381C258.651 116.958 257.973 117.326 257.966 117.33C257.865 117.386 257.736 117.351 257.678 117.252C257.62 117.153 257.656 117.027 257.756 116.971C257.791 116.951 258.641 116.49 259.68 117.015C259.784 117.067 259.825 117.191 259.772 117.293C259.755 117.325 259.731 117.351 259.701 117.37Z"
        fill="#263238" />
    <path d="M258.271 124.507C258.986 124.377 259.472 123.919 259.923 123.288" stroke="#263238"
        stroke-width="0.75" stroke-miterlimit="10" stroke-linecap="round" stroke-linejoin="round" />
    <path opacity="0.2"
        d="M266.127 119.459C265.904 119.238 265.532 119.212 265.245 119.342C264.958 119.473 264.749 119.733 264.614 120.014C264.451 120.353 264.379 120.733 264.409 121.106"
        stroke="black" stroke-width="0.5" stroke-miterlimit="10" stroke-linecap="round"
        stroke-linejoin="round" />
    <path
        d="M252.454 119.058C252.414 119.058 252.374 119.045 252.339 119.021C252.243 118.955 252.219 118.826 252.284 118.732C252.941 117.789 253.906 117.817 253.949 117.812C254.065 117.816 254.157 117.912 254.154 118.026C254.152 118.14 254.056 118.23 253.941 118.227C253.901 118.225 253.157 118.213 252.63 118.969C252.589 119.029 252.522 119.06 252.454 119.058Z"
        fill="#263238" />
    <path
        d="M263.27 111.172C263.27 111.172 260.588 107.898 255.949 108.978C252.218 109.847 250.272 112.543 250.199 115.123C250.168 116.231 250.417 117.056 250.711 117.636C250.933 118.074 251.571 118.009 251.714 117.539C251.755 117.406 251.803 117.275 251.86 117.146C251.875 117.175 251.891 117.204 251.908 117.232C252.18 117.682 252.903 117.517 252.914 116.993C252.917 116.827 252.937 116.662 252.971 116.498C252.974 116.502 252.976 116.506 252.979 116.51C253.227 116.905 253.851 116.785 253.95 116.331C254.389 114.326 256.863 112.819 259.098 113.716L260.711 114.662C262.56 113.595 263.27 111.172 263.27 111.172Z"
        fill="#263238" />
    <path opacity="0.4"
        d="M270.232 168.686L269.977 170.372L262.453 172.609L264.187 173.707L271.634 171.663L271.941 168.388L270.232 168.686Z"
        fill="black" />
    <path
        d="M275.853 130.843C272.475 128.704 266.521 129.721 266.521 129.721L255.6 136.304L263.068 153.643C263.068 153.643 266.184 161.017 267.865 165.928C268.282 167.145 269.078 168.842 270.368 168.676L291.11 164.971C292.124 164.79 292.764 163.792 292.49 162.811C290.488 155.666 278.879 132.76 275.853 130.843Z"
        fill="#207DA9" />
    <path opacity="0.4"
        d="M277.803 140.487C277.803 140.487 274.479 146.668 268.643 152.058C266.286 154.234 264.649 157.372 264.649 157.372L263.186 153.68L277.803 140.487Z"
        fill="black" />
    <path
        d="M267.52 135.724L253.38 153.141L236.779 160.587L238.434 167.375C238.434 167.375 251.894 163.787 257.304 160.457C262.714 157.126 271.633 147.814 271.633 147.814C271.633 147.814 279.412 141.647 279.041 136.658C278.67 131.669 271.266 130.504 267.52 135.724Z"
        fill="#207DA9" />
    <path
        d="M259.844 133.745C259.844 133.745 260.369 131.085 260.624 131.192C260.879 131.299 263.406 132.798 263.406 132.798L266.233 128.615L267.93 129.724L264.025 137.721L259.844 133.745Z"
        fill="#207DA9" />
    <path opacity="0.4"
        d="M258.603 144.908L255.342 140.487L257.976 147.41L259.259 146.062L268.263 134.819L258.603 144.908Z"
        fill="black" />
    <path opacity="0.4"
        d="M259.844 133.746C259.987 133.796 262.328 135.355 262.201 135.381C262.072 135.406 263.186 133.515 263.186 133.515L265.668 134.448L267.706 129.576L265.7 135.188L263.349 134.065L262.201 136.122L259.844 133.746Z"
        fill="black" />
    <path
        d="M98.7158 100.634C98.7399 100.199 98.6896 99.7652 98.5343 99.3535C98.0052 97.9508 96.4955 97.1158 95.85 95.7615C94.8975 93.763 96.2401 91.2734 98.2085 90.2258C99.7357 89.4132 100.536 89.2607 101.855 89.3355C103.174 89.2607 103.974 89.4137 105.502 90.2258C107.47 91.2734 108.813 93.763 107.86 95.7615C107.215 97.1158 105.705 97.9508 105.176 99.3535C105.02 99.7652 104.97 100.199 104.994 100.634H125.079V80.6345C125.895 80.3283 126.788 80.2522 127.598 80.5503C129.018 81.073 129.864 82.5643 131.235 83.2019C133.258 84.1428 135.778 82.8166 136.839 80.8721C137.661 79.3636 137.816 78.5735 137.74 77.2701C137.816 75.9668 137.661 75.1767 136.839 73.6681C135.778 71.7232 133.258 70.3974 131.235 71.3383C129.864 71.976 129.018 73.4672 127.598 73.99C126.788 74.288 125.895 74.212 125.079 73.9057V56.1211L80.1733 55.9229V100.435L98.7158 100.634Z"
        fill="#263238" />
    <g opacity="0.4">
        <path
            d="M98.7158 100.634C98.7399 100.199 98.6896 99.7652 98.5343 99.3535C98.0052 97.9508 96.4955 97.1158 95.85 95.7615C94.8975 93.763 96.2401 91.2734 98.2085 90.2258C99.7357 89.4132 100.536 89.2607 101.855 89.3355C103.174 89.2607 103.974 89.4137 105.502 90.2258C107.47 91.2734 108.813 93.763 107.86 95.7615C107.215 97.1158 105.705 97.9508 105.176 99.3535C105.02 99.7652 104.97 100.199 104.994 100.634H125.079V80.6345C125.895 80.3283 126.788 80.2522 127.598 80.5503C129.018 81.073 129.864 82.5643 131.235 83.2019C133.258 84.1428 135.778 82.8166 136.839 80.8721C137.661 79.3636 137.816 78.5735 137.74 77.2701C137.816 75.9668 137.661 75.1767 136.839 73.6681C135.778 71.7232 133.258 70.3974 131.235 71.3383C129.864 71.976 129.018 73.4672 127.598 73.99C126.788 74.288 125.895 74.212 125.079 73.9057V56.1211L80.1733 55.9229V100.435L98.7158 100.634Z"
            fill="black" />
    </g>
    <path
        d="M100.077 100.634C100.101 100.199 100.051 99.7652 99.8957 99.3535C99.3665 97.9508 97.8568 97.1158 97.2113 95.7615C96.2588 93.763 97.6014 91.2734 99.5699 90.2258C101.097 89.4132 101.897 89.2607 103.216 89.3355C104.536 89.2607 105.336 89.4137 106.863 90.2258C108.832 91.2734 110.174 93.763 109.221 95.7615C108.576 97.1158 107.066 97.9508 106.537 99.3535C106.382 99.7652 106.331 100.199 106.356 100.634H126.44V80.6345C127.256 80.3283 128.149 80.2522 128.96 80.5503C130.38 81.073 131.225 82.5643 132.596 83.2019C134.619 84.1428 137.139 82.8166 138.2 80.8721C139.023 79.3636 139.177 78.5735 139.101 77.2701C139.177 75.9668 139.022 75.1767 138.2 73.6681C137.139 71.7232 134.619 70.3974 132.596 71.3383C131.225 71.976 130.38 73.4672 128.96 73.99C128.15 74.288 127.256 74.212 126.44 73.9057V56.1211L81.5347 55.9229V100.435L100.077 100.634Z"
        fill="#263238" />
    <path
        d="M70.2204 76.808C70.2204 76.808 66.9412 88.2836 69.0387 90.2812C71.1361 92.2788 78.4763 90.9469 78.102 90.7992C77.7276 90.651 79.9746 76.8503 80.1242 77.3506C80.2738 77.8513 70.2204 76.808 70.2204 76.808Z"
        fill="#B97964" />
    <path
        d="M74.2999 180.424L74.2898 190.379L78.9693 190.739L80.6141 181.386C78.4738 179.859 76.3676 179.495 74.2999 180.424Z"
        fill="#B97964" />
    <path
        d="M74.2478 189.34C73.7873 190.654 73.7571 196.03 73.7571 196.03L83.6762 196.041C84.2658 194.097 83.3535 192.77 82.1967 192.594C81.6995 192.519 81.1148 191.973 80.6884 191.496C80.6853 191.434 80.0787 188.448 79.7039 188.305C79.7039 188.305 79.4455 187.995 79.2255 188.305C79.0055 188.615 78.8144 189.624 78.8144 189.624C77.2667 187.568 75.7491 187.842 74.2478 189.34Z"
        fill="#263238" />
    <path
        d="M74.1277 190.901C75.2486 190.459 76.4512 190.627 77.4282 191.362C77.5992 191.49 77.7615 191.19 77.5918 191.062C76.5509 190.28 75.235 190.096 74.0415 190.567C73.8473 190.643 73.9313 190.979 74.1277 190.901Z"
        fill="white" />
    <path
        d="M83.647 195.255C83.6466 195.255 83.6466 195.255 83.647 195.255L73.8735 195.244C73.7838 195.244 73.7117 195.166 73.7117 195.07C73.7117 194.975 73.7843 194.897 73.8739 194.897L83.6474 194.908C83.7371 194.908 83.8093 194.986 83.8093 195.082C83.8088 195.178 83.7362 195.255 83.647 195.255Z"
        fill="white" />
    <path
        d="M94.4882 179.126L94.4768 190.362L98.9796 190.729L101.195 180.211C99.3867 178.774 97.2875 178.07 94.4882 179.126Z"
        fill="#B97964" />
    <path
        d="M94.2729 189.364C93.8124 190.678 93.7822 196.053 93.7822 196.053L105.178 196.067C105.767 194.123 104.536 192.97 103.379 192.794C102.882 192.719 101.14 191.996 100.714 191.52C100.71 191.458 100.104 188.472 99.7295 188.329C99.7295 188.329 99.4711 188.018 99.2511 188.328C99.0311 188.638 98.84 189.647 98.84 189.647C97.2918 187.591 95.7743 187.866 94.2729 189.364Z"
        fill="#263238" />
    <path
        d="M94.1526 190.925C95.2735 190.483 96.4761 190.651 97.4531 191.385C97.6241 191.513 97.7864 191.213 97.6167 191.085C96.5758 190.303 95.2599 190.119 94.0664 190.59C93.8722 190.667 93.9562 191.002 94.1526 190.925Z"
        fill="white" />
    <path
        d="M105.179 195.281L93.8981 195.268C93.8085 195.268 93.7363 195.19 93.7363 195.094C93.7363 194.998 93.8089 194.921 93.8986 194.921L105.179 194.934C105.269 194.934 105.341 195.011 105.341 195.107C105.341 195.203 105.268 195.281 105.179 195.281Z"
        fill="white" />
    <path
        d="M72.3595 185.33L82.3316 185.855C84.569 178.693 86.7801 153.012 87.0089 145.302C87.2818 136.09 90.6212 112.969 87.6688 108.158C84.7164 103.347 71.3611 107.179 71.3611 107.179C71.3611 107.179 73.0251 135.331 72.36 144.309C71.7831 152.09 70.8909 174.964 72.3595 185.33Z"
        fill="#263238" />
    <path d="M83.408 183.26L82.7599 186.551L71.9533 186.204L71.5571 183.044L83.408 183.26Z"
        fill="#207DA9" />
    <path
        d="M92.2752 185.33L102.161 185.855C103.365 177.926 108.2 149.052 107.803 143.521C107.318 136.765 101.592 107.521 99.4628 105.266C97.3339 103.012 81.7451 108.856 81.7451 108.856C81.7451 108.856 88.1516 134.004 93.2032 144.88C94.2524 147.139 91.4635 175.687 92.2752 185.33Z"
        fill="#263238" />
    <path d="M103.292 183.506L102.787 186.551L91.8007 185.855L91.5798 182.667L103.292 183.506Z"
        fill="#207DA9" />
    <path opacity="0.3"
        d="M87.982 131.027L85.0789 121.443L79.9285 119.782L83.955 122.866L87.1934 140.335L87.982 131.027Z"
        fill="black" />
    <path
        d="M93.5369 46.1399C93.5369 46.5533 93.7205 46.8652 93.9847 46.9088C94.2493 46.9524 94.4916 46.6043 94.5134 46.1835C94.5353 45.7627 94.3372 45.4582 94.0726 45.4145C93.8084 45.3709 93.588 45.7407 93.5369 46.1399Z"
        fill="#263238" />
    <path
        d="M93.7056 46.0819C93.8525 47.4146 94.1862 48.721 94.697 49.963C94.0349 50.2032 93.2993 50.1449 92.6848 49.8036L93.7056 46.0819Z"
        fill="#A24E3F" />
    <path
        d="M92.7803 44.8123C92.726 44.8175 92.6718 44.805 92.6259 44.776C92.5305 44.6831 92.5297 44.5315 92.6233 44.4373C92.6241 44.4365 92.625 44.4356 92.6259 44.4347C93.1157 43.8321 93.8718 43.502 94.6529 43.5496C94.7824 43.5612 94.8777 43.6735 94.8663 43.8014C94.8663 43.8023 94.8663 43.8027 94.8663 43.8036C94.844 43.9323 94.7264 44.023 94.5948 44.014C93.9759 43.9863 93.3816 44.2567 93.0011 44.7393C92.9451 44.8006 92.8616 44.8283 92.7803 44.8123Z"
        fill="#263238" />
    <path
        d="M93.7132 51.6309C93.6585 51.8517 93.5903 52.0694 93.5102 52.2824C93.0611 53.4997 92.2437 54.5573 91.1648 55.3159C90.8937 55.509 90.6072 55.6813 90.3076 55.8304C87.9578 57.0512 85.0592 56.6032 83.215 54.7353C80.8416 52.4081 80.9032 49.7197 80.6329 45.1695C80.5617 44.1914 80.7257 43.2112 81.1123 42.3058C82.4719 39.128 86.2269 37.622 89.499 38.9426C89.4999 38.9431 89.5008 38.9435 89.5016 38.9435C94.0796 40.7618 94.7111 47.5295 93.7132 51.6309Z"
        fill="#B97964" />
    <path opacity="0.2"
        d="M91.1482 55.316C90.8771 55.5091 90.5906 55.6815 90.2911 55.8305C88.7014 56.6539 86.813 56.7342 85.155 56.0495C85.3671 55.5026 85.6492 54.9838 85.9951 54.5056C87.7572 54.2908 89.5459 54.5725 91.1482 55.316Z"
        fill="black" />
    <path
        d="M81.7158 61.2187C84.0276 63.2556 89.6823 62.5056 89.6823 62.5056C89.6823 62.5056 93.2116 61.5639 92.4672 60.496C90.3925 60.162 89.3831 59.2203 88.9659 58.0098C88.7407 57.2625 88.6699 56.4788 88.7573 55.7047C88.7906 55.2727 88.8492 54.8433 88.9323 54.4177L81.941 49.391C82.8546 52.7096 83.9768 58.8146 81.7158 61.2187Z"
        fill="#B97964" />
    <path
        d="M91.1482 47.4915L92.1576 47.8583L91.656 45.8543C91.656 45.8543 93.1333 43.664 91.656 41.7641C91.656 41.7641 95.738 40.5597 93.432 38.4787C92.5748 37.7011 91.5094 38.4787 88.6904 37.2903C87.1624 36.6388 82.3814 36.5896 82.1448 38.4787C82.1448 38.4787 78.7 38.4787 78.3282 44.1734C78.1078 47.5512 79.4443 50.8491 81.976 53.1754C81.976 53.1754 86.1368 54.1279 88.1778 52.5075C90.218 50.8862 91.1482 47.4915 91.1482 47.4915Z"
        fill="#263238" />
    <path
        d="M88.4871 47.8143C88.6651 48.6813 89.2372 49.4239 90.0432 49.8347C90.9961 50.2292 91.6272 48.9258 91.4864 47.5568C91.3565 46.3411 90.7084 44.6326 89.6876 44.8628C88.6678 45.0931 88.1543 46.5878 88.4871 47.8143Z"
        fill="#B97964" />
    <path
        d="M74.6069 60.1241C74.6069 60.1241 72.9826 60.6119 72.1744 60.9043C70.4898 61.5139 69.3781 63.3663 68.7685 65.185C67.2789 69.629 64.8718 80.1504 64.8718 80.1504L73.6067 81.9639L78.2665 72.0512L74.6069 60.1241Z"
        fill="#207DA9" />
    <path opacity="0.5"
        d="M74.6069 60.1241C74.6069 60.1241 72.2693 60.554 71.0387 61.558C70.1023 62.3222 69.3562 63.4307 68.7685 65.185C67.2789 69.629 64.8718 80.1504 64.8718 80.1504L73.6067 81.9639L78.2665 72.0512L74.6069 60.1241Z"
        fill="white" />
    <path
        d="M95.7615 60.6343C93.1851 60.3604 85.2602 58.5918 74.6068 60.1241L72.114 99.0348C72.114 99.0348 71.7939 104.988 70.8501 110.096C81.6767 114.688 94.4845 113.375 101.727 109.515C101.643 109.677 101.406 105.431 101.034 99.2115C100.38 88.2517 99.3087 71.163 97.9267 61.2694C97.8887 61.0253 96.0182 60.6615 95.7615 60.6343Z"
        fill="#207DA9" />
    <g opacity="0.5">
        <path
            d="M95.7615 60.6343C93.1851 60.3604 85.2602 58.5918 74.6068 60.1241L72.114 99.0348C72.114 99.0348 71.7939 104.988 70.8501 110.096C81.6767 114.688 94.4845 113.375 101.727 109.515C101.643 109.677 101.406 105.431 101.034 99.2115C100.38 88.2517 99.3087 71.163 97.9267 61.2694C97.8887 61.0253 96.0182 60.6615 95.7615 60.6343Z"
            fill="white" />
    </g>
    <path
        d="M81.5986 59.7193C81.9065 58.8147 82.3351 58.1784 82.8844 57.8103L88.8173 58.2622L91.5987 60.0735L81.5986 59.7193Z"
        fill="#207DA9" />
    <path opacity="0.5"
        d="M81.5986 59.7193C81.9065 58.8147 82.3351 58.1784 82.8844 57.8103L88.8173 58.2622L91.5987 60.0735L81.5986 59.7193Z"
        fill="white" />
    <path opacity="0.2"
        d="M95.4856 72.745C96.4355 77.1276 97.8017 85.7188 100.379 88.713L99.7667 80.0181L95.4856 72.745Z"
        fill="black" />
    <path opacity="0.2" d="M73.0513 81.8428L73.2809 70.6052L70.8931 81.3085L73.0513 81.8428Z"
        fill="black" />
    <path
        d="M100.034 76.2113C99.7009 76.3379 106.125 90.6163 108.741 90.7438C111.357 90.8712 123.637 85.3511 123.637 85.3511L120.882 82.1025L111.6 82.6282L106.866 72.6732L100.034 76.2113Z"
        fill="#B97964" />
    <path
        d="M96.8032 61.1237C93.4711 63.2976 91.8198 68.2193 100.752 83.4154L110.399 77.5963C108.447 74.0401 106.38 71.4546 104.082 66.3039C99.4512 59.718 96.8032 61.1237 96.8032 61.1237Z"
        fill="#207DA9" />
    <path opacity="0.5"
        d="M96.8032 61.1237C93.4711 63.2976 91.8198 68.2193 100.752 83.4154L110.399 77.5963C108.447 74.0401 106.38 71.4546 104.082 66.3039C99.4512 59.718 96.8032 61.1237 96.8032 61.1237Z"
        fill="white" />
    <path
        d="M127.964 82.0062C127.964 81.1729 127.704 80.267 127.25 80.2393C126.796 80.2117 124.37 80.2367 124.37 80.2367C124.37 79.5641 125.647 78.8284 125.231 78.3692C124.688 77.77 121.544 80.3301 121.346 80.8528C120.956 81.8783 120.762 82.1345 120.762 82.1345L122.424 85.902C122.424 85.902 125.498 87.903 126.212 87.198C126.926 86.493 126.861 85.7396 126.861 85.7396C126.861 85.7396 127.575 84.7624 127.51 84.1217C127.445 83.4802 127.964 82.8395 127.964 82.0062Z"
        fill="#B97964" />
</svg>
