<svg width="328" height="216" viewBox="0 0 328 216" fill="none" xmlns="http://www.w3.org/2000/svg">
    <path
        d="M87.0429 83.0732C87.0429 83.0732 84.5956 81.0933 80.7532 86.9715C76.9107 92.8498 75.3276 96.304 75.3276 96.304C75.3276 96.304 74.3471 97.518 73.5315 96.5771C72.7158 95.6362 71.7279 93.1016 70.1474 93.3803C68.5078 93.6693 67.8011 95.3722 67.8374 97.9832C67.8737 100.594 67.7407 106.318 67.7268 106.835C67.7132 107.343 67.3436 108.057 66.6841 107.504C66.0246 106.951 62.4088 102.048 60.1565 103.882C57.9042 105.716 59.2154 112.974 59.3435 113.77C59.4716 114.566 59.2836 114.882 58.8909 115.036C58.4981 115.19 57.4402 113.429 56.3539 112.076C55.2676 110.724 53.7679 109.343 52.5583 110.509C51.3486 111.675 50.4556 116.931 54.6623 126.04L56.8914 130.135L61.6137 130.353C71.7485 130.21 76.1752 127.163 76.7244 125.584C77.2733 124.005 75.3687 123.257 73.6662 122.866C71.9636 122.475 69.8994 122.285 69.8727 121.868C69.8456 121.452 70.0542 121.149 70.8371 120.922C71.6203 120.696 78.8219 118.76 79.5361 115.965C80.2502 113.169 74.2176 112.039 73.4291 111.687C72.6411 111.335 73.1357 110.7 73.5944 110.47C74.062 110.236 79.2417 107.667 81.6466 106.582C84.0511 105.497 85.3071 104.138 84.8693 102.55C84.4478 101.02 81.7057 101.222 80.496 100.897C79.2863 100.571 79.9773 99.1768 79.9773 99.1768C79.9773 99.1768 82.4601 96.2855 86.194 90.339C89.928 84.3929 86.9904 83.0356 86.9904 83.0356"
        fill="#EBEBEB" />
    <path
        d="M56.0557 130.892C58.8152 126.536 63.8516 118.874 68.1409 112.275C72.429 105.677 76.3055 99.7004 79.0874 95.3584C80.4737 93.1897 81.5964 91.4328 82.3761 90.2128C82.7623 89.6098 83.0636 89.1393 83.2714 88.8145C83.3728 88.6594 83.4511 88.5388 83.5075 88.4524C83.5613 88.3712 83.5924 88.3319 83.5924 88.3319C83.5924 88.3319 83.5701 88.3768 83.5202 88.4602C83.4668 88.5483 83.3925 88.671 83.2967 88.8296C83.0942 89.1579 82.8008 89.6331 82.4247 90.2426C81.6659 91.4687 80.5555 93.2355 79.1749 95.4128C76.4153 99.7691 72.5523 105.755 68.2643 112.353C63.9749 118.952 58.925 126.605 56.1431 130.947"
        fill="#E0E0E0" />
    <path
        d="M71.3846 96.9806C71.3947 96.9789 71.4244 97.0947 71.4703 97.3063C71.5171 97.5176 71.5753 97.8247 71.644 98.2053C71.7795 98.9661 71.9392 100.022 72.0944 101.19C72.2431 102.343 72.3778 103.385 72.4806 104.182C72.5291 104.541 72.5702 104.843 72.6035 105.087C72.6332 105.301 72.6455 105.42 72.6354 105.422C72.6253 105.424 72.5947 105.308 72.5475 105.097C72.5016 104.885 72.443 104.578 72.3787 104.197C72.251 103.434 72.1049 102.377 71.9501 101.209C71.7931 100.059 71.651 99.0175 71.5425 98.2213C71.4918 97.8623 71.4493 97.5595 71.4152 97.3158C71.3855 97.102 71.3746 96.9828 71.3846 96.9806Z"
        fill="#E0E0E0" />
    <path
        d="M73.056 105.547C73.049 105.508 75.2375 105.086 77.9441 104.606C80.6517 104.125 82.8514 103.767 82.8584 103.807C82.8654 103.846 80.6775 104.267 77.9699 104.748C75.2637 105.228 73.0635 105.586 73.056 105.547Z"
        fill="#E0E0E0" />
    <path
        d="M66.0076 115.387C66.0089 115.377 66.1327 115.384 66.3548 115.406C66.6067 115.433 66.9207 115.465 67.2942 115.504C68.0871 115.586 69.1826 115.694 70.3962 115.77C71.6098 115.849 72.7106 115.882 73.5074 115.9C73.8826 115.909 74.1984 115.916 74.4516 115.922C74.6747 115.929 74.798 115.937 74.7984 115.947C74.7984 115.957 74.6755 115.967 74.452 115.978C74.229 115.989 73.9058 115.999 73.5065 116.002C72.708 116.01 71.6037 115.993 70.3866 115.914C69.1699 115.838 68.0727 115.713 67.2815 115.605C66.8862 115.55 66.5665 115.501 66.3469 115.462C66.127 115.423 66.0063 115.397 66.0076 115.387Z"
        fill="#E0E0E0" />
    <path
        d="M62.7692 107.968C62.7784 107.963 62.8335 108.063 62.9257 108.245C63.0281 108.457 63.154 108.717 63.3027 109.023C63.6154 109.683 64.0379 110.598 64.4967 111.612C64.9554 112.627 65.363 113.55 65.6516 114.22C65.7833 114.534 65.8952 114.8 65.9862 115.017C66.0623 115.206 66.0999 115.313 66.0907 115.317C66.0815 115.321 66.0264 115.222 65.9342 115.04C65.8318 114.828 65.7054 114.568 65.5572 114.261C65.2445 113.602 64.822 112.686 64.3633 111.672C63.9045 110.657 63.4969 109.735 63.2087 109.065C63.0766 108.751 62.9651 108.485 62.8741 108.268C62.7976 108.078 62.76 107.972 62.7692 107.968Z"
        fill="#E0E0E0" />
    <path
        d="M55.4289 115.873C55.4381 115.869 55.5076 115.996 55.6257 116.23C55.7525 116.489 55.9161 116.824 56.1129 117.225C56.5183 118.069 57.0693 119.238 57.6694 120.532C58.2698 121.828 58.806 123.003 59.1873 123.857C59.3666 124.267 59.5162 124.608 59.6321 124.872C59.734 125.113 59.786 125.248 59.7769 125.252C59.7677 125.256 59.6981 125.129 59.5801 124.895C59.4532 124.636 59.2897 124.301 59.0929 123.9C58.6875 123.057 58.1364 121.888 57.536 120.592C56.9359 119.298 56.3998 118.122 56.0184 117.268C55.8391 116.859 55.6895 116.518 55.5737 116.253C55.4718 116.013 55.4197 115.878 55.4289 115.873Z"
        fill="#E0E0E0" />
    <path
        d="M59.7371 124.999C59.7379 124.989 59.8949 124.994 60.1775 125.012C60.4858 125.033 60.8881 125.061 61.3727 125.094C62.3821 125.162 63.7763 125.251 65.3187 125.307C66.8612 125.364 68.2585 125.38 69.2701 125.385C69.7559 125.387 70.1592 125.389 70.4684 125.391C70.7513 125.393 70.9079 125.399 70.9083 125.409C70.9083 125.419 70.7522 125.432 70.4692 125.447C70.1863 125.461 69.7769 125.477 69.2705 125.486C68.2581 125.508 66.8577 125.509 65.3126 125.451C63.768 125.395 62.372 125.29 61.3639 125.196C60.8601 125.147 60.4525 125.104 60.1713 125.068C59.891 125.033 59.7362 125.009 59.7371 124.999Z"
        fill="#E0E0E0" />
    <path
        d="M48.5063 99.5493C48.5063 99.5493 48.5579 100.292 48.3839 101.679C48.1963 103.053 47.748 105.108 46.4185 107.395L46.3726 107.317H46.3765L46.4675 107.317L46.4229 107.395C43.5723 112.389 39.2939 119.884 34.1732 128.854L34.0962 128.989L34.0131 128.858C30.1152 122.716 25.7108 115.775 21.0641 108.453C20.8459 108.109 20.6285 107.766 20.4274 107.449L20.3285 107.293L20.5144 107.294L20.426 107.446C19.4333 105.766 18.7804 103.923 18.4747 102.056C18.3286 101.122 18.2468 100.182 18.2805 99.2521C18.3063 98.7873 18.3317 98.3246 18.357 97.8636C18.427 97.4074 18.4965 96.953 18.5656 96.5007C19.2763 92.8987 21.2578 89.7386 23.8517 87.5721C25.158 86.4951 26.6147 85.6743 28.1117 85.0989L28.675 84.8915L28.9549 84.7883L29.2427 84.7127C29.6262 84.6138 30.0067 84.5161 30.3841 84.4189C31.1547 84.3044 31.9095 84.1485 32.6666 84.1459C33.4201 84.0776 34.1601 84.1476 34.8865 84.1852C35.2486 84.2137 35.6024 84.2911 35.9553 84.3407C36.1316 84.3688 36.3069 84.3969 36.481 84.4245C36.6537 84.4604 36.8221 84.5122 36.9914 84.555C37.329 84.6453 37.6631 84.7347 37.9937 84.8233C38.3138 84.9438 38.6305 85.063 38.944 85.1814C39.0997 85.2423 39.2581 85.295 39.4094 85.3615C39.5576 85.435 39.705 85.508 39.8515 85.5806C40.1441 85.7266 40.4327 85.8709 40.7187 86.0139C42.9369 87.2887 44.6018 88.9528 45.749 90.6004C46.9048 92.2537 47.5455 93.8836 47.9404 95.2319C48.1071 95.9166 48.2754 96.5205 48.3262 97.0618C48.4023 97.5984 48.4766 98.0511 48.4727 98.4226C48.4853 98.7881 48.4954 99.068 48.5024 99.2637C48.509 99.4525 48.5063 99.5493 48.5063 99.5493C48.5063 99.5493 48.495 99.4525 48.4827 99.2633C48.4714 99.0681 48.4547 98.789 48.4333 98.4248C48.4311 98.0546 48.3498 97.604 48.268 97.0705C48.2111 96.5322 48.0371 95.9322 47.8656 95.2522C47.4607 93.9139 46.813 92.2986 45.6567 90.6635C44.5091 89.0336 42.8503 87.3911 40.6492 86.1366C40.3658 85.9962 40.0789 85.8545 39.789 85.7106C39.6438 85.6393 39.4977 85.5676 39.3508 85.4955C39.2008 85.4302 39.0438 85.3784 38.8894 85.3188C38.5789 85.203 38.2653 85.0859 37.9478 84.9671C37.6202 84.8807 37.2892 84.7935 36.9551 84.7049C36.7876 84.663 36.6209 84.612 36.4499 84.5775C36.2772 84.5507 36.1036 84.5235 35.9295 84.4963C35.5801 84.4483 35.2302 84.3727 34.872 84.3451C34.1535 84.3105 33.4214 84.2422 32.6766 84.3122C31.9283 84.3161 31.1827 84.4729 30.4213 84.587C30.0487 84.6837 29.673 84.7814 29.2943 84.8799L29.0105 84.955L28.7341 85.0574L28.1782 85.2635C26.7005 85.8346 25.2634 86.648 23.9746 87.7138C21.4162 89.8582 19.4635 92.9803 18.7646 96.5374C18.6964 96.9841 18.6282 97.4329 18.5595 97.8835C18.535 98.3384 18.5101 98.7955 18.4852 99.2547C18.4519 100.174 18.5337 101.101 18.678 102.024C18.9802 103.867 19.6253 105.685 20.6053 107.343L20.6959 107.496L20.5166 107.496L20.6036 107.341C20.8048 107.658 21.0221 108.001 21.2404 108.345C25.8809 115.67 30.28 122.614 34.1727 128.759L34.0131 128.763C39.1632 119.808 43.4656 112.328 46.3328 107.343L46.3787 107.421H46.3748H46.2829L46.3289 107.343C47.6627 105.078 48.1259 103.038 48.3301 101.671C48.4307 100.983 48.4595 100.45 48.4827 100.092C48.4893 99.9174 48.4941 99.783 48.498 99.6862C48.5007 99.5955 48.5063 99.5493 48.5063 99.5493Z"
        fill="#E0E0E0" />
    <path
        d="M43.0112 99.3786C43.0077 99.3786 43.0016 99.3268 42.9933 99.2257C42.9854 99.1147 42.9749 98.9665 42.9614 98.7773C42.9553 98.6779 42.9483 98.5678 42.9404 98.4472C42.9273 98.3263 42.9006 98.1954 42.8787 98.0528C42.8328 97.7681 42.7891 97.4381 42.6789 97.0787C42.51 96.3499 42.165 95.4885 41.6209 94.5757C41.0725 93.6667 40.2823 92.7172 39.2056 91.9102C38.1323 91.1115 36.7779 90.4306 35.2136 90.1541C33.6597 89.8872 31.9056 89.9308 30.2332 90.5542C29.8077 90.6877 29.4075 90.8946 28.9964 91.0881C28.6068 91.3197 28.1961 91.5331 27.8331 91.823C27.4474 92.0835 27.1102 92.4092 26.7564 92.7228C26.4372 93.0706 26.1013 93.4106 25.8258 93.8054C25.2603 94.5774 24.7657 95.4353 24.4657 96.3793C24.1547 97.3176 23.9859 98.3142 23.9697 99.3294C23.9807 100.345 24.1438 101.343 24.4499 102.283C24.7451 103.229 25.2349 104.09 25.7965 104.865C26.0703 105.261 26.4039 105.603 26.7219 105.952C27.0739 106.267 27.4094 106.595 27.7938 106.857C28.1555 107.149 28.5648 107.365 28.9536 107.598C29.3638 107.794 29.7631 108.003 30.1877 108.139C31.857 108.77 33.6112 108.823 35.1663 108.563C36.732 108.294 38.0899 107.62 39.1671 106.827C40.2477 106.025 41.0432 105.08 41.596 104.173C42.1444 103.263 42.4939 102.404 42.6666 101.676C42.779 101.317 42.8241 100.988 42.8713 100.703C42.8936 100.561 42.9211 100.43 42.9347 100.309C42.943 100.189 42.9504 100.079 42.9574 99.9791C42.9719 99.7899 42.9832 99.6417 42.9916 99.5311C43.0012 99.4305 43.0077 99.3786 43.0112 99.3786C43.0147 99.3786 43.0156 99.4305 43.0134 99.532C43.0099 99.6435 43.0055 99.7925 42.9994 99.9826C42.9955 100.083 42.9911 100.193 42.9867 100.315C42.9762 100.437 42.9522 100.568 42.9325 100.712C42.891 101 42.8516 101.333 42.7449 101.696C42.5831 102.433 42.2411 103.306 41.6957 104.232C41.1456 105.155 40.3474 106.12 39.2563 106.941C38.1682 107.755 36.791 108.448 35.1983 108.729C33.6164 109.001 31.8286 108.953 30.1239 108.314C29.6901 108.177 29.282 107.965 28.8631 107.766C28.4655 107.529 28.0474 107.309 27.6779 107.013C27.2852 106.746 26.9414 106.412 26.5819 106.09C26.2566 105.735 25.9154 105.386 25.6355 104.982C25.0609 104.191 24.5597 103.312 24.2571 102.346C23.9435 101.386 23.7764 100.366 23.7655 99.329C23.7817 98.2926 23.9549 97.2735 24.2732 96.3153C24.5811 95.3511 25.0863 94.475 25.6653 93.6875C25.9474 93.2848 26.2902 92.9379 26.6174 92.5837C26.9786 92.2636 27.3236 91.9323 27.7181 91.667C28.0894 91.3719 28.5088 91.1547 28.9072 90.9201C29.3275 90.7231 29.7364 90.5136 30.1707 90.3783C31.8789 89.7481 33.6667 89.7096 35.2468 89.9891C36.8378 90.2786 38.2115 90.9784 39.2952 91.797C40.3824 92.6235 41.1757 93.5929 41.7211 94.5182C42.2621 95.4479 42.5993 96.3222 42.7576 97.0601C42.8625 97.4238 42.9006 97.7573 42.9404 98.0446C42.9592 98.1885 42.9824 98.3207 42.9924 98.4425C42.9964 98.5639 43.0003 98.6749 43.0038 98.7751C43.0086 98.9652 43.0125 99.1143 43.0156 99.2257C43.0156 99.3268 43.0147 99.3786 43.0112 99.3786Z"
        fill="#E0E0E0" />
    <path
        d="M33.2491 103.78L27.6849 99.9455L29.0398 98.0278L32.7707 100.599L37.5975 94.5411L39.4575 95.9875L33.2491 103.78Z"
        fill="#E0E0E0" />
    <path fill-rule="evenodd" clip-rule="evenodd"
        d="M188.965 32.7746C190.61 32.9785 192.2 33.3988 193.697 34.0092L197.176 31.1295L203.151 35.6219L201.269 39.7013C202.264 40.9644 203.098 42.3659 203.735 43.8787L208.254 44.2718L209.263 51.6219L205.014 53.1909C204.808 54.8165 204.382 56.3868 203.764 57.8664L206.679 61.303L202.132 67.2046L198.002 65.3452C196.723 66.328 195.305 67.151 193.773 67.7804L193.375 72.2447L185.933 73.2422L184.346 69.044C182.7 68.841 181.111 68.4198 179.613 67.8089L176.133 70.6891L170.158 66.1967L172.041 62.1169C171.047 60.8537 170.214 59.4523 169.575 57.9395L165.056 57.5459L164.046 50.1959L168.296 48.6273C168.501 47.0016 168.927 45.4309 169.546 43.9517L166.631 40.5152L171.178 34.6132L175.308 36.4729C176.587 35.4901 178.006 34.6668 179.537 34.0373L179.935 29.5735L187.376 28.5764L188.965 32.7746ZM186.733 42.9102C181.616 43.0908 177.975 47.8134 179.162 52.7351C180.04 56.3756 183.472 58.9547 187.258 58.8181C192.373 58.6337 196.008 53.9154 194.824 48.9971C193.948 45.357 190.518 42.7767 186.733 42.9102Z"
        fill="#F5F5F5" />
    <path fill-rule="evenodd" clip-rule="evenodd"
        d="M121.205 56.2741C122.273 56.4068 123.305 56.6793 124.277 57.0755L126.535 55.2062L130.414 58.1222L129.192 60.7704C129.838 61.5903 130.38 62.5001 130.793 63.482L133.727 63.7374L134.382 68.5084L131.623 69.527C131.49 70.5824 131.213 71.6015 130.812 72.5618L132.704 74.7927L129.752 78.6236L127.072 77.4166C126.242 78.0547 125.32 78.5887 124.326 78.9973L124.068 81.8952L119.238 82.5427L118.207 79.8177C117.138 79.6859 116.107 79.4125 115.135 79.0159L112.876 80.8852L108.997 77.9692L110.22 75.321C109.574 74.5011 109.033 73.5913 108.619 72.6093L105.686 72.3536L105.03 67.5826L107.789 66.5644C107.922 65.509 108.199 64.4895 108.601 63.5291L106.708 61.2983L109.66 57.4673L112.341 58.6748C113.171 58.0367 114.092 57.5023 115.086 57.0936L115.344 54.1962L120.174 53.5491L121.205 56.2741ZM119.757 62.8535C116.435 62.9706 114.072 66.036 114.842 69.2311C115.412 71.5941 117.64 73.2681 120.097 73.1796C123.418 73.0599 125.777 69.997 125.009 66.8046C124.441 64.442 122.214 62.7671 119.757 62.8535Z"
        fill="#EBEBEB" />
    <path
        d="M161.733 91.1477C161.733 91.1477 162.45 91.4069 163.479 92.2882C164.485 93.1544 165.79 94.7904 166.187 97.2035C166.374 98.3937 166.341 99.7605 165.887 101.12C165.431 102.467 164.63 103.839 163.391 104.894C162.789 105.437 162.079 105.891 161.305 106.243C160.535 106.606 159.688 106.856 158.807 106.964C157.048 107.219 155.15 106.875 153.49 105.994C151.845 105.085 150.531 103.688 149.802 102.086C149.421 101.293 149.18 100.454 149.076 99.6171C148.96 98.7825 148.966 97.947 149.106 97.1538C149.341 95.5537 150.082 94.1493 150.987 93.0451C151.904 91.9361 153.054 91.175 154.17 90.6916C156.444 89.7252 158.542 89.9334 159.821 90.3058C161.127 90.6898 161.733 91.1477 161.733 91.1477C161.708 91.2017 161.064 90.806 159.774 90.4868C158.507 90.1762 156.474 90.0345 154.309 91.0017C153.245 91.4856 152.158 92.2295 151.298 93.2974C150.449 94.3614 149.757 95.704 149.547 97.2221C149.42 97.9746 149.42 98.7665 149.534 99.5558C149.637 100.348 149.869 101.141 150.233 101.888C150.928 103.402 152.169 104.715 153.723 105.575C155.292 106.406 157.079 106.735 158.744 106.5C159.578 106.401 160.38 106.168 161.11 105.828C161.846 105.5 162.521 105.074 163.095 104.564C164.279 103.573 165.053 102.276 165.505 100.997C165.954 99.7061 166.005 98.401 165.847 97.2545C165.51 94.9308 164.296 93.3142 163.35 92.4252C162.385 91.5214 161.701 91.1979 161.733 91.1477Z"
        fill="#EBEBEB" />
    <path
        d="M170.753 84.421C170.746 84.4227 170.768 84.3264 170.818 84.1346C170.874 83.9234 170.95 83.64 171.047 83.2736C171.265 82.4865 171.58 81.3525 171.988 79.8803L172.025 79.9684C170.251 79.0202 167.918 77.7738 165.097 76.2657L165.248 76.2398C164.297 77.3103 163.24 78.5 162.109 79.7723L162.053 79.8362L161.969 79.8159C160.413 79.4426 158.703 79.2375 156.902 79.2863L156.805 79.2889L156.758 79.205C156.034 77.925 155.251 76.5396 154.436 75.0989L154.636 75.1797C152.256 75.8709 149.731 76.6044 147.08 77.3747L147.216 77.182C147.309 78.6352 147.411 80.2354 147.516 81.8761L147.523 81.9953L147.419 82.0575C146.066 82.865 144.683 83.929 143.461 85.2042L143.374 85.295L143.251 85.2604C141.832 84.8612 140.268 84.421 138.674 83.9726L138.923 83.8698C137.736 86.0142 136.456 88.3263 135.143 90.6963L135.095 90.4224C136.206 91.3913 137.426 92.4558 138.662 93.5345L138.766 93.6256L138.733 93.7596C138.352 95.2849 138.14 97.0034 138.187 98.7418L138.19 98.8818L138.066 98.95C136.762 99.6654 135.34 100.446 133.904 101.234L134.016 100.963C134.715 103.327 135.464 105.862 136.224 108.432L135.978 108.261C137.479 108.17 139.099 108.072 140.731 107.973L140.877 107.965L140.953 108.089C141.784 109.452 142.86 110.808 144.122 111.993L144.124 111.994L144.124 111.995C144.154 112.102 144.059 111.757 144.191 112.235L144.19 112.24L144.187 112.249L144.182 112.266L144.172 112.302L144.151 112.373L144.11 112.515L144.028 112.8L143.863 113.368L143.535 114.501C143.316 115.255 143.098 116.006 142.881 116.754L142.764 116.478C145.098 117.743 147.401 118.991 149.67 120.222L149.375 120.272C150.437 119.088 151.489 117.914 152.53 116.753L152.626 116.646L152.766 116.681C154.432 117.088 156.134 117.268 157.808 117.228L157.951 117.225L158.019 117.347C158.8 118.739 159.568 120.109 160.326 121.461L160.06 121.353C162.642 120.612 165.164 119.888 167.623 119.183L167.463 119.408C167.366 117.815 167.272 116.25 167.179 114.713L167.171 114.583L167.284 114.516C168.771 113.633 170.103 112.57 171.251 111.384L171.339 111.293L171.46 111.327C173.028 111.774 174.548 112.206 176.033 112.629L175.801 112.725C177.139 110.328 178.402 108.065 179.604 105.911L179.644 106.136C178.393 105.038 177.219 104.007 176.087 103.012L176.008 102.943L176.034 102.842C176.473 101.1 176.633 99.4283 176.6 97.8441L176.598 97.7482L176.682 97.7024C178.198 96.8782 179.563 96.136 180.853 95.4349L180.785 95.5982C179.944 92.7007 179.227 90.2323 178.614 88.1189L178.725 88.1958C176.826 88.2978 175.269 88.382 173.971 88.452L173.923 88.4546L173.899 88.4149C173.013 86.9474 172.179 85.9715 171.616 85.3425C171.337 85.0448 171.123 84.8172 170.967 84.65C170.814 84.4975 170.747 84.4227 170.753 84.421C170.759 84.4193 170.842 84.4893 170.994 84.6245C171.148 84.7675 171.38 84.9843 171.674 85.2915C172.259 85.9058 173.117 86.8709 174.032 88.3375L173.96 88.3004C175.257 88.214 176.813 88.1103 178.71 87.9837L178.796 87.9781L178.821 88.061C179.454 90.1692 180.192 92.6312 181.059 95.5213L181.091 95.6293L180.99 95.6846C179.705 96.3943 178.345 97.1456 176.835 97.9798L176.917 97.8385C176.96 99.4486 176.807 101.15 176.369 102.927L176.316 102.757C177.453 103.746 178.632 104.771 179.888 105.864L179.999 105.961L179.928 106.09C178.734 108.248 177.481 110.516 176.153 112.919L176.076 113.058L175.92 113.015C174.434 112.597 172.913 112.17 171.343 111.729L171.553 111.672C170.384 112.889 169.025 113.98 167.507 114.887L167.612 114.69C167.709 116.227 167.807 117.791 167.908 119.384L167.918 119.56L167.747 119.61C165.29 120.32 162.769 121.049 160.188 121.795L160.011 121.846L159.921 121.686C159.161 120.334 158.391 118.966 157.608 117.576L157.819 117.695C156.103 117.738 154.359 117.557 152.652 117.14L152.887 117.068C151.846 118.23 150.796 119.404 149.735 120.59L149.608 120.732L149.44 120.641C147.17 119.412 144.866 118.165 142.532 116.901L142.362 116.808L142.416 116.624C142.633 115.877 142.851 115.125 143.069 114.371L143.397 113.238L143.562 112.669L143.644 112.385L143.685 112.243L143.706 112.171L143.716 112.136L143.721 112.118L143.724 112.109L143.725 112.105C143.857 112.583 143.761 112.237 143.79 112.343L143.789 112.343L143.788 112.341C142.493 111.126 141.39 109.736 140.538 108.337L140.76 108.452C139.128 108.55 137.508 108.647 136.007 108.737L135.815 108.749L135.761 108.566C135.004 105.996 134.257 103.461 133.56 101.095L133.507 100.915L133.673 100.824C135.111 100.038 136.534 99.2598 137.839 98.5461L137.718 98.7543C137.673 96.9732 137.892 95.2132 138.286 93.652L138.356 93.8766C137.123 92.7958 135.905 91.7292 134.796 90.7576L134.661 90.6392L134.748 90.4833C136.066 88.1163 137.352 85.8073 138.545 83.6659L138.628 83.516L138.794 83.5631C140.386 84.0162 141.949 84.4612 143.367 84.8643L143.158 84.9204C144.411 83.6205 145.827 82.5384 147.212 81.7197L147.116 81.9012C147.018 80.2604 146.922 78.6594 146.835 77.2062L146.826 77.0554L146.972 77.0135C149.627 76.2554 152.156 75.5335 154.538 74.8531L154.672 74.8151L154.738 74.9339C155.545 76.3793 156.32 77.7691 157.036 79.053L156.893 78.9718C158.725 78.9333 160.461 79.1528 162.036 79.5433L161.896 79.5865C163.037 78.3229 164.104 77.1418 165.064 76.0787L165.13 76.0057L165.215 76.0527C168.019 77.5928 170.336 78.8659 172.099 79.8345L172.154 79.8647L172.137 79.9226C171.698 81.372 171.36 82.4891 171.126 83.2637C171.011 83.6309 170.923 83.9138 170.856 84.1255C170.794 84.3199 170.759 84.4193 170.753 84.421Z"
        fill="#EBEBEB" />
    <path d="M189.27 92.2329L182.407 65.2748L210.33 64.8191L189.27 92.2329Z" fill="#EBEBEB" />
    <path d="M201.91 70.0578L192.318 82.5432L243.433 120.858L253.024 108.373L201.91 70.0578Z"
        fill="#EBEBEB" />
    <path
        d="M239.223 161.146L242.769 169.09C242.769 169.09 235.787 175.319 236.297 176.85L252.137 170.61L247.125 158.009L239.223 161.146Z"
        fill="#207DA9" />
    <path opacity="0.5"
        d="M239.223 161.146L242.769 169.09C242.769 169.09 235.787 175.319 236.297 176.85L252.137 170.61L247.125 158.009L239.223 161.146Z"
        fill="black" />
    <path
        d="M252.137 170.61L251.582 169.36L236.603 175.81C236.603 175.81 236.02 176.391 236.297 176.85L252.137 170.61Z"
        fill="#263238" />
    <path
        d="M267.116 172.399L271.556 179.892C271.556 179.892 265.337 186.866 266.021 188.33L281.038 180.348L274.605 168.392L267.116 172.399Z"
        fill="#207DA9" />
    <path opacity="0.5"
        d="M267.116 172.399L271.556 179.892C271.556 179.892 265.337 186.866 266.021 188.33L281.038 180.348L274.605 168.392L267.116 172.399Z"
        fill="black" />
    <path
        d="M281.038 180.348L280.342 179.168L266.204 187.263C266.204 187.263 265.692 187.905 266.021 188.33L281.038 180.348Z"
        fill="#263238" />
    <path
        d="M247.739 67.2949L238.005 68.044L237.682 62.6608C237.682 62.6608 233.756 62.6042 233.168 58.816C232.58 55.0278 232.006 46.2215 232.006 46.2215C236.184 43.7159 241.408 43.6403 245.659 46.0241L246.29 46.3779L247.739 67.2949Z"
        fill="#FFBE9D" />
    <path
        d="M237.668 62.6068C237.668 62.6068 240.124 62.4647 242.476 60.5051C242.476 60.5051 241.625 63.4846 237.743 63.6751L237.668 62.6068Z"
        fill="#EB996E" />
    <path
        d="M246.377 50.3743C246.438 50.3371 248.907 49.2364 249.192 51.8427C249.477 54.4485 246.769 54.194 246.757 54.1197C246.744 54.0454 246.377 50.3743 246.377 50.3743Z"
        fill="#FFBE9D" />
    <path
        d="M247.455 53.0462C247.465 53.0366 247.504 53.0729 247.585 53.0997C247.665 53.1256 247.798 53.1356 247.93 53.0699C248.197 52.939 248.384 52.4768 248.345 52.0059C248.326 51.7679 248.251 51.5475 248.146 51.3696C248.044 51.1877 247.905 51.0676 247.762 51.0581C247.619 51.0412 247.528 51.1345 247.504 51.2114C247.476 51.2879 247.499 51.3385 247.486 51.3441C247.479 51.3514 247.424 51.3065 247.434 51.1968C247.439 51.1436 247.463 51.0788 247.519 51.0222C247.577 50.9643 247.668 50.9289 247.766 50.9285C247.972 50.9207 248.175 51.0862 248.291 51.281C248.418 51.4758 248.508 51.7234 248.53 51.9903C248.57 52.5174 248.352 53.0375 247.982 53.1874C247.802 53.2552 247.641 53.2164 247.555 53.1632C247.466 53.1088 247.446 53.0518 247.455 53.0462Z"
        fill="#EB996E" />
    <path
        d="M233.664 52.1848C233.694 52.4726 233.966 52.6842 234.271 52.6579C234.575 52.632 234.798 52.3784 234.767 52.0907C234.737 51.803 234.465 51.5908 234.161 51.6168C233.856 51.6431 233.634 51.8971 233.664 52.1848Z"
        fill="#263238" />
    <path
        d="M233.493 51.4591C233.572 51.5204 233.944 51.1589 234.535 51.0785C235.123 50.9899 235.599 51.2297 235.653 51.1494C235.681 51.1135 235.593 50.9956 235.385 50.8858C235.18 50.7765 234.844 50.6893 234.477 50.742C234.11 50.7951 233.819 50.9718 233.661 51.1334C233.499 51.2958 233.456 51.4319 233.493 51.4591Z"
        fill="#263238" />
    <path
        d="M239.406 51.5287C239.437 51.8164 239.708 52.0277 240.013 52.0022C240.317 51.9763 240.539 51.7227 240.509 51.435C240.478 51.1473 240.207 50.9356 239.902 50.9611C239.597 50.987 239.375 51.241 239.406 51.5287Z"
        fill="#263238" />
    <path
        d="M239.312 50.7619C239.39 50.8232 239.763 50.4616 240.353 50.3813C240.942 50.2927 241.418 50.5325 241.472 50.4521C241.499 50.4163 241.412 50.2983 241.203 50.189C240.998 50.0797 240.663 49.9925 240.295 50.0447C239.928 50.0979 239.638 50.2746 239.479 50.4361C239.318 50.5986 239.274 50.7346 239.312 50.7619Z"
        fill="#263238" />
    <path
        d="M237.785 55.3842C237.783 55.3505 237.407 55.3388 236.802 55.3466C236.649 55.3522 236.502 55.3423 236.462 55.2442C236.411 55.1414 236.452 54.9721 236.5 54.7889C236.59 54.4087 236.685 54.0104 236.784 53.5931C237.173 51.8928 237.433 50.503 237.363 50.4879C237.294 50.4728 236.922 51.8392 236.533 53.5396C236.44 53.9582 236.352 54.3578 236.268 54.7397C236.235 54.9168 236.164 55.1224 236.273 55.335C236.329 55.4404 236.451 55.506 236.552 55.5181C236.652 55.5337 236.738 55.5237 236.813 55.5177C237.416 55.4667 237.787 55.4175 237.785 55.3842Z"
        fill="#263238" />
    <path
        d="M239.58 55.5462C239.483 55.554 239.572 56.1873 239.087 56.7127C238.604 57.2393 237.911 57.2634 237.919 57.3524C237.915 57.3935 238.088 57.4544 238.377 57.422C238.662 57.3922 239.062 57.2453 239.358 56.9239C239.653 56.6021 239.745 56.2141 239.73 55.9515C239.717 55.6832 239.623 55.5363 239.58 55.5462Z"
        fill="#263238" />
    <path
        d="M238.834 48.4977C238.915 48.648 239.494 48.4912 240.198 48.4774C240.902 48.4497 241.489 48.5724 241.561 48.4173C241.593 48.3435 241.474 48.2078 241.226 48.086C240.98 47.9637 240.602 47.8678 240.18 47.8795C239.758 47.8925 239.386 48.0104 239.149 48.1469C238.909 48.2834 238.798 48.4255 238.834 48.4977Z"
        fill="#263238" />
    <path
        d="M233.47 49.741C233.593 49.859 233.98 49.665 234.468 49.5907C234.953 49.4995 235.384 49.5544 235.459 49.4023C235.492 49.3293 235.407 49.2058 235.209 49.1051C235.013 49.0049 234.7 48.9444 234.365 49.001C234.031 49.058 233.756 49.2187 233.606 49.3782C233.452 49.5384 233.415 49.6827 233.47 49.741Z"
        fill="#263238" />
    <path
        d="M229.794 44.0856C229.686 43.6208 229.791 43.0916 230.139 42.7616C230.487 42.4315 231.091 42.3654 231.456 42.6769C231.185 42.0682 231.606 41.2647 232.265 41.1303C232.886 41.0042 233.487 41.3973 234.116 41.4772C234.729 41.5554 235.344 41.3286 235.881 41.0236C236.417 40.7186 236.904 40.3324 237.45 40.0451C238.588 39.4451 239.969 39.309 241.205 39.6745C242.442 40.04 243.52 40.9027 244.138 42.022C244.942 41.6461 245.956 41.9347 246.574 42.5659C247.192 43.197 247.457 44.1016 247.476 44.9795C247.49 45.5726 247.399 46.1601 247.28 46.7433C247.287 46.7921 247.298 46.8392 247.305 46.8885C247.562 48.9806 247.672 51.4646 246.772 51.6033C245.205 51.8452 245.163 48.87 245.163 48.87C243.13 48.4022 243.442 45.449 242.899 45.0836C242.355 44.7177 241.204 43.8519 237.458 46.4504C236.003 47.4591 233.916 47.7239 232.742 47.6272C232.707 47.6246 232.673 47.6242 232.639 47.6211C232.631 47.6203 232.622 47.6203 232.615 47.6198C232.602 47.6185 232.592 47.6129 232.579 47.6112C232.203 47.5684 231.834 47.4781 231.482 47.3213C231.084 47.1438 230.708 46.8803 230.496 46.5031C230.284 46.1255 230.272 45.6197 230.547 45.2844C230.197 44.9548 229.902 44.5505 229.794 44.0856Z"
        fill="#263238" />
    <path d="M237.668 65.9596L238.103 81.0243L247.591 60.8456L247.354 58.9772L237.668 65.9596Z"
        fill="#EBEBEB" />
    <path
        d="M243.964 110.995C243.616 111.107 223.859 130.845 224.303 134.39C224.747 137.935 238.811 164.191 238.811 164.191L248.845 159.304L239.433 136.286L239.556 134.858L251.06 125.546L250.445 110.571L243.964 110.995Z"
        fill="#263238" />
    <path
        d="M248.224 114.884C248.453 115.228 251.875 146.236 252.792 147.841C253.709 149.446 267.451 175.917 267.451 175.917L277.654 171.856L265.198 142.763L266.618 115.227L265.849 107.451L250.445 110.571L248.224 114.884Z"
        fill="#263238" />
    <path
        d="M252.613 147.295C252.605 147.296 252.583 147.189 252.546 146.985C252.509 146.76 252.46 146.462 252.398 146.09C252.275 145.287 252.103 144.166 251.892 142.791C251.483 139.982 250.924 136.141 250.306 131.897C249.713 127.649 249.175 123.804 248.783 120.993C248.601 119.614 248.452 118.49 248.346 117.686C248.302 117.311 248.266 117.011 248.239 116.784C248.216 116.578 248.209 116.469 248.216 116.468C248.223 116.467 248.246 116.574 248.282 116.778C248.32 117.003 248.369 117.301 248.431 117.673C248.554 118.476 248.726 119.596 248.937 120.972C249.346 123.78 249.905 127.622 250.523 131.868C251.116 136.115 251.653 139.96 252.046 142.77C252.228 144.15 252.377 145.274 252.483 146.078C252.528 146.453 252.563 146.753 252.59 146.979C252.612 147.186 252.62 147.294 252.613 147.295Z"
        fill="#455A64" />
    <path
        d="M264.939 141.873C264.997 141.89 264.732 142.99 264.346 144.33C263.96 145.671 263.6 146.745 263.542 146.728C263.484 146.712 263.749 145.612 264.135 144.271C264.521 142.931 264.881 141.857 264.939 141.873Z"
        fill="#455A64" />
    <path
        d="M266.483 148.896C266.463 148.911 266.221 148.638 265.926 148.131C265.63 147.627 265.3 146.877 265.11 146.002C264.923 145.126 264.914 144.308 264.976 143.729C265.036 143.147 265.144 142.801 265.168 142.806C265.241 142.811 264.943 144.241 265.325 145.956C265.684 147.676 266.547 148.862 266.483 148.896Z"
        fill="#455A64" />
    <path
        d="M236.142 132.946C236.162 132.895 236.987 133.234 237.789 133.961C238.596 134.683 239.013 135.464 238.964 135.488C238.909 135.524 238.422 134.819 237.641 134.121C236.866 133.418 236.111 133.004 236.142 132.946Z"
        fill="#455A64" />
    <path
        d="M237.691 132.03C237.73 131.989 238.234 132.429 238.663 133.12C239.097 133.809 239.269 134.451 239.215 134.467C239.155 134.489 238.896 133.9 238.476 133.234C238.061 132.565 237.644 132.073 237.691 132.03Z"
        fill="#455A64" />
    <path
        d="M239.055 86.7949L241.58 99.1726L243.636 116.445C243.636 116.445 252.11 115.276 255.721 114.147C259.91 112.837 269.024 111.721 269.024 111.721L267.488 113.223C270.749 112.321 272.825 109.247 272.825 109.247C267.204 104.097 262.41 93.5043 262.41 93.5043L258.136 72.5424C258.136 72.5424 257.487 69.5849 257.095 68.2703C256.703 66.9553 250.214 62.7135 249.314 62.1774L248.749 61.9135L248.569 60.2334L247.901 59.8381L240.877 66.141C239.512 67.3683 238.641 69.0402 238.432 70.8515C238.213 72.7614 238.016 75.5012 238.126 78.7368C238.21 81.1923 239.055 86.7949 239.055 86.7949Z"
        fill="#207DA9" />
    <path
        d="M243.876 65.3534C243.876 65.3534 240.165 67.3186 239.522 68.9861C238.879 70.6536 240.792 88.938 240.792 88.938L227.468 89.1847L227.426 97.0277C227.426 97.0277 248.59 98.6796 249.414 97.5495C250.528 96.0215 251.822 81.7344 251.822 81.7344L252.302 71.455C252.302 71.455 251.075 63.6155 243.876 65.3534Z"
        fill="#207DA9" />
    <g opacity="0.3">
        <path
            d="M241.58 99.1721C243.374 99.7449 245.037 99.8365 246.914 99.6641C248.79 99.4918 250.7 98.4774 251.409 96.7525C251.953 95.4314 251.726 93.9432 251.808 92.5197C251.88 91.2834 252.19 90.0738 252.379 88.8495C252.568 87.6252 251.925 85.3745 251.517 84.2037C251.517 84.2037 251.041 92.6908 249.697 96.2544C249.514 96.7399 249.282 97.2307 248.873 97.5556C248.398 97.9336 247.738 97.9668 247.131 98.0295C245.431 98.2049 241.33 97.9137 241.33 97.9137"
            fill="black" />
    </g>
    <path
        d="M252.28 72.5652C252.284 72.5656 252.284 72.6287 252.28 72.7518C252.275 72.8844 252.268 73.0659 252.259 73.2983C252.235 73.789 252.201 74.4945 252.157 75.3978C252.108 76.3128 252.049 77.4278 251.981 78.7195C251.9 80.0137 251.857 81.4907 251.696 83.1159C251.553 84.742 251.38 86.5218 251.174 88.4304C250.959 90.3381 250.731 92.3771 250.363 94.5095C250.258 95.0426 250.175 95.5795 249.997 96.1217C249.814 96.6565 249.496 97.1693 249.036 97.5439C248.584 97.9098 247.983 98.1703 247.378 98.1284C246.791 98.1417 246.202 98.1266 245.607 98.1197C243.228 98.0618 240.77 97.9413 238.253 97.8065C234.471 97.6 230.825 97.3667 227.419 97.1309L227.321 97.124L227.321 97.0268C227.339 94.2412 227.355 91.6168 227.369 89.1963L227.37 89.1056L227.461 89.1039C232.781 88.9907 237.211 88.8969 240.322 88.8308C241.864 88.8045 243.079 88.7838 243.92 88.7691C244.326 88.7652 244.642 88.7622 244.867 88.76C245.081 88.7596 245.192 88.7665 245.192 88.7665C245.192 88.7665 245.082 88.779 244.867 88.7889C244.642 88.7976 244.327 88.8101 243.92 88.8257C243.08 88.852 241.865 88.89 240.324 88.9384C237.213 89.0231 232.784 89.144 227.464 89.2892L227.556 89.1968C227.548 91.6172 227.539 94.2416 227.53 97.0272L227.433 96.9235C230.838 97.1533 234.483 97.3832 238.264 97.5892C240.78 97.724 243.237 97.8458 245.611 97.9067C246.204 97.9145 246.793 97.9301 247.371 97.918C247.941 97.9594 248.477 97.721 248.903 97.3832C249.327 97.038 249.626 96.5624 249.802 96.0548C249.971 95.5454 250.06 94.9985 250.163 94.4736C250.535 92.3529 250.77 90.3143 250.993 88.4096C251.207 86.5032 251.388 84.7251 251.541 83.1008C251.712 81.4778 251.766 80.0021 251.858 78.7095C251.941 77.4187 252.012 76.3054 252.071 75.3913C252.132 74.4893 252.181 73.7847 252.214 73.2944C252.232 73.0624 252.246 72.8818 252.257 72.7492C252.269 72.6278 252.276 72.5648 252.28 72.5652Z"
        fill="#263238" />
    <path
        d="M230.041 96.9123C229.98 96.9119 229.941 95.2089 229.952 93.109C229.963 91.0082 230.021 89.3061 230.082 89.3065C230.142 89.307 230.182 91.0095 230.171 93.1103C230.16 95.2098 230.102 96.9123 230.041 96.9123Z"
        fill="#263238" />
    <path
        d="M228.628 90.4979C228.603 90.4837 228.736 90.3372 228.989 90.4202C229.105 90.4569 229.247 90.5852 229.259 90.7684C229.274 90.9416 229.188 91.1442 228.989 91.238C228.787 91.3239 228.577 91.2583 228.452 91.1408C228.319 91.0189 228.295 90.8422 228.323 90.7265C228.382 90.4781 228.557 90.4254 228.563 90.4504C228.585 90.4746 228.48 90.5666 228.477 90.745C228.476 90.8319 228.505 90.9291 228.588 90.9917C228.667 91.0565 228.799 91.0859 228.898 91.041C228.996 90.9978 229.06 90.8781 229.058 90.7796C229.059 90.6798 228.999 90.6029 228.924 90.5593C228.771 90.469 228.642 90.526 228.628 90.4979Z"
        fill="#263238" />
    <path
        d="M258.195 74.3386C258.195 74.3386 265.127 83.2923 265.972 85.7322C266.816 88.1721 266.164 91.6752 264.752 93.3505C263.34 95.0258 262.202 94.345 262.202 94.345L258.195 74.3386Z"
        fill="#207DA9" />
    <path
        d="M261.953 93.6257C261.963 93.6849 261.186 93.8659 260.216 94.03C259.246 94.1946 258.452 94.2797 258.442 94.221C258.432 94.1618 259.209 93.9808 260.179 93.8166C261.149 93.652 261.943 93.5665 261.953 93.6257Z"
        fill="#263238" />
    <path
        d="M263.286 100.227C263.3 100.223 263.367 100.392 263.474 100.7C263.579 101.008 263.738 101.452 263.944 101.997C264.353 103.087 264.983 104.57 265.806 106.146C266.632 107.722 267.487 109.09 268.135 110.061C268.459 110.547 268.726 110.937 268.913 111.206C269.098 111.475 269.195 111.629 269.183 111.638C269.171 111.647 269.051 111.511 268.844 111.256C268.635 111.002 268.348 110.624 268.007 110.147C267.323 109.195 266.442 107.83 265.611 106.245C264.783 104.659 264.171 103.156 263.798 102.048C263.61 101.494 263.472 101.041 263.392 100.723C263.31 100.408 263.272 100.231 263.286 100.227Z"
        fill="#263238" />
    <g opacity="0.3">
        <path
            d="M263.757 101.288C264.856 103.222 265.985 105.194 267.659 106.672C268.249 107.194 268.911 107.657 269.361 108.301C269.812 108.945 270.007 109.846 269.578 110.505C269.428 110.737 269.159 110.937 268.887 110.874C268.695 110.829 268.556 110.666 268.435 110.511C266.348 107.858 264.777 104.811 263.832 101.584"
            fill="black" />
    </g>
    <g opacity="0.3">
        <path
            d="M262.842 94.3113C263.791 93.6378 264.123 92.3561 263.982 91.21C263.841 90.0639 263.311 89.0068 262.831 87.9544C261.342 84.6898 260.336 81.7375 259.455 78.1727L258.777 75.6891L262.206 93.4097L262.842 94.3113Z"
            fill="black" />
    </g>
    <path
        d="M245.681 64.5578C245.642 64.5081 246.265 63.9849 246.973 63.2825C247.684 62.5827 248.213 61.9679 248.263 62.0059C248.31 62.0396 247.851 62.7235 247.128 63.4354C246.407 64.1504 245.715 64.604 245.681 64.5578Z"
        fill="#263238" />
    <path
        d="M244.98 66.0749C244.991 66.1112 244.58 66.2334 243.967 66.5332C243.354 66.8305 242.55 67.3381 241.816 68.0686C241.085 68.8025 240.581 69.6022 240.287 70.2113C239.991 70.8208 239.872 71.2282 239.835 71.2174C239.82 71.2135 239.838 71.109 239.883 70.9215C239.924 70.7331 240.012 70.4675 240.145 70.1482C240.408 69.5102 240.907 68.6712 241.659 67.9161C242.415 67.1635 243.258 66.6611 243.901 66.3937C244.222 66.2585 244.49 66.1686 244.681 66.1254C244.87 66.0792 244.976 66.0606 244.98 66.0749Z"
        fill="#263238" />
    <path
        d="M263.598 96.092C263.591 96.0951 263.554 96.0359 263.489 95.9201C263.415 95.7823 263.323 95.613 263.211 95.4065C262.963 94.9274 262.627 94.2776 262.214 93.4784L262.21 93.4711L262.208 93.4612C261.774 91.499 261.161 88.637 260.494 85.4545C259.878 82.4547 259.322 79.7408 258.911 77.7385C258.723 76.7721 258.569 75.9794 258.455 75.3954C258.41 75.1375 258.373 74.9262 258.342 74.756C258.319 74.6096 258.31 74.5318 258.318 74.5301C258.325 74.5283 258.348 74.6035 258.386 74.7469C258.426 74.915 258.477 75.1236 258.539 75.3781C258.669 75.9587 258.846 76.7467 259.062 77.7074C259.49 79.7063 260.069 82.4158 260.708 85.4108C261.375 88.5938 261.961 91.461 262.352 93.4318L262.346 93.4145C262.734 94.2258 263.05 94.8855 263.283 95.3719C263.381 95.5853 263.461 95.7603 263.526 95.9028C263.58 96.0238 263.604 96.089 263.598 96.092Z"
        fill="#263238" />
    <path
        d="M240.562 88.9307C240.547 88.932 240.511 88.7009 240.46 88.2818C240.41 87.8239 240.344 87.226 240.265 86.505C240.11 85.0038 239.91 82.9285 239.702 80.6354C239.495 78.3415 239.32 76.264 239.204 74.7594C239.153 74.0362 239.111 73.4362 239.078 72.9769C239.053 72.5557 239.047 72.3225 239.062 72.3212C239.077 72.3199 239.112 72.5514 239.164 72.9705C239.214 73.4284 239.28 74.0267 239.359 74.7473C239.515 76.2485 239.714 78.3234 239.922 80.6169C240.128 82.9095 240.304 84.9865 240.42 86.4908C240.471 87.2139 240.513 87.814 240.546 88.2736C240.571 88.6953 240.577 88.929 240.562 88.9307Z"
        fill="#263238" />
    <path
        d="M227.634 90.1023C227.634 90.1023 224.76 87.9488 224.059 87.8192C223.522 87.7198 220.315 87.7725 218.84 87.8028C218.273 87.8144 217.774 88.2546 217.781 88.8149C217.782 88.8512 217.785 88.8858 217.792 88.9178C217.907 89.5087 218.493 89.6375 218.493 89.6375C218.493 89.6375 217.729 89.8539 217.716 90.6764C217.704 91.499 218.712 91.6722 218.712 91.6722C218.712 91.6722 218.652 91.7163 218.568 91.7988C218.017 92.3418 218.297 93.2753 219.056 93.446L219.51 93.5479C219.51 93.5479 218.895 93.8007 218.904 94.3653C218.921 95.4483 221.386 95.6557 221.386 95.6557C221.386 95.6557 227.478 96.6082 227.61 96.565C227.741 96.5214 227.634 90.1023 227.634 90.1023Z"
        fill="#FFBE9D" />
    <path
        d="M219.407 86.5219C219.433 86.8787 219.518 87.6382 220.133 87.9825L223.528 87.8512C223.528 87.8512 221 86.9893 220.64 86.5634C220.514 86.4139 220.341 86.229 220.156 86.0951C219.834 85.8622 219.377 86.1288 219.407 86.5219Z"
        fill="#FFBE9D" />
    <path
        d="M221.931 87.8183C221.932 87.8766 221.238 87.9423 220.381 87.9267C219.527 87.9111 218.835 87.8796 218.833 87.8183C218.832 87.76 219.526 87.6943 220.384 87.7098C221.237 87.7254 221.93 87.7569 221.931 87.8183Z"
        fill="#EB996E" />
    <path
        d="M221.168 89.6907C221.174 89.7481 220.576 89.8527 219.83 89.8254C219.084 89.8004 218.494 89.6539 218.504 89.5969C218.514 89.536 219.107 89.5844 219.837 89.6086C220.567 89.6358 221.163 89.6289 221.168 89.6907Z"
        fill="#EB996E" />
    <path
        d="M222.896 89.4517C222.946 89.4824 222.881 89.6651 222.689 89.7874C222.498 89.9105 222.303 89.8945 222.295 89.8362C222.284 89.7761 222.421 89.7027 222.57 89.6055C222.721 89.5104 222.844 89.4171 222.896 89.4517Z"
        fill="#EB996E" />
    <path
        d="M221.542 91.8152C221.538 91.8748 220.883 91.902 220.079 91.8761C219.276 91.8497 218.624 91.7802 218.623 91.7201C218.623 91.6601 219.278 91.6329 220.086 91.6592C220.895 91.6856 221.546 91.7556 221.542 91.8152Z"
        fill="#EB996E" />
    <path
        d="M223.482 90.9188C223.509 90.911 223.562 90.9784 223.578 91.1106C223.595 91.2394 223.563 91.4351 223.432 91.6005C223.3 91.766 223.115 91.8424 222.984 91.8567C222.851 91.8722 222.772 91.8377 222.773 91.8096C222.771 91.7504 223.066 91.7133 223.26 91.4666C223.456 91.2225 223.424 90.9313 223.482 90.9188Z"
        fill="#EB996E" />
    <path
        d="M222.055 93.8957C222.047 93.9553 221.456 93.932 220.735 93.8439C220.013 93.7558 219.434 93.6361 219.442 93.5769C219.449 93.5177 220.04 93.5406 220.761 93.6287C221.483 93.7169 222.062 93.8365 222.055 93.8957Z"
        fill="#EB996E" />
    <path
        d="M223.949 92.8382C223.978 92.8343 224.019 92.9077 224.015 93.0377C224.013 93.1665 223.954 93.3419 223.833 93.4931C223.585 93.7903 223.306 93.8979 223.275 93.8577C223.231 93.8063 223.455 93.6093 223.66 93.3604C223.869 93.1103 223.892 92.8481 223.949 92.8382Z"
        fill="#EB996E" />
    <path
        d="M266.335 113.404C267.535 113.299 268.665 112.595 269.279 111.572C269.349 111.456 269.409 111.298 269.318 111.197C269.257 111.13 269.154 111.122 269.061 111.121C268.113 111.113 267.163 111.273 266.272 111.594C266.17 111.63 266.059 111.679 266.021 111.779C265.993 111.851 266.013 111.931 266.033 112.006C266.152 112.46 266.272 112.915 266.391 113.369"
        fill="#207DA9" />
    <g opacity="0.4">
        <path
            d="M266.335 113.404C267.535 113.299 268.665 112.595 269.279 111.572C269.349 111.456 269.409 111.298 269.318 111.197C269.257 111.13 269.154 111.122 269.061 111.121C268.113 111.113 267.163 111.273 266.272 111.594C266.17 111.63 266.059 111.679 266.021 111.779C265.993 111.851 266.013 111.931 266.033 112.006C266.152 112.46 266.272 112.915 266.391 113.369"
            fill="black" />
    </g>
    <path
        d="M237.668 65.9596C237.668 65.9596 236.271 70.5945 236.656 70.331C237.041 70.0675 237.877 69.3357 237.877 69.3357L237.668 65.9596Z"
        fill="#EBEBEB" />
    <path
        d="M237.749 68.0963L236.984 69.9008C236.911 70.0891 236.862 70.2835 236.837 70.4835C236.773 70.989 236.7 71.9156 237.005 71.98C237.426 72.069 237.822 71.6461 237.822 71.6461L237.749 68.0963Z"
        fill="#263238" />
    <path
        d="M261.453 68.3809C261.453 68.3809 253.976 65.4995 249.836 68.0439C245.696 70.5884 244.942 74.6488 242.476 74.6488C237.668 74.6488 237.822 71.2978 237.822 71.2978L236.8 71.6036C236.78 72.2892 235.685 77.2127 240.752 77.8231C245.819 78.4335 247.949 71.6101 252.507 71.6036C257.065 71.5971 260.526 74.0388 260.526 74.0388L263.8 71.9928L261.453 68.3809Z"
        fill="#263238" />
    <path
        d="M242.268 77.741C242.268 77.741 244.132 76.7971 245.152 74.4721C246.313 71.8252 248.807 68.803 250.889 68.0435C252.971 67.284 257.787 66.7544 261.115 68.8958L263.245 71.7393L260.479 73.5118C260.479 73.5118 258.292 72.3251 255.604 71.5837C252.166 70.6355 250.076 71.7064 248.077 73.5753C247.953 73.6915 247.839 73.8064 247.739 73.9178C247.234 74.4838 245.84 75.794 244.574 76.6857C243.597 77.3751 242.713 77.7488 242.268 77.741Z"
        fill="#455A64" />
    <path
        d="M87.4549 37.53C83.0204 38.2047 79.7692 34.5254 78.7327 31.2491C77.7759 28.2251 77.3206 25.0789 75.9762 22.2022C74.0974 18.182 69.1201 16.3244 64.6532 16.6959C60.1863 17.0674 55.6853 19.2788 51.7335 21.3684L52.8238 45.5673C52.8238 45.5673 61.4301 36.5148 65.5655 36.3502C72.4653 36.075 72.0896 47.2785 78.7896 48.9322C78.7896 48.9322 88.1831 51.4477 94.5331 43.3451C98.5632 38.203 98.9205 31.9559 98.9205 31.9559C98.9205 31.9559 95.8333 36.2551 87.4549 37.53Z"
        fill="#207DA9" />
    <path
        d="M51.5524 17.3534C51.6128 17.3508 52.8198 43.0479 54.2477 74.7424C55.676 106.448 56.7847 132.144 56.7239 132.147C56.6635 132.149 55.4569 106.458 54.0286 74.7519C52.6007 43.0578 51.492 17.3564 51.5524 17.3534Z"
        fill="#263238" />
    <g opacity="0.2">
        <path
            d="M75.2388 29.5751C75.851 31.8396 77.223 34.8632 78.5004 36.8387C79.7774 38.8143 81.7148 40.4775 84.0379 40.9561C84.4582 41.0425 84.8933 41.0922 85.2808 41.2749C85.6683 41.4577 86.009 41.8136 86.0208 42.2374C86.0387 42.8716 85.3757 43.2859 84.7998 43.5663C83.9806 43.965 83.1484 44.368 82.251 44.5339C81.3536 44.6998 80.6499 44.7923 80.0333 44.1266C79.5141 43.5658 78.8236 42.8915 78.4296 42.2284C76.4051 38.8212 75.4036 33.9473 75.2392 30.0917"
            fill="black" />
    </g>
    <path
        d="M81.2356 45.1151C81.2312 45.1211 81.163 45.0827 81.0361 45.0027C80.9097 44.9224 80.7296 44.7949 80.5065 44.6183C80.0657 44.2614 79.4635 43.6886 78.8709 42.863C78.2735 42.0418 77.7019 40.9674 77.2331 39.7164C76.7608 38.4657 76.3742 37.0518 76.0204 35.5584C75.3149 32.5663 75.0036 29.7937 74.8903 27.788C74.8339 26.7844 74.8243 25.9706 74.8251 25.409C74.8308 25.148 74.8356 24.9346 74.8396 24.7622C74.8457 24.6145 74.8522 24.5367 74.8601 24.5367C74.8675 24.5367 74.8759 24.6145 74.8842 24.7618C74.8912 24.9338 74.8999 25.1472 74.9108 25.4072C74.9362 25.9675 74.9695 26.7784 75.0455 27.7776C75.1977 29.7747 75.5323 32.5309 76.2342 35.5091C76.5863 36.9961 76.9659 38.4061 77.4229 39.6468C77.8764 40.8888 78.4257 41.9541 78.9982 42.7745C79.5663 43.5996 80.1427 44.1802 80.5621 44.5535C80.9863 44.9241 81.2465 45.0995 81.2356 45.1151Z"
        fill="#263238" />
    <path d="M24.8125 137.256L83.4029 146.73V137.256H24.8125Z" fill="#E0E0E0" />
    <path d="M93.075 158.659L151.665 168.134V158.659H93.075Z" fill="#E0E0E0" />
    <path d="M160.866 179.134L219.457 188.609V179.134H160.866Z" fill="#E0E0E0" />
    <path d="M228.569 195.426L287.159 204.901V195.426H228.569Z" fill="#E0E0E0" />
    <path d="M83.4025 130.159H24.8125V137.256H83.4025V130.159Z" fill="#207DA9" />
    <g opacity="0.3">
        <path d="M83.4029 130.159H65.1198V137.256H83.4029V130.159Z" fill="black" />
    </g>
    <path d="M151.665 151.563H93.075V158.659H151.665V151.563Z" fill="#207DA9" />
    <g opacity="0.3">
        <path d="M151.665 151.563H133.382V158.659H151.665V151.563Z" fill="black" />
    </g>
    <path d="M219.456 172.037H160.866V179.134H219.456V172.037Z" fill="#207DA9" />
    <g opacity="0.3">
        <path d="M219.457 172.037H201.174V179.134H219.457V172.037Z" fill="black" />
    </g>
    <path d="M287.248 188.33H228.658V195.426H287.248V188.33Z" fill="#207DA9" />
    <g opacity="0.3">
        <path d="M287.249 188.33H268.966V195.426H287.249V188.33Z" fill="black" />
    </g>
    <path
        d="M251.141 162.5C251.141 163.369 251.855 164.074 252.734 164.074C253.614 164.074 254.328 163.369 254.328 162.5C254.328 161.631 253.614 160.926 252.734 160.926C251.855 160.926 251.141 161.631 251.141 162.5Z"
        fill="#EBEBEB" />
</svg>
