<svg width="294" height="294" viewBox="0 0 294 294" fill="none" xmlns="http://www.w3.org/2000/svg">
    <path
        d="M20.7788 249.25V263.991H24.1833C24.1833 263.991 23.857 261.056 24.1833 259.317C24.5097 257.578 28.2052 253.097 28.0965 249.25H20.7788Z"
        fill="#EBEBEB" />
    <path
        d="M48.0132 249.25V263.991H51.4177C51.4177 263.991 51.0914 261.056 51.4177 259.317C51.7435 257.578 55.4396 253.097 55.3308 249.25H48.0132Z"
        fill="#E0E0E0" />
    <path
        d="M74.6684 249.25V263.991H71.2639C71.2639 263.991 71.5896 261.056 71.2639 259.317C70.9375 257.578 67.242 253.097 67.3507 249.25H74.6684Z"
        fill="#EBEBEB" />
    <path
        d="M98.2431 249.25V263.991H94.8386C94.8386 263.991 95.1649 261.056 94.8386 259.317C94.5122 257.578 90.8167 253.097 90.9254 249.25H98.2431Z"
        fill="#E0E0E0" />
    <path d="M100.028 176.479H18.4633V249.727H100.028V176.479Z" fill="#F5F5F5" />
    <path d="M78.0541 176.479L78.6615 249.727H100.028V176.476L78.0541 176.479Z" fill="#E0E0E0" />
    <path d="M74.5008 181.867H22.1335V200.505H74.5008V181.867Z" fill="#EBEBEB" />
    <path d="M74.5008 204.221H22.1335V222.859H74.5008V204.221Z" fill="#EBEBEB" />
    <path d="M74.5008 226.575H22.1335V245.213H74.5008V226.575Z" fill="#EBEBEB" />
    <path d="M42.2079 155.431L39.9488 176.392H68.8896L71.2898 155.431H42.2079Z" fill="#E0E0E0" />
    <path d="M43.3974 156.937L41.2001 175.279H67.3184L69.4317 156.937H43.3974Z" fill="white" />
    <path d="M47.7927 160.022L46.4409 172.193H62.9231L63.7687 160.022H47.7927Z" fill="#EBEBEB" />
    <path d="M70.256 164.458L76.2336 176.477L68.8895 176.392L70.256 164.458Z" fill="#EBEBEB" />
    <path
        d="M50.2329 192.16C50.2329 193.218 49.3756 194.076 48.3172 194.076C47.2594 194.076 46.4015 193.219 46.4015 192.16C46.4015 191.102 47.2588 190.245 48.3172 190.245C49.375 190.245 50.2329 191.102 50.2329 192.16Z"
        fill="#E0E0E0" />
    <path
        d="M50.2329 214.736C50.2329 215.794 49.3756 216.652 48.3172 216.652C47.2594 216.652 46.4015 215.794 46.4015 214.736C46.4015 213.678 47.2588 212.82 48.3172 212.82C49.375 212.82 50.2329 213.678 50.2329 214.736Z"
        fill="#E0E0E0" />
    <path
        d="M50.2329 237.311C50.2329 238.369 49.3756 239.227 48.3172 239.227C47.2594 239.227 46.4015 238.369 46.4015 237.311C46.4015 236.253 47.2588 235.395 48.3172 235.395C49.375 235.395 50.2329 236.253 50.2329 237.311Z"
        fill="#E0E0E0" />
    <path d="M74.4191 57.4076L28.1699 56.9578L29.4612 117.23L75.7044 117.399L74.4191 57.4076Z"
        fill="#E0E0E0" />
    <path d="M71.4355 60.0959L30.9506 59.0439L32.1213 113.707L72.5945 114.205L71.4355 60.0959Z"
        fill="#FAFAFA" />
    <path d="M64.5248 68.2615L37.6638 67.8146L38.4823 106.022L65.3215 105.447L64.5248 68.2615Z"
        fill="#EBEBEB" />
    <path d="M38.4823 106.022L64.9011 85.8185L37.6638 67.8146L38.4823 106.022Z" fill="#F5F5F5" />
    <path d="M273.424 25.992L232.85 25.5974L233.983 78.4721L274.551 78.6215L273.424 25.992Z"
        fill="#E0E0E0" />
    <path d="M270.806 28.3504L235.29 27.4279L236.317 75.3822L271.823 75.8197L270.806 28.3504Z"
        fill="#FAFAFA" />
    <path d="M264.744 35.514L241.179 35.1224L241.897 68.6402L265.442 68.1357L264.744 35.514Z"
        fill="#EBEBEB" />
    <path d="M241.897 68.6402L265.073 50.9161L241.179 35.1224L241.897 68.6402Z" fill="#F5F5F5" />
    <path
        d="M227.974 224.792C227.801 225.311 233.854 248.314 233.854 248.314L238.005 247.449L232.298 224.792H227.974Z"
        fill="#EBEBEB" />
    <path d="M260.142 221.507L251.841 248.314H256.683L264.639 223.409L260.142 221.507Z"
        fill="#F5F5F5" />
    <path d="M267.752 217.356L258.24 248.314H263.082L272.249 219.258L267.752 217.356Z"
        fill="#EBEBEB" />
    <path d="M230.914 246.411L235.757 263.187H260.142L264.639 246.411H230.914Z" fill="#E0E0E0" />
    <path
        d="M243.493 246.411C243.489 246.412 243.47 246.354 243.44 246.239C243.407 246.107 243.364 245.939 243.311 245.726C243.199 245.254 243.043 244.59 242.842 243.744C242.443 241.999 241.873 239.504 241.167 236.418C239.773 230.193 237.846 221.591 235.694 211.988L235.843 212.107C235.161 212.107 234.428 212.107 233.691 212.107C232.966 212.107 232.245 212.107 231.573 212.107L231.722 211.92C233.887 221.532 235.826 230.142 237.229 236.372C237.911 239.467 238.463 241.969 238.849 243.719C239.03 244.57 239.173 245.238 239.274 245.712C239.317 245.927 239.35 246.099 239.377 246.231C239.398 246.349 239.407 246.41 239.402 246.41C239.397 246.411 239.378 246.353 239.347 246.238C239.314 246.107 239.27 245.938 239.216 245.725C239.101 245.254 238.942 244.59 238.737 243.744C238.329 242 237.746 239.504 237.023 236.418C235.597 230.194 233.625 221.592 231.424 211.988L231.381 211.801H231.573C232.244 211.801 232.965 211.801 233.69 211.801C234.427 211.801 235.16 211.801 235.843 211.801H235.966L235.992 211.92C238.107 221.532 240.002 230.142 241.372 236.371C242.039 239.466 242.578 241.968 242.955 243.718C243.132 244.57 243.27 245.237 243.369 245.712C243.41 245.927 243.443 246.098 243.469 246.231C243.49 246.35 243.499 246.41 243.493 246.411Z"
        fill="#E0E0E0" />
    <path
        d="M267.322 263.888C267.322 263.973 211.495 264.041 142.645 264.041C73.7716 264.041 17.9569 263.973 17.9569 263.888C17.9569 263.804 73.7716 263.736 142.645 263.736C211.495 263.735 267.322 263.804 267.322 263.888Z"
        fill="#263238" />
    <path
        d="M251.27 103.399C251.27 103.399 251.135 103.335 250.853 103.271C250.573 103.206 250.132 103.167 249.578 103.29C249.026 103.411 248.375 103.716 247.724 104.242C247.068 104.765 246.456 105.528 245.843 106.434C244.64 108.278 243.69 110.832 242.585 113.807C241.498 116.79 240.279 120.236 239.268 124.174L239.265 124.187L239.26 124.196C239.082 124.515 238.86 124.802 238.575 125.044C238.291 125.272 237.904 125.462 237.506 125.385C237.109 125.322 236.792 125.064 236.521 124.817C236.247 124.563 235.989 124.291 235.729 124.019C235.213 123.473 234.692 122.916 234.099 122.429C233.513 121.964 232.806 121.51 232.039 121.587C231.293 121.682 230.578 122.188 230.15 122.846C229.72 123.522 229.536 124.348 229.499 125.181C229.399 126.865 229.885 128.56 230.18 130.321C230.508 132.079 230.844 133.881 231.186 135.723C231.358 136.645 231.531 137.576 231.707 138.518C231.794 138.989 231.883 139.462 231.971 139.938C232.078 140.393 232.135 140.98 231.803 141.444C231.641 141.69 231.285 141.786 231.018 141.711C230.748 141.647 230.522 141.493 230.323 141.349C229.927 141.052 229.529 140.755 229.129 140.455C228.332 139.861 227.509 139.285 226.638 138.777C225.767 138.275 224.842 137.821 223.851 137.617C223.358 137.518 222.846 137.5 222.368 137.627C221.889 137.75 221.461 138.037 221.159 138.439C220.549 139.246 220.384 140.334 220.367 141.377C220.35 142.434 220.483 143.502 220.675 144.564C221.07 146.69 221.711 148.803 222.467 150.901C222.641 151.428 222.905 151.931 222.981 152.537C223.018 152.829 222.98 153.183 222.764 153.444C222.713 153.508 222.655 153.566 222.594 153.615C222.519 153.666 222.502 153.709 222.365 153.75C222.131 153.8 221.988 153.701 221.853 153.637C221.33 153.332 220.925 152.935 220.493 152.555C220.074 152.167 219.654 151.777 219.233 151.386C218.391 150.611 217.53 149.842 216.559 149.233C216.074 148.933 215.56 148.67 215.016 148.531C214.477 148.381 213.896 148.426 213.444 148.726C212.989 149.03 212.693 149.537 212.554 150.088C212.41 150.64 212.347 151.223 212.344 151.808C212.336 152.979 212.506 154.162 212.787 155.32C213.321 157.648 214.251 159.898 215.34 162.078C216.43 164.261 217.731 166.366 219.146 168.401C219.814 169.446 220.657 170.378 221.437 171.358C222.23 172.329 223.026 173.305 223.825 174.283L223.852 174.317L223.712 174.262C224.962 174.08 226.208 173.899 227.45 173.718C228.687 173.521 229.94 173.411 231.138 173.083C233.554 172.529 235.934 171.844 238.209 170.962C240.482 170.08 242.685 169.041 244.647 167.676C245.635 167.008 246.555 166.246 247.338 165.374C247.73 164.939 248.075 164.465 248.341 163.959C248.61 163.458 248.732 162.884 248.601 162.352C248.468 161.826 248.07 161.401 247.569 161.15C247.073 160.887 246.516 160.735 245.955 160.632C244.826 160.429 243.671 160.419 242.527 160.427C241.952 160.433 241.379 160.439 240.808 160.445C240.233 160.435 239.665 160.456 239.073 160.331C238.93 160.288 238.758 160.265 238.619 160.069C238.545 159.947 238.562 159.905 238.54 159.816C238.528 159.738 238.525 159.657 238.53 159.575C238.545 159.237 238.755 158.949 238.98 158.758C239.444 158.361 239.977 158.166 240.46 157.893C242.431 156.849 244.326 155.714 246.049 154.406C246.905 153.748 247.722 153.047 248.419 152.253C249.108 151.469 249.717 150.553 249.807 149.544C249.854 149.044 249.728 148.544 249.455 148.132C249.186 147.717 248.795 147.385 248.362 147.129C247.492 146.614 246.501 146.328 245.519 146.115C244.532 145.905 243.536 145.779 242.546 145.682C242.05 145.635 241.555 145.588 241.062 145.541C240.817 145.514 240.547 145.476 240.304 145.339C240.056 145.214 239.862 144.901 239.909 144.611C239.978 144.046 240.417 143.651 240.8 143.386C241.186 143.093 241.569 142.802 241.95 142.513C242.713 141.934 243.468 141.361 244.215 140.794C245.708 139.661 247.167 138.553 248.591 137.473C249.994 136.368 251.493 135.439 252.55 134.125C253.082 133.484 253.501 132.749 253.637 131.959C253.761 131.184 253.571 130.328 253.082 129.758C252.837 129.468 252.481 129.297 252.12 129.184C251.758 129.062 251.371 129.026 250.991 128.998C250.225 128.96 249.465 129.022 248.716 129.079C248.341 129.107 247.968 129.134 247.593 129.138C247.226 129.138 246.818 129.115 246.483 128.895C246.137 128.684 245.979 128.284 245.922 127.924C245.874 127.553 245.903 127.191 245.986 126.836L245.987 126.827L245.994 126.815C247.89 123.227 249.304 119.863 250.502 116.929C251.683 113.988 252.694 111.465 253.058 109.299C253.22 108.22 253.3 107.244 253.174 106.416C253.062 105.59 252.805 104.92 252.49 104.451C252.177 103.979 251.827 103.706 251.579 103.563C251.33 103.417 251.188 103.372 251.188 103.372C251.188 103.372 251.336 103.4 251.592 103.54C251.847 103.678 252.207 103.948 252.532 104.422C252.859 104.894 253.129 105.571 253.249 106.406C253.385 107.244 253.313 108.227 253.156 109.315C252.805 111.5 251.804 114.038 250.637 116.983C249.45 119.927 248.051 123.293 246.157 126.905L246.166 126.883C246.091 127.208 246.064 127.561 246.11 127.897C246.165 128.226 246.302 128.563 246.591 128.736C246.872 128.92 247.231 128.945 247.594 128.943C247.958 128.938 248.328 128.91 248.702 128.881C249.45 128.823 250.217 128.757 251.003 128.793C251.395 128.821 251.795 128.858 252.183 128.985C252.567 129.104 252.961 129.29 253.24 129.616C253.793 130.265 253.978 131.152 253.853 131.994C253.71 132.84 253.269 133.607 252.725 134.267C251.639 135.62 250.123 136.559 248.731 137.663C247.31 138.746 245.854 139.855 244.364 140.99C243.619 141.557 242.866 142.131 242.105 142.711C241.724 143.001 241.342 143.293 240.957 143.585C240.76 143.735 240.572 143.868 240.435 144.045C240.297 144.221 240.182 144.429 240.165 144.633C240.139 144.84 240.247 145.01 240.432 145.115C240.622 145.222 240.851 145.258 241.094 145.285C241.585 145.331 242.077 145.377 242.573 145.423C243.568 145.519 244.573 145.645 245.575 145.856C246.573 146.072 247.585 146.358 248.502 146.898C248.957 147.168 249.383 147.523 249.684 147.985C249.989 148.444 250.132 149.015 250.081 149.565C249.979 150.681 249.332 151.629 248.629 152.436C247.913 153.252 247.085 153.964 246.22 154.629C244.48 155.954 242.575 157.096 240.594 158.147C240.106 158.421 239.567 158.629 239.171 158.974C238.974 159.146 238.829 159.356 238.819 159.594C238.815 159.653 238.817 159.714 238.827 159.775C238.834 159.822 238.852 159.934 238.869 159.924C238.887 159.966 239.02 160.024 239.143 160.05C239.662 160.162 240.244 160.147 240.808 160.154C241.378 160.148 241.95 160.142 242.524 160.135C243.674 160.127 244.844 160.134 246.008 160.342C246.588 160.449 247.171 160.605 247.71 160.89C248.251 161.159 248.735 161.655 248.89 162.283C249.045 162.901 248.895 163.558 248.609 164.094C248.326 164.635 247.966 165.126 247.563 165.574C246.757 166.473 245.82 167.247 244.819 167.925C242.83 169.309 240.608 170.358 238.319 171.247C236.026 172.137 233.641 172.824 231.202 173.383C229.99 173.714 228.741 173.824 227.5 174.022C226.257 174.203 225.009 174.384 223.756 174.567L223.671 174.579L223.616 174.512L223.588 174.478C222.789 173.498 221.992 172.522 221.198 171.549C220.416 170.566 219.575 169.638 218.898 168.581C217.471 166.528 216.168 164.417 215.07 162.217C213.974 160.021 213.035 157.752 212.495 155.39C212.21 154.215 212.038 153.013 212.046 151.806C212.049 151.204 212.113 150.599 212.269 150.008C212.417 149.42 212.748 148.832 213.28 148.48C213.816 148.121 214.508 148.08 215.089 148.245C215.68 148.397 216.215 148.673 216.716 148.984C217.718 149.612 218.588 150.394 219.433 151.172C219.853 151.563 220.272 151.952 220.691 152.34C221.112 152.714 221.533 153.116 221.992 153.383C222.101 153.446 222.238 153.492 222.28 153.474C222.287 153.492 222.373 153.423 222.41 153.392C222.459 153.353 222.502 153.31 222.539 153.264C222.692 153.082 222.726 152.828 222.696 152.569C222.636 152.049 222.376 151.532 222.199 151.001C221.44 148.891 220.798 146.765 220.4 144.616C220.207 143.541 220.073 142.458 220.091 141.373C220.113 140.303 220.271 139.167 220.945 138.271C221.276 137.83 221.765 137.5 222.299 137.366C222.832 137.226 223.386 137.249 223.904 137.354C224.946 137.571 225.888 138.039 226.772 138.55C227.656 139.067 228.484 139.649 229.285 140.247C229.683 140.546 230.079 140.844 230.474 141.14C230.671 141.284 230.865 141.411 231.077 141.462C231.285 141.509 231.48 141.458 231.601 141.289C231.727 141.128 231.781 140.895 231.798 140.673C231.817 140.449 231.768 140.226 231.722 139.982C231.634 139.506 231.547 139.033 231.46 138.562C231.287 137.621 231.115 136.69 230.945 135.769C230.606 133.928 230.274 132.127 229.95 130.37C229.662 128.616 229.171 126.902 229.277 125.17C229.317 124.315 229.506 123.451 229.968 122.729C230.442 122.021 231.175 121.488 232.02 121.377C232.446 121.323 232.862 121.451 233.227 121.62C233.601 121.786 233.921 122.028 234.23 122.271C234.837 122.773 235.361 123.338 235.875 123.884C236.133 124.157 236.388 124.427 236.654 124.675C236.922 124.921 237.205 125.144 237.536 125.198C237.866 125.264 238.194 125.107 238.456 124.9C238.716 124.682 238.934 124.403 239.097 124.112L239.089 124.133C240.117 120.18 241.348 116.741 242.451 113.759C243.569 110.789 244.536 108.232 245.761 106.382C246.384 105.473 247.009 104.708 247.679 104.185C248.342 103.66 249.007 103.357 249.57 103.242C250.133 103.126 250.58 103.174 250.861 103.249C251.142 103.319 251.27 103.399 251.27 103.399Z"
        fill="#263238" />
    <path
        d="M248.185 111.398C248.19 111.4 248.17 111.465 248.126 111.59C248.075 111.729 248.008 111.912 247.923 112.143C247.731 112.644 247.462 113.353 247.116 114.257C246.403 116.108 245.382 118.757 244.125 122.022C241.619 128.604 238.169 137.668 234.359 147.68C230.558 157.709 227.082 166.774 224.507 173.313C223.22 176.583 222.167 179.224 221.424 181.043C221.056 181.938 220.768 182.639 220.564 183.136C220.467 183.361 220.391 183.54 220.332 183.677C220.279 183.798 220.249 183.859 220.244 183.858C220.24 183.856 220.26 183.791 220.304 183.665C220.355 183.526 220.422 183.343 220.507 183.113C220.698 182.611 220.968 181.903 221.313 180.999C222.026 179.147 223.047 176.499 224.305 173.234C226.81 166.652 230.261 157.587 234.073 147.572C237.873 137.546 241.348 128.482 243.924 121.943C245.21 118.673 246.263 116.032 247.007 114.213C247.375 113.318 247.663 112.616 247.867 112.119C247.963 111.893 248.039 111.715 248.098 111.578C248.151 111.457 248.181 111.395 248.185 111.398Z"
        fill="#263238" />
    <path
        d="M248.502 131.689C248.522 131.728 247.953 132.05 247.031 132.562C246.023 133.123 244.791 133.808 243.43 134.566C242.022 135.348 240.74 136.046 239.794 136.519C238.849 136.994 238.241 137.24 238.224 137.204C238.205 137.165 238.776 136.851 239.692 136.328C240.697 135.76 241.924 135.066 243.282 134.298C244.69 133.515 245.982 132.835 246.931 132.371C247.881 131.906 248.484 131.652 248.502 131.689Z"
        fill="#263238" />
    <path
        d="M237.746 136.849C237.67 136.886 236.272 134.218 234.623 130.889C232.974 127.56 231.698 124.831 231.774 124.794C231.85 124.756 233.248 127.424 234.897 130.754C236.547 134.082 237.822 136.811 237.746 136.849Z"
        fill="#263238" />
    <path
        d="M232.605 152.51C232.576 152.538 232.076 152.095 231.312 151.332C230.55 150.568 229.525 149.483 228.462 148.223C227.396 146.965 226.492 145.776 225.867 144.897C225.241 144.017 224.887 143.45 224.919 143.427C224.955 143.401 225.372 143.922 226.04 144.767C226.708 145.611 227.634 146.774 228.695 148.025C229.753 149.28 230.748 150.383 231.469 151.184C232.191 151.982 232.636 152.479 232.605 152.51Z"
        fill="#263238" />
    <path
        d="M243.361 149.984C243.37 150.025 242.777 150.196 241.81 150.438C240.844 150.68 239.505 150.994 238.021 151.323C236.537 151.652 235.191 151.932 234.212 152.12C233.234 152.308 232.625 152.404 232.615 152.363C232.606 152.322 233.199 152.151 234.165 151.909C235.131 151.667 236.471 151.353 237.955 151.024C239.438 150.696 240.785 150.415 241.763 150.227C242.742 150.039 243.352 149.942 243.361 149.984Z"
        fill="#263238" />
    <path
        d="M240.578 164.387C240.587 164.428 239.823 164.629 238.58 164.92C237.337 165.211 235.615 165.593 233.71 165.995C231.804 166.398 230.076 166.746 228.821 166.983C227.567 167.22 226.786 167.346 226.778 167.305C226.769 167.264 227.533 167.063 228.776 166.772C230.019 166.48 231.741 166.099 233.647 165.696C235.552 165.293 237.28 164.945 238.535 164.708C239.789 164.471 240.57 164.345 240.578 164.387Z"
        fill="#263238" />
    <path
        d="M227.088 167.141C227.072 167.155 226.916 167.012 226.646 166.74C226.376 166.469 225.996 166.066 225.533 165.561C224.611 164.551 223.367 163.124 222.064 161.492C220.757 159.862 219.636 158.338 218.852 157.215C218.46 156.654 218.152 156.194 217.946 155.872C217.74 155.549 217.634 155.365 217.651 155.352C217.668 155.34 217.807 155.501 218.043 155.802C218.317 156.16 218.645 156.588 219.027 157.087C219.853 158.175 220.999 159.674 222.302 161.301C223.602 162.928 224.817 164.372 225.696 165.418C226.577 166.463 227.121 167.112 227.088 167.141Z"
        fill="#263238" />
    <path
        d="M221.206 206.53C210.996 198.301 209.517 184.227 210.799 171.755C211.012 169.674 210.934 167.458 212.052 165.695C213.171 163.933 215.573 162.84 217.381 163.847C218.881 164.683 219.432 166.532 220.197 168.082C221.214 170.145 222.82 171.904 224.77 173.092C226.051 173.873 227.667 174.408 229.028 173.774C230.896 172.904 231.279 170.432 231.408 168.356C231.649 164.485 231.891 160.616 232.131 156.747C232.261 154.67 232.4 152.551 233.18 150.626C233.961 148.7 235.513 146.968 237.525 146.55C239.538 146.133 241.901 147.439 242.178 149.498C242.294 150.356 242.061 151.221 242.06 152.087C242.058 152.952 242.395 153.933 243.196 154.229C244.008 154.53 244.879 153.998 245.541 153.433C247.827 151.485 249.465 148.885 251.008 146.294C252.551 143.702 254.058 141.044 256.158 138.892C258.258 136.74 261.071 135.113 264.055 135.148C267.039 135.184 270.08 137.236 270.631 140.205C271.184 143.183 269.273 146.035 267.253 148.275C264.256 151.601 260.783 154.484 256.977 156.808C256.29 157.228 255.547 157.681 255.244 158.432C254.699 159.785 255.915 161.25 257.25 161.798C258.762 162.42 260.451 162.374 262.056 162.675C263.662 162.977 265.366 163.811 265.873 165.383C266.577 167.562 264.651 169.664 262.805 171C259.11 173.677 254.96 175.707 250.595 176.974C249.03 177.428 247.39 177.808 246.085 178.796C244.78 179.785 243.909 181.599 244.553 183.111C245.197 184.626 247.074 185.225 248.693 185.038C250.312 184.851 251.804 184.081 253.367 183.611C256.293 182.73 259.962 183.179 261.621 185.769C262.71 187.472 262.661 189.735 261.921 191.625C261.182 193.515 259.836 195.094 258.423 196.538C253.484 201.588 247.336 205.504 240.561 207.345C233.79 209.185 227.617 209.385 221.206 206.53Z"
        fill="#207DA9" />
    <g opacity="0.1">
        <path
            d="M221.206 206.53C210.996 198.301 209.517 184.227 210.799 171.755C211.012 169.674 210.934 167.458 212.052 165.695C213.171 163.933 215.573 162.84 217.381 163.847C218.881 164.683 219.432 166.532 220.197 168.082C221.214 170.145 222.82 171.904 224.77 173.092C226.051 173.873 227.667 174.408 229.028 173.774C230.896 172.904 231.279 170.432 231.408 168.356C231.649 164.485 231.891 160.616 232.131 156.747C232.261 154.67 232.4 152.551 233.18 150.626C233.961 148.7 235.513 146.968 237.525 146.55C239.538 146.133 241.901 147.439 242.178 149.498C242.294 150.356 242.061 151.221 242.06 152.087C242.058 152.952 242.395 153.933 243.196 154.229C244.008 154.53 244.879 153.998 245.541 153.433C247.827 151.485 249.465 148.885 251.008 146.294C252.551 143.702 254.058 141.044 256.158 138.892C258.258 136.74 261.071 135.113 264.055 135.148C267.039 135.184 270.08 137.236 270.631 140.205C271.184 143.183 269.273 146.035 267.253 148.275C264.256 151.601 260.783 154.484 256.977 156.808C256.29 157.228 255.547 157.681 255.244 158.432C254.699 159.785 255.915 161.25 257.25 161.798C258.762 162.42 260.451 162.374 262.056 162.675C263.662 162.977 265.366 163.811 265.873 165.383C266.577 167.562 264.651 169.664 262.805 171C259.11 173.677 254.96 175.707 250.595 176.974C249.03 177.428 247.39 177.808 246.085 178.796C244.78 179.785 243.909 181.599 244.553 183.111C245.197 184.626 247.074 185.225 248.693 185.038C250.312 184.851 251.804 184.081 253.367 183.611C256.293 182.73 259.962 183.179 261.621 185.769C262.71 187.472 262.661 189.735 261.921 191.625C261.182 193.515 259.836 195.094 258.423 196.538C253.484 201.588 247.336 205.504 240.561 207.345C233.79 209.185 227.617 209.385 221.206 206.53Z"
            fill="black" />
    </g>
    <path
        d="M220.407 215.787C221.199 210.865 222.686 205.091 224.971 198.914C227.244 192.731 230.297 186.161 233.727 179.398C234.591 177.711 235.444 176.044 236.285 174.401C237.128 172.763 237.964 171.137 238.88 169.599C240.7 166.513 242.684 163.685 244.651 161.06C246.618 158.432 248.58 156.01 250.431 153.76C252.288 151.512 254.058 149.449 255.752 147.638C259.129 144.002 262.195 141.397 264.371 139.695C265.459 138.84 266.323 138.204 266.916 137.781C267.2 137.581 267.424 137.423 267.592 137.304C267.745 137.199 267.826 137.148 267.83 137.153C267.834 137.159 267.761 137.221 267.615 137.337C267.453 137.463 267.236 137.631 266.961 137.844C266.385 138.287 265.535 138.941 264.463 139.813C262.317 141.549 259.291 144.176 255.949 147.825C254.272 149.642 252.518 151.71 250.675 153.964C248.836 156.223 246.885 158.648 244.931 161.274C242.976 163.9 241.007 166.722 239.202 169.793C238.293 171.325 237.466 172.936 236.622 174.579C235.782 176.221 234.93 177.888 234.067 179.575C230.641 186.332 227.585 192.882 225.3 199.039C223.006 205.19 221.497 210.934 220.674 215.832"
        fill="#263238" />
    <path
        d="M238.99 169.592C238.964 169.594 238.915 169.274 238.848 168.693C238.778 168.112 238.705 167.268 238.63 166.224C238.479 164.138 238.368 161.249 238.257 158.064C238.146 154.877 237.995 151.998 237.812 149.919C237.723 148.88 237.643 148.039 237.58 147.459C237.521 146.878 237.5 146.555 237.526 146.55C237.552 146.546 237.623 146.862 237.727 147.438C237.835 148.013 237.957 148.852 238.08 149.891C238.333 151.97 238.529 154.859 238.639 158.049C238.74 161.192 238.831 164.036 238.9 166.209C238.938 167.19 238.97 168.017 238.996 168.681C239.017 169.265 239.017 169.589 238.99 169.592Z"
        fill="#263238" />
    <path
        d="M266.016 166.435C266.015 166.462 265.632 166.48 264.943 166.49C264.254 166.504 263.257 166.519 262.026 166.577C259.564 166.673 256.168 166.925 252.433 167.366C248.698 167.815 245.335 168.365 242.914 168.833C241.701 169.058 240.725 169.267 240.049 169.407C239.374 169.55 238.997 169.617 238.99 169.591C238.984 169.565 239.349 169.449 240.015 169.26C240.681 169.075 241.651 168.825 242.86 168.564C245.274 168.026 248.642 167.432 252.389 166.981C256.135 166.539 259.547 166.329 262.019 166.303C263.255 166.28 264.255 166.306 264.946 166.339C265.635 166.376 266.016 166.408 266.016 166.435Z"
        fill="#263238" />
    <path
        d="M225.333 198.445C225.32 198.45 225.266 198.334 225.172 198.107C225.066 197.838 224.938 197.509 224.782 197.11C224.448 196.244 223.996 194.976 223.458 193.404C222.38 190.259 221.028 185.867 219.602 181.002C218.174 176.134 216.865 171.736 215.855 168.573C215.359 167.035 214.95 165.77 214.647 164.83C214.518 164.422 214.411 164.085 214.324 163.809C214.254 163.575 214.224 163.449 214.236 163.444C214.248 163.44 214.303 163.556 214.397 163.783C214.502 164.052 214.631 164.38 214.786 164.779C215.122 165.645 215.573 166.913 216.111 168.485C217.189 171.631 218.541 176.022 219.967 180.89C221.394 185.756 222.703 190.154 223.713 193.317C224.21 194.854 224.618 196.12 224.921 197.06C225.051 197.468 225.157 197.805 225.244 198.081C225.315 198.316 225.345 198.441 225.333 198.445Z"
        fill="#263238" />
    <path
        d="M261.575 189.45C261.577 189.463 261.452 189.504 261.213 189.571C260.93 189.645 260.582 189.736 260.159 189.846C259.187 190.089 257.874 190.417 256.278 190.816C253.001 191.636 248.488 192.82 243.502 194.135C238.515 195.452 233.986 196.595 230.691 197.347C229.044 197.724 227.708 198.015 226.78 198.197C226.352 198.279 225.998 198.346 225.711 198.401C225.466 198.443 225.336 198.459 225.333 198.446C225.33 198.433 225.455 198.392 225.694 198.324C225.977 198.251 226.325 198.16 226.748 198.05C227.721 197.807 229.033 197.479 230.629 197.08C233.906 196.261 238.42 195.076 243.407 193.76C248.393 192.444 252.921 191.3 256.216 190.548C257.864 190.172 259.2 189.88 260.128 189.698C260.556 189.616 260.909 189.549 261.197 189.494C261.442 189.452 261.572 189.437 261.575 189.45Z"
        fill="#263238" />
    <path d="M223.581 44.2123H80.987V239.606H223.581V44.2123Z" fill="#455A64" />
    <path d="M217.945 227.985H191.535H92.8605V52.1091H217.945V206.105V227.985Z" fill="#E0E0E0" />
    <path d="M215.969 224.722H189.797H92.0114V49.7836H215.969V202.959V224.722Z" fill="#EBEBEB" />
    <path d="M202.649 211.108L188.372 222.734H89.697V50.2275H214.782V201.273L202.649 211.108Z"
        fill="#FAFAFA" />
    <path
        d="M202.649 211.108C202.649 211.108 202.902 210.893 203.411 210.474C203.924 210.055 204.687 209.431 205.698 208.604C207.73 206.95 210.757 204.486 214.75 201.235L214.732 201.273C214.718 176.462 214.685 121.33 214.643 50.2275L214.781 50.3657C177.533 50.3698 135.33 50.3751 90.7889 50.3804C90.4214 50.3804 90.0533 50.3804 89.697 50.3804L89.8499 50.2275C89.8387 115.081 89.8281 174.91 89.8193 222.734L89.6964 222.611C134.739 222.644 169.34 222.668 188.37 222.682L188.338 222.694C193.099 218.831 196.673 215.932 199.059 213.996C200.252 213.033 201.147 212.31 201.746 211.826C202.345 211.344 202.649 211.108 202.649 211.108C202.649 211.108 202.357 211.358 201.765 211.846C201.169 212.336 200.279 213.065 199.094 214.038C196.715 215.982 193.152 218.895 188.405 222.775L188.39 222.787H188.372C169.341 222.8 134.74 222.825 89.6976 222.857H89.5747V222.734C89.5665 174.911 89.5559 115.082 89.5441 50.2281V50.0752H89.697C90.0539 50.0752 90.4214 50.0752 90.7889 50.0752C135.331 50.0805 177.534 50.0858 214.781 50.0899H214.92V50.2281C214.878 121.331 214.845 176.462 214.83 201.274V201.297L214.812 201.312C210.806 204.546 207.769 206.998 205.73 208.644C204.712 209.463 203.944 210.08 203.427 210.495C202.912 210.906 202.649 211.108 202.649 211.108Z"
        fill="#263238" />
    <path
        d="M177.881 55.7212H126.687V46.8489C126.687 42.0567 130.572 38.1718 135.364 38.1718H169.557C174.154 38.1718 177.88 41.8979 177.88 46.4943V55.7212H177.881Z"
        fill="#207DA9" />
    <path d="M139.225 38.1718L137.354 28.705H166.83L165.193 38.1718H139.225Z" fill="#207DA9" />
    <path
        d="M123.853 98.784H102.78V77.7107H123.853V98.784ZM103.368 98.196H123.265V78.2987H103.368V98.196Z"
        fill="#207DA9" />
    <path
        d="M198.319 82.7999C198.319 82.8845 183.65 82.9527 165.56 82.9527C147.463 82.9527 132.798 82.8839 132.798 82.7999C132.798 82.7152 147.463 82.647 165.56 82.647C183.651 82.6464 198.319 82.7152 198.319 82.7999Z"
        fill="#263238" />
    <path
        d="M198.319 87.1786C198.319 87.2633 183.65 87.3315 165.56 87.3315C147.463 87.3315 132.798 87.2627 132.798 87.1786C132.798 87.094 147.463 87.0258 165.56 87.0258C183.651 87.0258 198.319 87.094 198.319 87.1786Z"
        fill="#263238" />
    <path
        d="M198.319 91.5575C198.319 91.6422 183.65 91.7104 165.56 91.7104C147.463 91.7104 132.798 91.6416 132.798 91.5575C132.798 91.4729 147.463 91.4047 165.56 91.4047C183.651 91.4047 198.319 91.4729 198.319 91.5575Z"
        fill="#263238" />
    <path
        d="M198.319 95.9363C198.319 96.021 183.65 96.0892 165.56 96.0892C147.463 96.0892 132.798 96.0204 132.798 95.9363C132.798 95.8522 147.463 95.7834 165.56 95.7834C183.651 95.7834 198.319 95.8522 198.319 95.9363Z"
        fill="#263238" />
    <path
        d="M123.853 131.261H102.78V110.188H123.853V131.261ZM103.368 130.673H123.265V110.776H103.368V130.673Z"
        fill="#207DA9" />
    <path
        d="M106.971 121.158L109.768 118.153L114.431 121.884L125.103 111.522L127.659 114.535L114.224 127.789L106.971 121.158Z"
        fill="#207DA9" />
    <path
        d="M198.319 115.277C198.319 115.361 183.65 115.43 165.56 115.43C147.463 115.43 132.798 115.361 132.798 115.277C132.798 115.193 147.463 115.124 165.56 115.124C183.651 115.123 198.319 115.192 198.319 115.277Z"
        fill="#263238" />
    <path
        d="M198.319 119.656C198.319 119.74 183.65 119.808 165.56 119.808C147.463 119.808 132.798 119.74 132.798 119.656C132.798 119.571 147.463 119.503 165.56 119.503C183.651 119.503 198.319 119.571 198.319 119.656Z"
        fill="#263238" />
    <path
        d="M198.319 124.034C198.319 124.119 183.65 124.187 165.56 124.187C147.463 124.187 132.798 124.119 132.798 124.034C132.798 123.95 147.463 123.882 165.56 123.882C183.651 123.882 198.319 123.95 198.319 124.034Z"
        fill="#263238" />
    <path
        d="M198.319 128.414C198.319 128.499 183.65 128.567 165.56 128.567C147.463 128.567 132.798 128.498 132.798 128.414C132.798 128.329 147.463 128.261 165.56 128.261C183.651 128.26 198.319 128.329 198.319 128.414Z"
        fill="#263238" />
    <path
        d="M123.853 162.688H102.78V141.615H123.853V162.688ZM103.368 162.1H123.265V142.203H103.368V162.1Z"
        fill="#207DA9" />
    <path
        d="M106.971 152.585L109.768 149.581L114.431 153.311L125.103 142.95L127.659 145.963L114.224 159.217L106.971 152.585Z"
        fill="#207DA9" />
    <path
        d="M198.319 146.704C198.319 146.789 183.65 146.857 165.56 146.857C147.463 146.857 132.798 146.788 132.798 146.704C132.798 146.62 147.463 146.551 165.56 146.551C183.651 146.551 198.319 146.62 198.319 146.704Z"
        fill="#263238" />
    <path
        d="M198.319 151.083C198.319 151.168 183.65 151.236 165.56 151.236C147.463 151.236 132.798 151.167 132.798 151.083C132.798 150.999 147.463 150.93 165.56 150.93C183.651 150.93 198.319 150.999 198.319 151.083Z"
        fill="#263238" />
    <path
        d="M198.319 155.462C198.319 155.547 183.65 155.615 165.56 155.615C147.463 155.615 132.798 155.547 132.798 155.462C132.798 155.378 147.463 155.31 165.56 155.31C183.651 155.309 198.319 155.378 198.319 155.462Z"
        fill="#263238" />
    <path
        d="M198.319 159.841C198.319 159.926 183.65 159.994 165.56 159.994C147.463 159.994 132.798 159.925 132.798 159.841C132.798 159.757 147.463 159.688 165.56 159.688C183.651 159.688 198.319 159.757 198.319 159.841Z"
        fill="#263238" />
    <path
        d="M123.853 193.032H102.78V171.959H123.853V193.032ZM103.368 192.444H123.265V172.547H103.368V192.444Z"
        fill="#207DA9" />
    <path
        d="M106.971 182.93L109.768 179.925L114.431 183.655L125.103 173.294L127.659 176.307L114.224 189.561L106.971 182.93Z"
        fill="#207DA9" />
    <path
        d="M198.319 177.049C198.319 177.133 183.65 177.202 165.56 177.202C147.463 177.202 132.798 177.133 132.798 177.049C132.798 176.965 147.463 176.896 165.56 176.896C183.651 176.895 198.319 176.964 198.319 177.049Z"
        fill="#263238" />
    <path
        d="M198.319 181.427C198.319 181.512 183.65 181.58 165.56 181.58C147.463 181.58 132.798 181.511 132.798 181.427C132.798 181.343 147.463 181.275 165.56 181.275C183.651 181.274 198.319 181.343 198.319 181.427Z"
        fill="#263238" />
    <path
        d="M198.319 185.806C198.319 185.891 183.65 185.959 165.56 185.959C147.463 185.959 132.798 185.89 132.798 185.806C132.798 185.722 147.463 185.653 165.56 185.653C183.651 185.653 198.319 185.722 198.319 185.806Z"
        fill="#263238" />
    <path
        d="M198.319 190.185C198.319 190.27 183.65 190.338 165.56 190.338C147.463 190.338 132.798 190.269 132.798 190.185C132.798 190.101 147.463 190.032 165.56 190.032C183.651 190.032 198.319 190.101 198.319 190.185Z"
        fill="#263238" />
    <path d="M192.294 194.173L178.58 222.574H188.372L192.294 194.173Z" fill="#E0E0E0" />
    <path d="M188.372 222.734L192.294 194.333L214.782 201.273L188.372 222.734Z" fill="#FAFAFA" />
    <path
        d="M188.372 222.734C188.924 222.279 191.352 220.281 195.934 216.509C200.633 212.662 207.191 207.293 214.688 201.156L214.738 201.416C211.948 200.556 209.039 199.659 206.056 198.74C201.188 197.235 196.519 195.79 192.252 194.47L192.437 194.352C191.262 202.602 190.255 209.668 189.539 214.692C188.83 219.576 188.464 222.097 188.372 222.734C188.369 222.737 188.374 222.695 188.385 222.608C188.398 222.507 188.413 222.377 188.434 222.215C188.482 221.847 188.55 221.331 188.636 220.669C188.819 219.289 189.08 217.305 189.409 214.815C190.086 209.751 191.039 202.629 192.151 194.314L192.174 194.146L192.337 194.196C196.605 195.511 201.277 196.949 206.146 198.448C209.129 199.37 212.037 200.269 214.826 201.131L215.095 201.214L214.876 201.39C207.289 207.51 200.651 212.864 195.895 216.7C193.547 218.588 191.663 220.101 190.353 221.154C189.719 221.662 189.224 222.059 188.874 222.34C188.717 222.465 188.592 222.564 188.496 222.641C188.411 222.706 188.369 222.738 188.372 222.734Z"
        fill="#263238" />
    <g opacity="0.3">
        <path d="M164.794 28.705L163.169 38.1718H165.193L166.83 28.705H164.252" fill="black" />
    </g>
    <path
        d="M78.4556 128.55C81.4474 128.78 84.0299 126.477 84.1457 123.479C84.2562 120.599 84.3532 117.689 84.3532 117.689C84.3532 117.689 88.7162 117.28 89.0326 112.962C89.3489 108.644 89.2042 98.6752 89.2042 98.6752C84.3327 96.2209 78.515 96.5949 73.998 99.6531L74.2673 114.85V123.025C74.2955 125.769 75.7208 128.34 78.4556 128.55Z"
        fill="#FFBE9D" />
    <path
        d="M84.7284 107.69C83.9834 106.767 82.7722 106.4 81.7778 107.046C80.783 107.692 80.4008 109.129 80.9417 110.184C81.3233 110.929 82.193 111.604 83.0603 111.786C83.8758 111.957 84.4538 112.744 84.3586 113.572C84.2345 114.655 83.6565 115.681 82.8427 116.579C81.5773 117.974 79.7151 118.725 77.8447 118.947C76.0055 119.164 73.8986 118.781 72.8291 117.269C72.0506 116.169 71.9941 114.732 71.9665 113.385C71.9006 110.201 71.8348 107.017 71.7689 103.834C71.7454 102.686 71.723 101.524 71.9865 100.407C72.2499 99.2897 72.835 98.2036 73.794 97.5727C74.8442 96.8812 76.1748 96.8224 77.3714 96.4355C78.8667 95.9522 80.1367 94.9596 81.5362 94.244C82.9356 93.5284 84.6508 93.1004 86.0555 93.8054C87.064 94.3117 87.7396 95.3177 88.7204 95.8757C90.1163 96.6695 92.0167 96.4896 92.6947 98.5423C92.9287 99.2514 92.911 100.031 92.6711 100.738C91.7245 103.531 88.2647 104.658 85.7727 103.45C85.7233 103.924 86.1896 104.977 85.6916 106.472C85.5316 106.948 85.4752 107.677 84.7284 107.69Z"
        fill="#263238" />
    <path
        d="M72.8126 98.8016C73.4253 97.4057 74.0456 95.981 74.1997 94.4639C74.3537 92.9475 73.9686 91.2952 72.8391 90.2721C72.0747 89.58 71.0239 89.2348 69.9925 89.2654C68.0186 89.323 66.1917 90.8036 65.6531 92.7035C65.1151 94.6033 65.8577 96.7795 67.3983 98.0149C68.9388 99.2502 71.1744 99.5143 72.9925 98.7446"
        fill="#263238" />
    <path
        d="M73.6611 97.2269C73.7428 97.2246 73.6729 97.9954 73.0243 98.6216C72.3822 99.2555 71.6107 99.3067 71.6149 99.2255C71.5943 99.1379 72.2475 98.965 72.8108 98.4029C73.3859 97.8531 73.5741 97.204 73.6611 97.2269Z"
        fill="#207DA9" />
    <path
        d="M72.2405 98.2818C72.2575 98.3065 71.8589 98.6935 71.068 99.1392C70.6711 99.3502 70.1466 99.5678 69.5227 99.5766C68.9195 99.5896 68.1668 99.3855 67.7205 98.7681C67.2795 98.1566 67.2631 97.4051 67.4012 96.8154C67.5453 96.2086 67.8552 95.744 68.1274 95.3859C68.696 94.6821 69.1258 94.3346 69.1494 94.3558C69.1893 94.3899 68.8095 94.7991 68.3026 95.5135C68.0616 95.8734 67.7899 96.3291 67.677 96.8765C67.5647 97.4169 67.5994 98.0807 67.9681 98.587C68.3332 99.0974 68.9741 99.2903 69.5227 99.2944C70.0825 99.302 70.5776 99.1245 70.9722 98.9451C71.7583 98.5653 72.2117 98.236 72.2405 98.2818Z"
        fill="#263238" />
    <path
        d="M64.9011 103.159C64.9222 103.153 64.9916 103.326 65.1116 103.638C65.2356 103.945 65.3997 104.406 65.7478 104.869C66.0841 105.312 66.7074 105.788 67.4389 105.646C68.1633 105.508 68.8048 104.84 69.0659 104.008C69.3463 103.168 69.3663 102.29 69.5075 101.499C69.6374 100.709 69.902 99.9876 70.3318 99.5207C70.7511 99.0526 71.2468 98.8463 71.589 98.8039C71.9365 98.7563 72.1223 98.8374 72.1176 98.8486C72.1152 98.8786 71.9265 98.8404 71.6113 98.9209C71.3003 98.995 70.8616 99.2138 70.4959 99.6618C70.126 100.102 69.8967 100.776 69.7856 101.545C69.6615 102.312 69.6545 103.202 69.3552 104.107C69.0717 105.007 68.3509 105.778 67.4877 105.923C67.0602 106 66.6362 105.888 66.317 105.697C65.9936 105.505 65.7519 105.251 65.5726 104.997C65.2203 104.48 65.0892 103.997 64.9975 103.675C64.9122 103.349 64.8817 103.165 64.9011 103.159Z"
        fill="#263238" />
    <path
        d="M62.779 139.435C62.779 139.435 60.5781 155.558 62.779 157.602C64.9798 159.646 67.0984 158.967 67.0984 158.967L71.2891 155.463L72.114 139.435H62.779Z"
        fill="#FFBE9D" />
    <path
        d="M108.323 94.1735L111.121 91.1688L115.783 94.8991L126.455 84.5374L129.012 87.5509L115.576 100.805L108.323 94.1735Z"
        fill="#207DA9" />
    <path
        d="M121.469 94.992L117.412 97.5957C117.228 95.9922 116.004 94.4028 116.067 95.2078C116.13 96.0134 116.075 100.193 116.075 100.193L108.839 115.417C107.856 117.829 105.864 119.345 104.375 119.703L97.6215 121.711L100.262 130.64L109.648 127.528C112.084 126.72 113.993 124.806 114.793 122.368L121.264 102.656C121.264 102.656 122.032 100.415 122.309 98.7723C122.586 97.13 121.469 94.992 121.469 94.992Z"
        fill="#FFBE9D" />
    <path
        d="M88.2269 261.498L88.1258 256.984L79.6686 257.119L79.7462 263.726L80.2713 263.751C82.6068 263.843 92.1548 264.056 93.7071 263.557C95.4387 263.001 88.2269 261.498 88.2269 261.498Z"
        fill="#207DA9" />
    <g opacity="0.5">
        <path
            d="M82.8116 263.61C82.6799 262.905 82.2765 262.255 81.7038 261.824C81.1311 261.393 80.4308 261.172 79.7169 261.241L79.7528 263.605L82.8116 263.61Z"
            fill="white" />
    </g>
    <g opacity="0.4">
        <path
            d="M91.7527 262.358C91.7527 262.358 94.2829 263.044 93.9754 263.464C93.6678 263.884 84.0117 264.032 79.7463 263.725L79.7569 263.536L91.0218 263.459C91.0218 263.459 91.2606 262.386 91.7527 262.358Z"
            fill="white" />
    </g>
    <path
        d="M79.624 263.533C79.624 263.536 79.674 263.541 79.7698 263.546C79.8951 263.552 80.0327 263.558 80.1879 263.565C80.606 263.577 81.1199 263.591 81.7261 263.607C83.025 263.634 84.8202 263.647 86.8029 263.619C88.7857 263.589 90.5802 263.524 91.878 263.459C92.4836 263.425 92.9969 263.396 93.4144 263.372C93.569 263.36 93.7066 263.35 93.8319 263.34C93.9271 263.332 93.9771 263.326 93.9771 263.323C93.9771 263.319 93.9265 263.318 93.8307 263.32C93.7049 263.323 93.5679 263.328 93.4126 263.332C92.9952 263.346 92.4812 263.365 91.8756 263.386C90.5779 263.433 88.7839 263.487 86.8023 263.516C84.8214 263.545 83.0268 263.543 81.7279 263.535C81.1217 263.53 80.6078 263.527 80.1897 263.525C80.0345 263.525 79.8969 263.525 79.771 263.525C79.6746 263.527 79.624 263.529 79.624 263.533Z"
        fill="#263238" />
    <path
        d="M91.0213 263.59C91.0524 263.593 91.0712 263.226 91.297 262.852C91.5169 262.474 91.8298 262.281 91.8121 262.256C91.8057 262.23 91.4458 262.395 91.2088 262.8C90.9678 263.202 90.996 263.596 91.0213 263.59Z"
        fill="#263238" />
    <path
        d="M88.5064 262.362C88.5305 262.377 88.6475 262.23 88.768 262.033C88.8886 261.837 88.9662 261.666 88.9421 261.651C88.918 261.636 88.801 261.783 88.6804 261.98C88.5605 262.176 88.4823 262.347 88.5064 262.362Z"
        fill="#263238" />
    <path
        d="M87.816 262.011C87.8354 262.032 87.9677 261.941 88.1112 261.808C88.2547 261.675 88.3558 261.549 88.3364 261.529C88.317 261.508 88.1853 261.599 88.0412 261.732C87.8978 261.865 87.7972 261.99 87.816 262.011Z"
        fill="#263238" />
    <path
        d="M87.3709 261.219C87.3709 261.247 87.5691 261.27 87.8131 261.268C88.0571 261.267 88.2547 261.244 88.2547 261.215C88.2547 261.187 88.0565 261.165 87.8125 261.166C87.5685 261.167 87.3709 261.191 87.3709 261.219Z"
        fill="#263238" />
    <path
        d="M87.2139 260.659C87.2045 260.684 87.4215 260.778 87.7084 260.795C87.9954 260.813 88.2217 260.745 88.2159 260.719C88.2106 260.689 87.9871 260.709 87.7149 260.692C87.4421 260.677 87.2221 260.63 87.2139 260.659Z"
        fill="#263238" />
    <path
        d="M88.7821 261.62C88.7815 261.632 88.9908 261.654 89.3254 261.608C89.4924 261.585 89.69 261.543 89.9022 261.472C90.0075 261.432 90.118 261.403 90.2315 261.33C90.2844 261.293 90.3438 261.242 90.3632 261.159C90.3844 261.077 90.3397 260.986 90.2774 260.943C89.7535 260.682 89.2378 260.982 89.0496 261.254C88.9456 261.393 88.8991 261.527 88.8779 261.619C88.8574 261.712 88.8603 261.765 88.8662 261.766C88.8856 261.773 88.8997 261.551 89.1067 261.298C89.209 261.174 89.3642 261.053 89.5665 260.99C89.7576 260.93 90.0304 260.91 90.2151 261.024C90.3021 261.086 90.2703 261.188 90.1751 261.247C90.0863 261.306 89.9716 261.343 89.8717 261.383C89.667 261.457 89.4765 261.505 89.3142 261.537C88.9891 261.599 88.7815 261.604 88.7821 261.62Z"
        fill="#263238" />
    <path
        d="M88.9232 261.645C88.9309 261.651 89.0091 261.511 88.9803 261.267C88.965 261.147 88.9191 261.006 88.8256 260.872C88.728 260.753 88.6016 260.589 88.3687 260.602C88.2429 260.62 88.1835 260.765 88.2053 260.856C88.2164 260.951 88.2605 261.032 88.3011 261.097C88.384 261.232 88.4769 261.34 88.5628 261.422C88.7357 261.586 88.8715 261.647 88.8774 261.637C88.8868 261.624 88.7674 261.541 88.6151 261.371C88.5393 261.287 88.4569 261.178 88.3829 261.049C88.3064 260.935 88.2523 260.729 88.3881 260.702C88.524 260.687 88.6651 260.82 88.7498 260.927C88.8368 261.044 88.8862 261.17 88.9091 261.278C88.9538 261.5 88.905 261.641 88.9232 261.645Z"
        fill="#263238" />
    <path
        d="M79.761 261.216C79.7634 261.235 80.0027 261.189 80.386 261.228C80.7653 261.265 81.2945 261.412 81.7579 261.769C82.2212 262.128 82.497 262.603 82.6281 262.96C82.7627 263.321 82.7792 263.564 82.798 263.562C82.8045 263.561 82.8063 263.501 82.7957 263.391C82.7851 263.282 82.7569 263.124 82.6963 262.937C82.5799 262.563 82.3029 262.062 81.8202 261.689C81.3368 261.316 80.7824 261.175 80.3913 261.157C80.1944 261.146 80.035 261.159 79.9262 261.176C79.818 261.193 79.7598 261.21 79.761 261.216Z"
        fill="#263238" />
    <path
        d="M80.5836 257.683C80.5554 257.683 80.5343 258.461 80.5372 259.421C80.5396 260.381 80.5648 261.159 80.5931 261.159C80.6213 261.159 80.6424 260.38 80.6395 259.42C80.6366 258.461 80.6119 257.683 80.5836 257.683Z"
        fill="#263238" />
    <path
        d="M83.8635 262.768C83.8606 262.795 84.4127 262.877 85.1001 262.872C85.7875 262.869 86.339 262.78 86.3355 262.754C86.332 262.724 85.7804 262.766 85.0995 262.769C84.4186 262.775 83.8665 262.739 83.8635 262.768Z"
        fill="#263238" />
    <path
        d="M82.2059 262.792C82.1853 262.813 82.253 262.908 82.3112 263.034C82.3712 263.159 82.4023 263.272 82.4311 263.269C82.4588 263.269 82.4729 263.135 82.4041 262.99C82.3359 262.845 82.2236 262.771 82.2059 262.792Z"
        fill="#263238" />
    <path
        d="M81.5691 262.024C81.5491 262.044 81.605 262.132 81.6938 262.219C81.7826 262.306 81.8708 262.36 81.8908 262.34C81.9107 262.32 81.8549 262.233 81.7655 262.146C81.6767 262.058 81.5891 262.004 81.5691 262.024Z"
        fill="#263238" />
    <path
        d="M80.6695 261.682C80.676 261.711 80.7883 261.708 80.9129 261.75C81.0388 261.789 81.1281 261.856 81.1505 261.837C81.1728 261.821 81.0999 261.702 80.9447 261.652C80.79 261.602 80.6607 261.657 80.6695 261.682Z"
        fill="#263238" />
    <path
        d="M80.0309 261.525C80.021 261.551 80.0702 261.594 80.1405 261.62C80.2109 261.646 80.2759 261.645 80.2859 261.619C80.2958 261.593 80.2466 261.55 80.1763 261.524C80.1054 261.498 80.0409 261.498 80.0309 261.525Z"
        fill="#263238" />
    <path
        d="M58.3821 260.054L61.2497 256.566L54.7506 251.153L50.5011 256.212L50.8827 256.573C52.5932 258.167 59.6921 264.554 61.1939 265.189C62.8685 265.897 58.3821 260.054 58.3821 260.054Z"
        fill="#207DA9" />
    <g opacity="0.5">
        <path
            d="M52.8994 258.123C53.2592 257.503 53.3774 256.747 53.2246 256.046C53.0711 255.346 52.6848 254.722 52.0991 254.309L50.585 256.124L52.8994 258.123Z"
            fill="white" />
    </g>
    <g opacity="0.4">
        <path
            d="M60.494 263.005C60.494 263.005 61.9646 265.176 61.4572 265.293C60.9503 265.411 53.5333 259.226 50.5004 256.212L50.6315 256.075L59.2216 263.363C59.2216 263.363 60.1024 262.706 60.494 263.005Z"
            fill="white" />
    </g>
    <path
        d="M50.5333 255.986C50.531 255.989 50.5662 256.025 50.635 256.091C50.7268 256.177 50.8267 256.272 50.9396 256.378C51.2489 256.66 51.6293 257.005 52.078 257.413C53.0452 258.281 54.3976 259.461 55.9194 260.733C57.4417 262.004 58.8447 263.124 59.8708 263.921C60.3523 264.29 60.7604 264.603 61.0926 264.857C61.2173 264.949 61.3278 265.031 61.429 265.106C61.5066 265.162 61.5483 265.19 61.5507 265.187C61.553 265.184 61.5154 265.15 61.4419 265.089C61.3443 265.01 61.2379 264.923 61.1173 264.825C60.791 264.564 60.39 264.243 59.916 263.864C58.9017 263.053 57.507 261.924 55.9858 260.654C54.4653 259.384 53.1064 258.212 52.1268 257.359C51.6699 256.96 51.2824 256.623 50.9673 256.348C50.8497 256.247 50.745 256.157 50.6497 256.076C50.5751 256.014 50.5357 255.983 50.5333 255.986Z"
        fill="#263238" />
    <path
        d="M59.1358 263.462C59.1569 263.485 59.4109 263.219 59.8261 263.082C60.2394 262.939 60.6022 262.997 60.6058 262.966C60.6175 262.943 60.2371 262.833 59.7937 262.985C59.3486 263.133 59.1122 263.451 59.1358 263.462Z"
        fill="#263238" />
    <path
        d="M58.0303 260.892C58.0391 260.919 58.2237 260.883 58.4431 260.813C58.6624 260.743 58.8329 260.664 58.8247 260.638C58.8159 260.61 58.6312 260.646 58.4119 260.716C58.192 260.786 58.0215 260.864 58.0303 260.892Z"
        fill="#263238" />
    <path
        d="M57.7357 260.175C57.7369 260.203 57.8962 260.22 58.092 260.213C58.2878 260.206 58.4454 260.177 58.4448 260.149C58.4437 260.121 58.2843 260.104 58.0885 260.111C57.8927 260.118 57.7351 260.146 57.7357 260.175Z"
        fill="#263238" />
    <path
        d="M57.915 259.284C57.8968 259.306 58.032 259.452 58.2179 259.61C58.4037 259.768 58.5689 259.88 58.5871 259.858C58.6053 259.836 58.4701 259.69 58.2843 259.532C58.0985 259.374 57.9333 259.263 57.915 259.284Z"
        fill="#263238" />
    <path
        d="M58.1614 258.757C58.1379 258.771 58.2408 258.983 58.4478 259.182C58.6536 259.383 58.8694 259.48 58.8817 259.456C58.897 259.43 58.7142 259.299 58.5189 259.109C58.3226 258.919 58.1861 258.741 58.1614 258.757Z"
        fill="#263238" />
    <path
        d="M58.723 260.509C58.7153 260.517 58.8588 260.67 59.1428 260.854C59.2845 260.946 59.4615 261.042 59.6691 261.127C59.7749 261.165 59.8778 261.215 60.0107 261.234C60.0748 261.241 60.153 261.241 60.2224 261.191C60.2918 261.143 60.317 261.044 60.2982 260.971C60.0718 260.432 59.485 260.323 59.1652 260.405C58.9958 260.442 58.8729 260.514 58.7965 260.57C58.72 260.628 58.6877 260.67 58.6918 260.674C58.7018 260.692 58.857 260.533 59.1787 260.476C59.3368 260.449 59.5338 260.458 59.7285 260.542C59.9125 260.622 60.1318 260.784 60.1977 260.991C60.223 261.095 60.1324 261.151 60.0219 261.134C59.916 261.121 59.8049 261.074 59.7038 261.039C59.5003 260.961 59.3239 260.874 59.1804 260.793C58.8929 260.628 58.7336 260.496 58.723 260.509Z"
        fill="#263238" />
    <path
        d="M58.8141 260.619C58.8164 260.629 58.9664 260.573 59.104 260.369C59.1704 260.269 59.228 260.131 59.2445 259.97C59.248 259.815 59.2598 259.608 59.0746 259.467C58.9675 259.399 58.8282 259.469 58.7853 259.552C58.7317 259.631 58.7123 259.722 58.7006 259.798C58.6759 259.954 58.6753 260.097 58.6871 260.215C58.7112 260.452 58.7741 260.587 58.7853 260.583C58.8011 260.579 58.7647 260.439 58.7594 260.211C58.757 260.097 58.7653 259.961 58.7935 259.814C58.81 259.678 58.9029 259.487 59.0234 259.556C59.1363 259.633 59.1563 259.825 59.1504 259.962C59.141 260.107 59.0963 260.235 59.0422 260.332C58.9317 260.529 58.8023 260.605 58.8141 260.619Z"
        fill="#263238" />
    <path
        d="M52.148 254.319C52.1374 254.335 52.3485 254.456 52.6137 254.736C52.8777 255.01 53.1823 255.467 53.301 256.04C53.4186 256.614 53.3181 257.154 53.184 257.511C53.0511 257.872 52.9047 258.067 52.9206 258.078C52.9259 258.081 52.967 258.037 53.03 257.947C53.0935 257.857 53.1746 257.719 53.2511 257.538C53.4063 257.178 53.5233 256.618 53.4004 256.02C53.2769 255.422 52.9488 254.954 52.6642 254.685C52.5219 254.549 52.3932 254.453 52.2991 254.396C52.2068 254.338 52.1515 254.314 52.148 254.319Z"
        fill="#263238" />
    <path
        d="M55.0756 252.177C55.0538 252.159 54.5305 252.735 53.9066 253.464C53.2822 254.194 52.7941 254.8 52.8153 254.818C52.8371 254.836 53.3604 254.26 53.9842 253.531C54.6087 252.802 55.0973 252.196 55.0756 252.177Z"
        fill="#263238" />
    <path
        d="M54.2453 258.171C54.2254 258.19 54.5911 258.612 55.115 259.056C55.6383 259.503 56.114 259.795 56.1287 259.773C56.1458 259.748 55.7001 259.42 55.1814 258.978C54.6622 258.538 54.2665 258.151 54.2453 258.171Z"
        fill="#263238" />
    <path
        d="M52.9735 257.108C52.9447 257.111 52.9335 257.227 52.8953 257.36C52.8594 257.494 52.8095 257.599 52.833 257.617C52.8541 257.634 52.9517 257.542 52.9941 257.388C53.0376 257.233 53.0006 257.104 52.9735 257.108Z"
        fill="#263238" />
    <path
        d="M52.9917 256.111C52.9635 256.113 52.9488 256.215 52.9594 256.34C52.97 256.464 53.0011 256.563 53.0293 256.56C53.0576 256.558 53.0723 256.456 53.0617 256.331C53.0511 256.207 53.0199 256.108 52.9917 256.111Z"
        fill="#263238" />
    <path
        d="M52.5325 255.265C52.5184 255.291 52.6054 255.362 52.673 255.475C52.743 255.587 52.7671 255.697 52.7959 255.696C52.8235 255.698 52.8459 255.561 52.76 255.422C52.6759 255.283 52.543 255.24 52.5325 255.265Z"
        fill="#263238" />
    <path
        d="M52.1514 254.729C52.1268 254.742 52.1362 254.807 52.1725 254.872C52.2088 254.938 52.2581 254.98 52.2833 254.967C52.3079 254.953 52.2985 254.889 52.2622 254.823C52.2253 254.757 52.176 254.715 52.1514 254.729Z"
        fill="#263238" />
    <path
        d="M75.9826 165.573C75.9826 165.573 73.1672 177.488 73.9634 179.845C74.7595 182.202 79.9192 183.565 79.9192 183.565L79.7452 216.191L51.2125 251.459L61.7488 260.079C61.7488 260.079 92.6365 224.745 95.3595 218.346C98.0819 211.948 93.6243 165.045 93.6243 165.045L75.9826 165.573Z"
        fill="#263238" />
    <path
        d="M90.5555 160.715L91.9514 259.808L77.4361 259.882L70.1519 179.176C68.6119 177.707 66.4463 175.189 66.7445 169.576L67.0978 163.054L90.5555 160.715Z"
        fill="#263238" />
    <path
        d="M75.2511 221.707C75.2458 221.703 75.2746 221.654 75.3352 221.56C75.4099 221.45 75.5004 221.316 75.611 221.154C75.8779 220.776 76.2384 220.266 76.6899 219.627C77.6549 218.292 79.0037 216.425 80.6278 214.176L80.6031 214.251C80.2873 210.811 79.904 206.64 79.4906 202.143C78.9637 196.249 78.5369 190.909 78.2858 187.04C78.1576 185.105 78.0735 183.538 78.0271 182.455C78.0094 181.937 77.9953 181.523 77.9841 181.207C77.9777 180.922 77.9794 180.772 77.99 180.771C78.0006 180.771 78.0194 180.92 78.0459 181.204C78.0712 181.518 78.1047 181.932 78.1458 182.448C78.2323 183.562 78.3534 185.117 78.5016 187.025C78.8079 190.888 79.2689 196.224 79.7952 202.117C80.1909 206.63 80.5943 210.794 80.8547 214.251L80.8577 214.289L80.8301 214.325C79.1701 216.547 77.7913 218.393 76.8052 219.713C76.3307 220.335 75.9514 220.832 75.6709 221.199C75.5486 221.353 75.4487 221.479 75.3652 221.584C75.2952 221.669 75.2564 221.711 75.2511 221.707Z"
        fill="#455A64" />
    <path
        d="M79.7063 180.771C79.6934 180.852 77.9635 180.641 75.8632 180.199C73.7611 179.759 72.0935 179.256 72.1141 179.176C72.1358 179.092 73.8322 179.461 75.9261 179.899C78.0194 180.34 79.7204 180.685 79.7063 180.771Z"
        fill="#455A64" />
    <path
        d="M89.6482 214.603C89.6094 214.696 87.9812 213.744 85.7286 213.582C83.4778 213.387 81.7196 214.071 81.6967 213.973C81.6838 213.94 82.0995 213.726 82.828 213.529C83.5536 213.332 84.6008 213.186 85.7533 213.276C86.9052 213.37 87.916 213.678 88.6016 213.987C89.289 214.295 89.6659 214.573 89.6482 214.603Z"
        fill="#455A64" />
    <path
        d="M94.768 219.195C94.8356 219.246 90.7525 224.726 85.6498 231.433C80.5454 238.143 76.3542 243.539 76.2871 243.488C76.2201 243.437 80.302 237.958 85.4064 231.248C90.5085 224.541 94.7003 219.144 94.768 219.195Z"
        fill="#455A64" />
    <path
        d="M92.8017 168.077C92.8282 168.086 92.6288 168.593 91.9844 169.155C91.3611 169.71 90.2145 170.274 88.8898 170.14C87.5656 169.995 86.5624 169.204 86.0685 168.531C85.5558 167.846 85.4664 167.31 85.4946 167.306C85.5464 167.284 85.7081 167.782 86.2367 168.394C86.7482 169.001 87.7043 169.703 88.9221 169.836C90.1398 169.96 91.2218 169.473 91.8486 168.987C92.4936 168.497 92.7558 168.044 92.8017 168.077Z"
        fill="#455A64" />
    <path
        d="M72.969 117.091C70.6059 114.846 69.1635 111.66 69.0365 108.404C68.9101 105.147 70.1002 101.858 72.2822 99.4373"
        fill="#263238" />
    <path
        d="M64.817 126.335C64.817 126.335 61.6635 129.897 61.0103 143.522C61.0103 143.522 69.9908 145.225 70.1548 144.736C70.3189 144.246 64.817 126.335 64.817 126.335Z"
        fill="#207DA9" />
    <g opacity="0.3">
        <path
            d="M64.817 126.335C64.817 126.335 61.6635 129.897 61.0103 143.522C61.0103 143.522 69.9908 145.225 70.1548 144.736C70.3189 144.246 64.817 126.335 64.817 126.335Z"
            fill="black" />
    </g>
    <path
        d="M66.2717 166.015H93.8418L93.3967 161.709C93.3967 161.709 90.2462 145.324 90.2691 145.108L90.7654 144.064C92.0666 141.33 92.1107 138.163 90.8865 135.394L104.386 130.778L101.081 119.639C94.9555 120.673 85.6956 121.827 85.6956 121.827L84.3174 121.942C84.3174 121.942 74.7588 122.441 74.5548 122.465C70.5558 122.948 65.9036 123.255 64.2031 127.535C63.294 129.823 64.1578 133.258 65.6419 136.799L69.1764 147.676C70.5876 153.654 68.3355 153.37 67.099 159.387C66.912 160.296 66.2534 165.18 66.2717 166.015Z"
        fill="#207DA9" />
    <g opacity="0.3">
        <path
            d="M66.2717 166.015H93.8418L93.3967 161.709C93.3967 161.709 90.2462 145.324 90.2691 145.108L90.7654 144.064C92.0666 141.33 92.1107 138.163 90.8865 135.394L104.386 130.778L101.081 119.639C94.9555 120.673 85.6956 121.827 85.6956 121.827L84.3174 121.942C84.3174 121.942 74.7588 122.441 74.5548 122.465C70.5558 122.948 65.9036 123.255 64.2031 127.535C63.294 129.823 64.1578 133.258 65.6419 136.799L69.1764 147.676C70.5876 153.654 68.3355 153.37 67.099 159.387C66.912 160.296 66.2534 165.18 66.2717 166.015Z"
            fill="black" />
    </g>
    <path
        d="M104.26 130.958C104.266 130.978 104.053 131.066 103.661 131.209C103.269 131.352 102.699 131.55 101.993 131.787C100.581 132.264 98.6211 132.896 96.4572 133.588C94.2934 134.28 92.3583 134.968 90.9847 135.535C90.2956 135.813 89.7476 136.061 89.3648 136.225C88.9855 136.395 88.7709 136.482 88.7609 136.463C88.7515 136.444 88.9473 136.322 89.3124 136.118C89.6805 135.921 90.2174 135.642 90.8994 135.337C92.2589 134.715 94.1952 133.99 96.3637 133.297C98.5305 132.605 100.499 132.006 101.928 131.581C102.642 131.37 103.222 131.204 103.625 131.096C104.028 130.988 104.254 130.938 104.26 130.958Z"
        fill="#263238" />
    <path
        d="M102.658 125.027C102.658 125.112 94.5063 125.18 84.4533 125.18C74.3967 125.18 66.247 125.111 66.247 125.027C66.247 124.943 74.3967 124.874 84.4533 124.874C94.5063 124.874 102.658 124.942 102.658 125.027Z"
        fill="#FAFAFA" />
    <path
        d="M103.498 130.442C103.498 130.526 94.4269 130.595 83.2396 130.595C72.0488 130.595 62.9795 130.526 62.9795 130.442C62.9795 130.358 72.0488 130.289 83.2396 130.289C94.4269 130.288 103.498 130.357 103.498 130.442Z"
        fill="#FAFAFA" />
    <path
        d="M65.2356 136.604C65.2356 136.688 64.4794 136.756 63.5475 136.756C62.6149 136.756 61.8593 136.688 61.8593 136.604C61.8593 136.519 62.6149 136.451 63.5475 136.451C64.48 136.451 65.2356 136.519 65.2356 136.604Z"
        fill="#FAFAFA" />
    <path
        d="M91.7344 136.791C91.7344 136.875 85.8021 136.943 78.4856 136.943C71.1668 136.943 65.2356 136.875 65.2356 136.791C65.2356 136.706 71.1668 136.638 78.4856 136.638C85.8021 136.637 91.7344 136.706 91.7344 136.791Z"
        fill="#FAFAFA" />
    <path
        d="M91.1506 143.139C91.1506 143.223 85.8262 143.291 79.2594 143.291C72.6909 143.291 67.3677 143.223 67.3677 143.139C67.3677 143.054 72.6909 142.986 79.2594 142.986C85.8262 142.986 91.1506 143.055 91.1506 143.139Z"
        fill="#FAFAFA" />
    <path
        d="M90.9783 149.02C90.9783 149.105 86.152 149.173 80.2008 149.173C74.2467 149.173 69.4222 149.104 69.4222 149.02C69.4222 148.936 74.2473 148.867 80.2008 148.867C86.152 148.867 90.9783 148.936 90.9783 149.02Z"
        fill="#FAFAFA" />
    <path
        d="M91.9214 153.782C91.9214 153.867 86.7587 153.935 80.3919 153.935C74.0227 153.935 68.8612 153.866 68.8612 153.782C68.8612 153.697 74.0227 153.629 80.3919 153.629C86.7587 153.628 91.9214 153.697 91.9214 153.782Z"
        fill="#FAFAFA" />
    <path
        d="M93.4149 159.85C93.4149 159.935 87.542 160.003 80.2984 160.003C73.0525 160.003 67.1807 159.934 67.1807 159.85C67.1807 159.765 73.0525 159.697 80.2984 159.697C87.542 159.697 93.4149 159.765 93.4149 159.85Z"
        fill="#FAFAFA" />
    <path
        d="M69.0106 147.166C68.9906 147.173 68.9047 146.979 68.7666 146.624C68.6049 146.204 68.412 145.703 68.1874 145.12C67.7023 143.848 67.019 142.095 66.3087 140.14C65.5949 138.186 65.0092 136.394 64.6388 135.08C64.4542 134.423 64.316 133.888 64.2366 133.515C64.1555 133.141 64.1202 132.933 64.1408 132.928C64.186 132.917 64.423 133.725 64.8458 135.017C65.268 136.31 65.8836 138.085 66.5962 140.036C67.3054 141.988 67.9569 143.754 68.3908 145.047C68.609 145.692 68.7748 146.219 68.8795 146.586C68.9829 146.954 69.0306 147.16 69.0106 147.166Z"
        fill="#263238" />
</svg>
