<svg width="328" height="328" viewBox="0 0 328 328" fill="none" xmlns="http://www.w3.org/2000/svg">
<path d="M63.2288 266.002V270.936H100.162V266.002H63.2288Z" fill="#E0E0E0"/>
<path d="M68.2601 266.207C68.388 266.207 68.4923 267.242 68.4923 268.518C68.4923 269.794 68.388 270.83 68.2601 270.83C68.1315 270.83 68.0278 269.794 68.0278 268.518C68.0278 267.242 68.1321 266.207 68.2601 266.207Z" fill="#FAFAFA"/>
<path d="M67.4559 266.106C67.5844 266.106 67.6881 267.142 67.6881 268.418C67.6881 269.695 67.5844 270.73 67.4559 270.73C67.3279 270.73 67.2236 269.695 67.2236 268.418C67.2236 267.142 67.3279 266.106 67.4559 266.106Z" fill="#FAFAFA"/>
<path d="M97.3058 266.207C97.4343 266.207 97.538 267.242 97.538 268.518C97.538 269.794 97.4343 270.83 97.3058 270.83C97.1779 270.83 97.0735 269.794 97.0735 268.518C97.0742 267.242 97.1779 266.207 97.3058 266.207Z" fill="#FAFAFA"/>
<path d="M96.5022 266.106C96.6301 266.106 96.7344 267.142 96.7344 268.418C96.7344 269.695 96.6301 270.73 96.5022 270.73C96.3743 270.73 96.27 269.695 96.27 268.418C96.27 267.142 96.3736 266.106 96.5022 266.106Z" fill="#FAFAFA"/>
<path d="M91.678 268.619C91.678 268.748 87.4474 268.851 82.2309 268.851C77.0124 268.851 72.7832 268.747 72.7832 268.619C72.7832 268.491 77.0124 268.387 82.2309 268.387C87.4474 268.387 91.678 268.491 91.678 268.619Z" fill="#FAFAFA"/>
<path d="M63.0687 288.218V298.086H100.002V288.218H63.0687Z" fill="#E0E0E0"/>
<path d="M100.476 295.31C100.479 295.317 100.411 295.356 100.275 295.425C100.14 295.495 99.9337 295.59 99.6595 295.706C99.1105 295.931 98.2819 296.249 97.1556 296.423C96.0482 296.58 94.5624 296.625 93.0923 295.846C92.3707 295.46 91.6845 294.875 91.1624 294.097C90.652 293.322 90.324 292.308 90.4906 291.255C90.5792 290.731 90.7983 290.213 91.1696 289.785C91.5304 289.357 92.1096 289.042 92.7269 289.078C93.3455 289.106 93.9044 289.461 94.2921 289.923C94.6831 290.386 94.9514 290.979 95.0065 291.606C95.1528 292.857 94.626 294.154 93.7332 295.103C92.8548 296.086 91.5415 296.685 90.1843 296.838C88.8178 297 87.4048 296.784 86.0639 296.326C84.7237 295.864 83.3993 295.112 82.4645 293.907C82.0059 293.308 81.6746 292.565 81.6254 291.776C81.5572 290.99 81.8078 290.146 82.412 289.56C82.7124 289.268 83.1323 289.072 83.5672 289.053C84.0028 289.032 84.4233 289.174 84.7749 289.393C85.4873 289.835 85.9426 290.592 86.1341 291.384C86.4811 292.998 85.8429 294.679 84.6778 295.731C83.5095 296.793 81.9797 297.265 80.5194 297.423C79.0493 297.571 77.5707 297.461 76.2088 296.999C74.8522 296.547 73.6321 295.655 72.9295 294.45C72.2151 293.272 71.9809 291.781 72.5188 290.529C72.7714 289.909 73.3421 289.36 74.0257 289.255C74.6915 289.13 75.3724 289.314 75.8861 289.703C76.9285 290.531 77.1023 291.949 76.7658 293.028C76.424 294.138 75.6775 294.989 74.9041 295.65C73.3251 296.983 71.4561 297.56 69.8391 297.617C68.205 297.675 66.8313 297.224 65.8263 296.706C64.8141 296.179 64.1476 295.581 63.7337 295.155C63.5303 294.937 63.3814 294.765 63.2915 294.642C63.199 294.52 63.1551 294.456 63.1617 294.451C63.2089 294.387 63.901 295.528 65.9077 296.544C66.9035 297.028 68.2489 297.438 69.8279 297.358C71.3918 297.278 73.1899 296.695 74.6909 295.4C75.4289 294.758 76.1229 293.937 76.4227 292.926C76.7245 291.948 76.5283 290.682 75.6545 290.01C75.2275 289.688 74.6403 289.537 74.1018 289.644C73.554 289.735 73.1197 290.151 72.8941 290.692C72.4283 291.788 72.6323 293.146 73.2975 294.229C73.9502 295.335 75.0694 296.153 76.3538 296.578C77.6369 297.011 79.0644 297.115 80.4715 296.97C81.8695 296.816 83.3035 296.361 84.3675 295.388C85.4178 294.446 85.9911 292.9 85.6821 291.488C85.5149 290.797 85.1186 290.15 84.5302 289.786C83.9536 289.404 83.1998 289.416 82.7295 289.896C82.2526 290.356 82.0217 291.071 82.0846 291.745C82.1266 292.43 82.412 293.085 82.8285 293.632C83.6754 294.733 84.9323 295.464 86.2082 295.906C87.4986 296.351 88.85 296.559 90.1351 296.412C91.4175 296.27 92.6174 295.728 93.4367 294.823C94.2692 293.95 94.75 292.764 94.626 291.646C94.5362 290.561 93.7083 289.503 92.7105 289.436C92.2185 289.403 91.7475 289.645 91.4287 290.013C91.104 290.379 90.8986 290.844 90.8166 291.309C90.6559 292.262 90.9413 293.201 91.4123 293.936C91.8931 294.673 92.5386 295.241 93.2196 295.619C94.5978 296.38 96.0463 296.374 97.1333 296.244C98.2413 296.101 99.0724 295.814 99.628 295.619C100.182 295.417 100.468 295.293 100.476 295.31Z" fill="#FAFAFA"/>
<path d="M66.3673 271.079V288.2H100.002V271.079H66.3673Z" fill="#EBEBEB"/>
<path d="M71.956 271.667C72.0846 271.667 72.1882 275.377 72.1882 279.953C72.1882 284.53 72.0846 288.24 71.956 288.24C71.8274 288.24 71.7238 284.53 71.7238 279.953C71.7238 275.377 71.8274 271.667 71.956 271.667Z" fill="#E0E0E0"/>
<path d="M74.5052 271.454C74.6337 271.454 74.7374 275.117 74.7374 279.634C74.7374 284.153 74.6331 287.814 74.5052 287.814C74.3773 287.814 74.2729 284.153 74.2729 279.634C74.2729 275.117 74.3773 271.454 74.5052 271.454Z" fill="#E0E0E0"/>
<path d="M96.1997 270.905C96.3283 270.905 96.432 274.762 96.432 279.519C96.432 284.278 96.3283 288.134 96.1997 288.134C96.0718 288.134 95.9675 284.277 95.9675 279.519C95.9675 274.762 96.0718 270.905 96.1997 270.905Z" fill="#E0E0E0"/>
<path d="M93.2032 271.135C93.3311 271.135 93.4354 274.893 93.4354 279.528C93.4354 284.164 93.3311 287.921 93.2032 287.921C93.0753 287.921 92.9709 284.164 92.9709 279.528C92.9709 274.894 93.0746 271.135 93.2032 271.135Z" fill="#E0E0E0"/>
<path d="M274.254 233.704C277.74 231.905 281.846 231.671 285.717 232.311C287.797 232.655 289.965 233.277 291.38 234.839C292.795 236.401 293.063 239.15 291.438 240.492C290.471 241.291 289.122 241.413 287.868 241.398C284.838 241.363 281.475 240.83 279.054 242.653C277.673 243.693 276.754 245.422 275.102 245.934C273.486 246.434 271.663 245.481 270.807 244.023C269.95 242.565 269.922 240.742 270.32 239.098C270.32 239.098 270.742 235.516 274.254 233.704Z" fill="#EBEBEB"/>
<path d="M266.266 218.283C268.398 221.328 272.542 220.32 274.463 218.461C276.385 216.602 277.197 213.909 277.936 211.34C279.625 205.47 281.328 199.313 280.072 193.335C279.697 191.548 279.028 189.766 277.773 188.44C276.517 187.114 274.586 186.326 272.821 186.792C270.731 187.345 269.432 189.391 268.494 191.338C265.736 197.06 264.275 203.403 264.253 209.756C264.243 212.723 264.592 215.833 266.266 218.283Z" fill="#EBEBEB"/>
<path d="M260.411 222.652C262.726 219.905 263.165 215.898 262.135 212.456C261.105 209.014 258.778 206.086 256.096 203.696C252.951 200.894 249.255 198.712 245.281 197.315C243.717 196.765 242.068 196.332 240.417 196.489C238.767 196.647 237.105 197.49 236.336 198.958C235.198 201.129 236.289 203.762 237.469 205.91C239.549 209.694 241.926 213.314 244.572 216.726C246.702 219.471 249.14 222.178 252.385 223.419C255.629 224.659 259 224.514 260.72 222.263" fill="#EBEBEB"/>
<path d="M266.121 264.218C266.161 264.22 266.226 263.727 266.314 262.834C266.412 261.827 266.535 260.563 266.682 259.058C266.857 257.47 267.09 255.578 267.531 253.519C267.971 251.465 268.66 249.239 269.544 246.981C270.46 244.737 271.577 242.698 272.883 241.066C274.179 239.428 275.686 238.242 277.103 237.558C278.515 236.86 279.782 236.577 280.657 236.451C281.54 236.361 282.035 236.291 282.035 236.252C282.035 236.213 281.539 236.206 280.633 236.23C279.734 236.29 278.416 236.518 276.926 237.195C275.433 237.857 273.834 239.061 272.475 240.734C271.104 242.399 269.947 244.484 269.014 246.768C268.114 249.066 267.436 251.314 267.016 253.413C266.596 255.508 266.405 257.42 266.28 259.022C266.159 260.625 266.114 261.924 266.093 262.821C266.072 263.719 266.083 264.216 266.121 264.218Z" fill="#E0E0E0"/>
<path d="M266.382 261.313C266.402 261.312 266.414 261.09 266.419 260.67C266.418 260.188 266.417 259.58 266.415 258.834C266.41 257.241 266.411 254.935 266.497 252.088C266.638 246.393 267.128 240.264 268.075 231.624C268.972 223.499 270.175 214.043 271.446 207.896C271.718 206.498 271.993 205.239 272.251 204.138C272.497 203.033 272.708 202.081 272.91 201.311C273.085 200.586 273.227 199.995 273.339 199.527C273.431 199.117 273.471 198.898 273.452 198.893C273.433 198.887 273.356 199.094 273.229 199.495C273.089 199.957 272.912 200.54 272.695 201.255C272.459 202.018 272.216 202.963 271.94 204.064C271.651 205.16 271.349 206.416 271.051 207.812C269.794 213.383 268.463 221.168 267.507 229.829C266.558 238.488 266.131 246.372 266.093 252.081C266.058 254.935 266.119 257.246 266.192 258.84C266.238 259.586 266.275 260.194 266.304 260.675C266.336 261.094 266.362 261.314 266.382 261.313Z" fill="#E0E0E0"/>
<path d="M266.42 246.106C266.46 246.105 266.453 245.423 266.407 244.188C266.336 242.956 266.167 241.175 265.82 238.992C265.452 236.815 264.937 234.23 264.13 231.421C263.78 230.137 262.957 227.06 260.964 222.463C258.338 216.233 254.771 211.141 251.666 207.986C250.939 207.149 250.128 206.545 249.479 205.953C249.143 205.67 248.847 205.386 248.545 205.163C248.241 204.954 247.959 204.759 247.697 204.578C246.676 203.879 246.104 203.511 246.083 203.544C245.991 203.668 248.371 205.069 251.375 208.266C254.368 211.456 257.835 216.514 260.44 222.69C261.893 226.041 262.906 229.029 263.625 231.566C264.455 234.348 265.006 236.907 265.423 239.062C265.819 241.222 266.048 242.985 266.186 244.207C266.299 245.43 266.381 246.108 266.42 246.106Z" fill="#E0E0E0"/>
<path d="M250.705 270.62L252.229 291.494H279.045L280.569 270.62H250.705Z" fill="#EBEBEB"/>
<path d="M283.768 262.392H248.114V270.62H283.768V262.392Z" fill="#EBEBEB"/>
<path d="M248.114 290.696V292.976H249.79H283.179V290.696H248.114Z" fill="#E0E0E0"/>
<path d="M251.432 296.738L249.79 292.724H281.902L279.987 296.738H251.432Z" fill="#E0E0E0"/>
<path d="M280.071 277.442C280.077 277.447 280.035 277.512 279.946 277.634C279.84 277.775 279.708 277.95 279.545 278.165C279.164 278.653 278.641 279.322 277.983 280.165L277.914 280.254L277.846 280.161C276.864 278.803 275.552 276.988 274.008 274.852H274.229C273.087 276.469 271.816 278.269 270.45 280.203L270.332 280.371L270.199 280.212C268.804 278.553 267.29 276.751 265.718 274.88L265.976 274.877C265.898 274.975 265.814 275.081 265.73 275.187C264.34 276.929 262.995 278.616 261.723 280.21L261.589 280.378L261.466 280.203C260.105 278.279 258.835 276.48 257.685 274.854L257.905 274.865C256.042 276.988 254.462 278.788 253.249 280.169L253.166 280.264L253.103 280.157C252.49 279.126 252 278.304 251.645 277.708C251.493 277.442 251.37 277.227 251.272 277.056C251.189 276.907 251.15 276.827 251.157 276.823C251.165 276.818 251.218 276.889 251.314 277.03C251.422 277.194 251.559 277.401 251.727 277.657C252.1 278.242 252.614 279.049 253.258 280.062L253.112 280.05C254.306 278.652 255.86 276.829 257.694 274.681L257.809 274.545L257.914 274.692C259.073 276.31 260.355 278.1 261.728 280.016L261.472 280.009C262.741 278.412 264.083 276.723 265.469 274.978C265.554 274.872 265.638 274.766 265.716 274.669L265.843 274.509L265.974 274.665C267.542 276.54 269.052 278.345 270.443 280.008L270.193 280.018C271.571 278.094 272.856 276.303 274.009 274.694L274.121 274.538L274.23 274.694C275.742 276.853 277.025 278.687 277.986 280.06L277.85 280.056C278.535 279.236 279.079 278.583 279.475 278.108C279.651 277.904 279.794 277.738 279.91 277.604C280.01 277.493 280.065 277.437 280.071 277.442Z" fill="#F5F5F5"/>
<path d="M280.942 270.482C280.942 270.575 274.223 270.649 265.936 270.649C257.647 270.649 250.928 270.574 250.928 270.482C250.928 270.39 257.647 270.315 265.936 270.315C274.222 270.315 280.942 270.39 280.942 270.482Z" fill="#F5F5F5"/>
<path d="M128.054 53.0331C128.052 53.039 128 53.0226 127.902 52.9858C127.784 52.9393 127.641 52.8835 127.467 52.8153C127.06 52.646 126.508 52.4158 125.812 52.1265C124.349 51.5 122.286 50.617 119.749 49.5307C114.617 47.295 107.578 44.2282 99.8018 40.8406C99.565 40.737 99.3288 40.6333 99.1104 40.5376L99.2541 40.5382C91.609 43.8077 84.7217 46.7525 79.7092 48.8957C77.2328 49.9361 75.2208 50.7817 73.7954 51.3806C73.1177 51.6574 72.5798 51.8765 72.1829 52.0386C71.8129 52.1855 71.6161 52.257 71.6115 52.2452C71.6069 52.2341 71.7939 52.1402 72.1547 51.9723C72.5457 51.7952 73.0738 51.5551 73.7409 51.2527C75.1559 50.6288 77.1521 49.7478 79.6101 48.6634C84.6115 46.4947 91.4837 43.5145 99.1124 40.2063L99.1845 40.1748L99.2567 40.2063C99.4751 40.3021 99.7113 40.4057 99.9481 40.5094C107.708 43.9343 114.732 47.0353 119.853 49.2958C122.371 50.4261 124.418 51.3452 125.87 51.9972C126.555 52.3134 127.098 52.5634 127.499 52.7484C127.667 52.8297 127.804 52.8966 127.919 52.9524C128.01 53.0003 128.057 53.0278 128.054 53.0331Z" fill="#E0E0E0"/>
<path d="M159.171 50.1689H31.0576V146.094H159.171V50.1689Z" fill="#E0E0E0"/>
<path d="M155.173 54.6292H35.5361V142.152H155.173V54.6292Z" fill="#FAFAFA"/>
<path d="M61.9618 92.8687C61.9618 92.8687 62.0864 107.561 62.8336 112.044L81.2613 111.172C81.2613 111.172 79.643 96.7286 80.2655 92.8687H61.9618Z" fill="#E0E0E0"/>
<path d="M71.0382 94.9463C71.0382 94.9443 71.0612 94.9417 71.1058 94.939C71.1576 94.9371 71.2232 94.9345 71.3045 94.9312C71.4797 94.9187 71.7388 94.9312 72.0714 94.9692C72.4014 95.0217 72.8074 95.1109 73.243 95.3176C73.6773 95.5235 74.1267 95.8594 74.5183 96.3265C74.8955 96.8014 75.2412 97.3912 75.4019 98.101C75.5535 98.8114 75.4767 99.6091 75.2084 100.378C75.0779 100.764 74.9001 101.144 74.6908 101.516C74.4829 101.887 74.2743 102.261 74.1004 102.665C73.7527 103.47 73.4766 104.355 73.3552 105.28L73.3473 105.341L73.2876 105.343C72.7058 105.352 72.0911 105.362 71.4679 105.372C70.8139 105.383 70.1697 105.392 69.5596 105.402L69.492 105.403L69.4894 105.334C69.4579 104.407 69.0413 103.563 68.6044 102.816C68.3834 102.438 68.1413 102.084 67.9143 101.726C67.6926 101.374 67.4433 101.038 67.2669 100.671C66.9034 99.9371 66.8411 99.1256 66.9782 98.4263C67.1101 97.7257 67.3423 97.0901 67.6893 96.5902C68.0344 96.0897 68.4739 95.7413 68.8885 95.5104C69.3057 95.2782 69.698 95.1522 70.0201 95.0729C70.3435 94.9948 70.5993 94.964 70.7725 94.9502C70.8591 94.9456 70.9254 94.9417 70.97 94.943C71.0152 94.9417 71.0382 94.9443 71.0382 94.9463C71.0382 94.9489 71.0152 94.9502 70.9713 94.9548C70.9201 94.96 70.8558 94.9666 70.7758 94.9751C70.6046 94.9968 70.3514 95.0355 70.0332 95.1208C69.7164 95.2067 69.3313 95.3379 68.9252 95.5727C68.5211 95.8056 68.0967 96.1513 67.7661 96.642C67.4348 97.1294 67.2111 97.7572 67.0871 98.4441C66.9585 99.1296 67.0241 99.9089 67.3784 100.616C67.5509 100.972 67.7949 101.299 68.0239 101.658C68.2489 102.01 68.4949 102.368 68.7192 102.747C69.162 103.502 69.593 104.359 69.6285 105.331L69.5583 105.264C70.169 105.254 70.8132 105.243 71.4666 105.233C72.0898 105.223 72.7044 105.214 73.2863 105.205L73.2187 105.267C73.3447 104.316 73.6248 103.428 73.9797 102.612C74.1555 102.204 74.372 101.82 74.5793 101.453C74.7866 101.088 74.9631 100.715 75.0923 100.338C75.3586 99.5861 75.4367 98.8121 75.295 98.1239C75.1461 97.4391 74.8102 96.8513 74.4468 96.3855C74.0689 95.925 73.634 95.5918 73.2115 95.3838C72.7878 95.1745 72.3896 95.0794 72.0642 95.0197C71.7362 94.9745 71.479 94.9541 71.3045 94.9581C71.2232 94.9561 71.1583 94.9541 71.1064 94.9528C71.0612 94.9502 71.0382 94.9482 71.0382 94.9463Z" fill="white"/>
<path d="M71.9835 105.182C71.9835 105.182 71.9789 105.162 71.9724 105.124C71.9658 105.083 71.9566 105.026 71.9442 104.953C71.9205 104.801 71.8871 104.58 71.8438 104.295C71.7611 103.723 71.6385 102.896 71.5558 101.865C71.5361 101.607 71.5184 101.337 71.5079 101.055C71.4987 100.773 71.4863 100.479 71.5027 100.174C71.5197 99.8701 71.5696 99.55 71.71 99.2521C71.851 98.9589 72.0859 98.6827 72.4125 98.5482C72.7366 98.4085 73.1492 98.4813 73.4156 98.7391C73.5468 98.8684 73.6347 99.0527 73.6307 99.2436C73.6301 99.4338 73.5566 99.6195 73.4425 99.7717C73.329 99.9265 73.1709 100.045 72.999 100.13C72.8265 100.216 72.6402 100.27 72.4513 100.312C72.0734 100.391 71.6837 100.435 71.2882 100.447C70.8926 100.456 70.501 100.449 70.1179 100.39C69.927 100.359 69.7387 100.31 69.5635 100.23C69.3877 100.152 69.2283 100.039 69.0991 99.9003C68.9705 99.7612 68.8721 99.5919 68.8314 99.4076C68.7888 99.2233 68.817 99.0278 68.897 98.8618C68.9764 98.6965 69.1109 98.5542 69.2821 98.4866C69.4533 98.4171 69.6475 98.4367 69.8063 98.5109C69.967 98.585 70.0995 98.7044 70.1972 98.8434C70.2956 98.9845 70.354 99.1439 70.3927 99.3027C70.4682 99.6228 70.4662 99.9403 70.4859 100.243C70.5174 100.849 70.5469 101.414 70.5738 101.931C70.6256 102.961 70.6676 103.795 70.6971 104.374C70.7102 104.661 70.7207 104.885 70.7279 105.039C70.7306 105.113 70.7325 105.171 70.7345 105.212C70.7358 105.251 70.7352 105.271 70.7352 105.271C70.7352 105.271 70.7319 105.251 70.7293 105.213C70.726 105.171 70.722 105.114 70.7168 105.04C70.707 104.886 70.6932 104.662 70.6755 104.376C70.642 103.797 70.5935 102.963 70.5338 101.933C70.5049 101.417 70.4728 100.852 70.4386 100.246C70.4183 99.9436 70.4183 99.6267 70.3442 99.3151C70.3061 99.161 70.2484 99.0068 70.1553 98.8743C70.0621 98.7418 69.9348 98.6289 69.7846 98.5601C69.6357 98.4912 69.4573 98.4741 69.3018 98.5378C69.1457 98.5994 69.0204 98.7313 68.9462 98.8867C68.8715 99.0422 68.8452 99.2246 68.8852 99.3965C68.9233 99.5696 69.0164 99.7304 69.1398 99.8635C69.3877 100.135 69.7531 100.277 70.127 100.336C70.5036 100.393 70.8946 100.4 71.2862 100.392C71.6785 100.38 72.0655 100.337 72.4388 100.258C72.6244 100.217 72.8068 100.164 72.9734 100.081C73.1401 99.9993 73.2896 99.8865 73.3972 99.7402C73.5054 99.5959 73.5743 99.4214 73.575 99.2456C73.5789 99.0691 73.4989 98.9012 73.3769 98.7805C73.1276 98.5391 72.7379 98.4676 72.4322 98.5994C72.1213 98.726 71.8923 98.9911 71.7552 99.2758C71.6175 99.5644 71.5676 99.878 71.5499 100.178C71.5329 100.48 71.544 100.773 71.5519 101.055C71.5611 101.336 71.5775 101.607 71.5958 101.864C71.6732 102.893 71.79 103.721 71.8654 104.294C71.9041 104.579 71.9343 104.8 71.9553 104.953C71.9652 105.027 71.9724 105.084 71.9776 105.125C71.9822 105.161 71.9835 105.182 71.9835 105.182Z" fill="white"/>
<path d="M69.5576 105.279C69.5668 105.287 69.5819 105.508 69.6055 105.892C69.6285 106.336 69.656 106.868 69.6875 107.488L69.6724 107.45C70.0431 107.877 70.4609 108.359 70.9129 108.879L70.8493 108.851C71.3006 108.826 71.7828 108.799 72.2833 108.771L72.223 108.801C72.4532 108.519 72.6927 108.228 72.9373 107.929C73.058 107.782 73.1781 107.636 73.2955 107.493L73.2765 107.549C73.2575 106.708 73.2391 105.912 73.222 105.186L73.3001 105.26C72.2551 105.272 71.3492 105.282 70.621 105.29C70.3304 105.29 70.0752 105.289 69.8469 105.289C69.6639 105.287 69.5635 105.285 69.5576 105.279C69.5517 105.273 69.6409 105.265 69.8128 105.255C70.0359 105.243 70.2851 105.23 70.5685 105.215C71.3098 105.186 72.2321 105.15 73.2955 105.108L73.3716 105.105L73.3742 105.182C73.3959 105.908 73.4202 106.704 73.4451 107.544L73.4464 107.575L73.4261 107.6C73.3086 107.744 73.1892 107.89 73.0685 108.037C72.8232 108.334 72.5831 108.626 72.3522 108.907L72.3286 108.936L72.2918 108.938C71.7913 108.962 71.3092 108.986 70.8572 109.008L70.8178 109.01L70.7929 108.981C70.3494 108.453 69.9394 107.964 69.576 107.531L69.5609 107.513V107.492C69.555 106.856 69.5498 106.31 69.5452 105.854C69.5458 105.474 69.5484 105.27 69.5576 105.279Z" fill="white"/>
<path d="M73.2588 107.355C73.2568 107.358 73.2089 107.336 73.123 107.297C73.037 107.257 72.9104 107.204 72.751 107.149C72.4329 107.039 71.971 106.936 71.4561 106.952C70.9411 106.967 70.4859 107.098 70.1749 107.228C70.0188 107.292 69.8961 107.353 69.8121 107.398C69.7282 107.442 69.6823 107.467 69.6796 107.463C69.6777 107.46 69.7203 107.429 69.801 107.378C69.8817 107.328 70.003 107.261 70.1585 107.191C70.4688 107.05 70.93 106.91 71.4535 106.895C71.9769 106.878 72.446 106.99 72.7641 107.111C72.9235 107.172 73.0488 107.231 73.1328 107.276C73.2168 107.322 73.2607 107.351 73.2588 107.355Z" fill="white"/>
<path d="M73.2588 106.781C73.2568 106.784 73.2089 106.762 73.123 106.723C73.037 106.683 72.9104 106.63 72.751 106.575C72.4329 106.465 71.971 106.362 71.4554 106.378C70.9405 106.394 70.4852 106.524 70.1743 106.654C70.0181 106.718 69.8955 106.779 69.8121 106.824C69.7282 106.868 69.6823 106.893 69.6796 106.889C69.6777 106.886 69.7196 106.855 69.801 106.804C69.8817 106.754 70.003 106.687 70.1585 106.617C70.4688 106.476 70.93 106.336 71.4535 106.321C71.9769 106.304 72.446 106.416 72.7641 106.537C72.9242 106.598 73.0488 106.657 73.1328 106.702C73.2161 106.748 73.2601 106.777 73.2588 106.781Z" fill="white"/>
<path d="M73.2246 106.235C73.2227 106.239 73.1748 106.216 73.0889 106.177C73.0023 106.138 72.8763 106.085 72.7169 106.03C72.3987 105.919 71.9369 105.816 71.422 105.832C70.907 105.848 70.4517 105.978 70.1408 106.108C69.9847 106.172 69.862 106.233 69.778 106.277C69.6941 106.321 69.6481 106.347 69.6455 106.343C69.6435 106.34 69.6862 106.308 69.7669 106.258C69.8476 106.207 69.9689 106.14 70.1244 106.07C70.4347 105.93 70.8958 105.79 71.4193 105.774C71.9435 105.758 72.4119 105.869 72.73 105.991C72.8901 106.051 73.0147 106.111 73.0987 106.156C73.182 106.203 73.226 106.232 73.2246 106.235Z" fill="white"/>
<path d="M41.4381 68.8491C41.4381 68.8491 41.5628 83.5416 42.3099 88.024L60.7376 87.1522C60.7376 87.1522 59.1186 72.709 59.7412 68.8491H41.4381Z" fill="#EBEBEB"/>
<path d="M56.9644 75.0208C56.9703 75.1205 54.2065 75.3678 50.7927 75.5732C47.3776 75.7785 44.6047 75.8644 44.5988 75.7647C44.5929 75.665 47.3559 75.4177 50.7711 75.2124C54.1849 75.007 56.9578 74.9211 56.9644 75.0208Z" fill="white"/>
<path d="M56.9689 78.1329C56.9748 78.2326 54.2111 78.4799 50.7972 78.6852C47.3814 78.8905 44.6092 78.9765 44.6033 78.8768C44.5974 78.777 47.3605 78.5297 50.7756 78.3244C54.1894 78.1191 56.963 78.0331 56.9689 78.1329Z" fill="white"/>
<path d="M53.8365 81.1884C53.8424 81.2881 52.2699 81.4639 50.3249 81.5807C48.3792 81.6974 46.7969 81.7119 46.791 81.6122C46.7851 81.5125 48.3569 81.3373 50.3033 81.2199C52.2483 81.1025 53.8306 81.0887 53.8365 81.1884Z" fill="white"/>
<path d="M40.5657 112.076C40.5657 112.076 40.6903 126.768 41.4375 131.25L59.8652 130.379C59.8652 130.379 58.2462 115.935 58.8694 112.075H40.5657V112.076Z" fill="#EBEBEB"/>
<path d="M56.0919 118.247C56.0978 118.346 53.3341 118.594 49.9203 118.799C46.5051 119.004 43.7322 119.09 43.7263 118.99C43.7204 118.891 46.4835 118.643 49.8986 118.438C53.3125 118.233 56.086 118.148 56.0919 118.247Z" fill="white"/>
<path d="M56.0964 121.359C56.1023 121.458 53.3386 121.706 49.9248 121.911C46.5097 122.116 43.7367 122.202 43.7308 122.103C43.7249 122.003 46.488 121.756 49.9031 121.55C53.3176 121.345 56.0905 121.26 56.0964 121.359Z" fill="white"/>
<path d="M52.964 124.414C52.9699 124.514 51.3975 124.69 49.4525 124.807C47.5068 124.923 45.9245 124.938 45.9186 124.838C45.9127 124.738 47.4845 124.563 49.4308 124.446C51.3765 124.329 52.9581 124.315 52.964 124.414Z" fill="white"/>
<path d="M90.9255 72.7439L92.7511 115.121L145.653 115.759L143.278 73.3035L90.9255 72.7439Z" fill="#EBEBEB"/>
<path d="M142.863 72.4402H90.3128V112.121H142.863V72.4402Z" fill="#F5F5F5"/>
<path d="M142.863 112.121C142.863 112.121 142.853 111.865 142.847 111.385C142.843 110.894 142.837 110.187 142.83 109.267C142.82 107.407 142.808 104.696 142.791 101.238C142.773 94.3191 142.746 84.4181 142.714 72.4402L142.862 72.5884C128.007 72.5976 109.873 72.6088 90.3167 72.6206H90.3122L90.4925 72.4402C90.486 86.7114 90.4801 100.224 90.4748 112.12L90.3122 111.958C105.861 111.991 118.977 112.019 128.218 112.039C132.839 112.057 136.489 112.072 138.999 112.082C140.243 112.091 141.202 112.097 141.864 112.102C142.183 112.106 142.427 112.109 142.605 112.111C142.773 112.114 142.863 112.121 142.863 112.121C142.863 112.121 142.786 112.128 142.624 112.13C142.451 112.132 142.212 112.135 141.901 112.139C141.247 112.144 140.299 112.15 139.068 112.159C136.567 112.169 132.93 112.184 128.325 112.202C119.058 112.222 105.905 112.25 90.3135 112.284L90.1508 112.284V112.121C90.1455 100.224 90.1396 86.7114 90.1331 72.4408V72.2598H90.3141H90.3187C109.875 72.2716 128.009 72.2827 142.864 72.2919H143.013L143.013 72.4402C142.98 84.4568 142.954 94.3899 142.935 101.331C142.919 104.775 142.906 107.475 142.897 109.327C142.89 110.234 142.884 110.932 142.88 111.416C142.874 111.887 142.863 112.121 142.863 112.121Z" fill="#E0E0E0"/>
<path d="M117.955 80.8462H96.6524V107.656H117.955V80.8462Z" fill="#F5F5F5"/>
<path d="M117.955 107.656C117.951 107.653 117.948 107.608 117.945 107.521C117.943 107.419 117.94 107.295 117.936 107.14C117.932 106.787 117.925 106.298 117.917 105.674C117.907 104.378 117.892 102.52 117.874 100.173C117.854 95.454 117.826 88.7759 117.793 80.8468L117.955 81.0089C111.607 81.0141 104.342 81.0207 96.655 81.0279C96.6124 81.0659 96.9948 80.6887 96.8334 80.8521V80.8593V80.8737V80.9026V80.961V81.0771V81.3093V81.7731V82.6974C96.8334 83.3121 96.8334 83.9241 96.8328 84.5329C96.8321 85.7504 96.8315 86.9555 96.8315 88.1455C96.8295 90.5261 96.8275 92.8497 96.8256 95.1024C96.8177 99.6052 96.8098 103.825 96.8026 107.656L96.6524 107.506C103.044 107.538 108.347 107.565 112.076 107.583C113.926 107.6 115.384 107.613 116.404 107.622C116.891 107.629 117.271 107.635 117.551 107.639C117.812 107.645 117.955 107.656 117.955 107.656C117.96 107.661 117.834 107.667 117.583 107.673C117.31 107.677 116.939 107.682 116.464 107.69C115.453 107.699 114.006 107.712 112.171 107.728C108.418 107.747 103.083 107.774 96.653 107.806L96.5035 107.806V107.656C96.4963 103.825 96.489 99.6045 96.4812 95.1017C96.4792 92.849 96.4772 90.5261 96.4753 88.1448C96.4746 86.9542 96.474 85.7498 96.474 84.5322C96.474 83.9235 96.474 83.3114 96.4733 82.6967V81.7724V81.3087V81.0764V80.9603V80.9019V80.8731V80.8586V80.8514C96.3126 81.0108 96.6917 80.6258 96.6563 80.6658C104.343 80.6723 111.609 80.6789 117.957 80.6848H118.119L118.119 80.8468C118.085 88.8199 118.058 95.5334 118.038 100.278C118.02 102.609 118.005 104.455 117.995 105.742C117.987 106.353 117.981 106.831 117.976 107.176C117.972 107.324 117.97 107.443 117.967 107.539C117.961 107.62 117.958 107.66 117.955 107.656Z" fill="#E0E0E0"/>
<path d="M138.294 74.7119H97.4684V78.5751H138.294V74.7119Z" fill="#F5F5F5"/>
<path d="M138.293 78.5745C138.289 78.5699 138.284 78.4801 138.279 78.3101C138.274 78.1219 138.269 77.8746 138.262 77.561C138.252 76.8899 138.238 75.9361 138.22 74.712L138.293 74.7848C131.409 74.8484 115.715 74.8924 97.4704 74.8924H97.4684C97.8292 74.5316 97.5682 74.7927 97.6488 74.7126V74.714V74.7179V74.7258V74.7415V74.7723V74.834V74.958V75.206V75.6999C97.6488 76.0279 97.6488 76.3546 97.6488 76.678C97.6488 77.3248 97.6482 77.9598 97.6482 78.5752L97.4684 78.3954C108.885 78.4256 119.059 78.4525 126.407 78.4722C130.069 78.4945 133.026 78.5129 135.092 78.526C136.102 78.5365 136.893 78.545 137.456 78.5509C137.712 78.5561 137.917 78.5601 138.075 78.5634C138.215 78.5666 138.289 78.5706 138.293 78.5745C138.297 78.5785 138.232 78.583 138.098 78.587C137.946 78.5903 137.749 78.5942 137.502 78.5994C136.949 78.6053 136.172 78.6139 135.18 78.6244C133.123 78.6368 130.181 78.6552 126.536 78.6775C119.156 78.6972 108.937 78.7241 97.4678 78.7543L97.288 78.7549V78.5745C97.288 77.9592 97.288 77.3242 97.2874 76.6774C97.2874 76.354 97.2874 76.0273 97.2874 75.6993V75.2053V74.9573V74.8333V74.7717V74.7408V74.7251V74.7172V74.7133V74.712C97.3681 74.6313 97.107 74.8917 97.4684 74.5303H97.4704C115.715 74.5303 131.409 74.5742 138.293 74.6379L138.367 74.6385L138.366 74.7113C138.348 75.9538 138.334 76.9214 138.325 77.603C138.318 77.91 138.312 78.1521 138.308 78.3357C138.302 78.4991 138.298 78.5791 138.293 78.5745Z" fill="#E0E0E0"/>
<path d="M138.293 80.8462H120.563V97.0041H138.293V80.8462Z" fill="#F5F5F5"/>
<path d="M138.293 97.0048C138.287 96.9989 138.282 96.8927 138.276 96.6926C138.272 96.4689 138.266 96.1789 138.259 95.8155C138.249 95.0257 138.236 93.9184 138.219 92.5217C138.199 89.6786 138.172 85.6652 138.14 80.8469L138.293 81.0004C133.173 81.0083 127.084 81.0175 120.564 81.0273C120.523 81.066 120.905 80.6862 120.743 80.8495V80.8541V80.8626V80.8797V80.9138V80.9827V81.1205V81.3953V81.9437C120.743 82.3085 120.743 82.6726 120.743 83.034C120.743 83.7576 120.743 84.4752 120.742 85.1857C120.741 86.6059 120.739 87.998 120.737 89.3539C120.732 92.0645 120.726 94.6321 120.721 97.0035L120.562 96.8448C125.821 96.8776 130.226 96.9051 133.352 96.9248C134.89 96.9425 136.111 96.957 136.98 96.9668C137.383 96.9747 137.703 96.9806 137.948 96.9852C138.17 96.9924 138.287 96.9983 138.293 97.0048C138.299 97.0107 138.194 97.0166 137.984 97.0225C137.746 97.0271 137.437 97.033 137.046 97.0409C136.186 97.0508 134.977 97.0652 133.453 97.0829C130.304 97.1026 125.862 97.1301 120.562 97.1629L120.404 97.1642L120.404 97.0048C120.398 94.6334 120.393 92.0658 120.387 89.3552C120.386 87.9993 120.384 86.6072 120.383 85.187C120.383 84.4766 120.382 83.7589 120.381 83.0353C120.381 82.6732 120.381 82.3098 120.381 81.9451V81.3966V81.1218V80.984V80.9151V80.881V80.864V80.8554V80.8508C120.22 81.0109 120.601 80.6278 120.564 80.6672C127.082 80.677 133.171 80.6862 138.293 80.6941H138.447L138.446 80.8476C138.413 85.7059 138.386 89.7534 138.367 92.6201C138.35 94.0017 138.337 95.0978 138.327 95.8791C138.32 96.2301 138.314 96.5102 138.31 96.7267C138.305 96.9156 138.299 97.0101 138.293 97.0048Z" fill="#E0E0E0"/>
<path d="M138.293 99.5376H120.563V107.656H138.293V99.5376Z" fill="#F5F5F5"/>
<path d="M138.293 107.656C138.284 107.647 138.275 107.444 138.265 107.068C138.257 106.66 138.246 106.117 138.232 105.438C138.215 104.005 138.191 101.999 138.161 99.5375L138.293 99.6687C133.669 99.6818 127.43 99.6989 120.564 99.7179C120.402 99.8793 120.782 99.4981 120.743 99.5381V99.5401V99.544V99.5526V99.569V99.6024V99.6693V99.8032V100.069V100.601C120.743 100.954 120.742 101.305 120.742 101.654C120.741 102.352 120.741 103.042 120.74 103.721C120.737 105.079 120.735 106.395 120.733 107.655L120.562 107.484C125.675 107.516 130.075 107.545 133.241 107.566C134.791 107.585 136.037 107.602 136.935 107.613C137.345 107.621 137.675 107.629 137.933 107.634C138.164 107.642 138.287 107.649 138.293 107.656C138.301 107.663 138.192 107.67 137.975 107.677C137.726 107.682 137.408 107.69 137.013 107.699C136.123 107.711 134.891 107.726 133.357 107.746C130.163 107.766 125.723 107.795 120.562 107.828L120.391 107.829V107.657C120.389 106.397 120.386 105.081 120.385 103.723C120.384 103.044 120.383 102.354 120.383 101.656C120.383 101.307 120.382 100.956 120.382 100.603V100.071V99.8051V99.6713V99.6044V99.5709V99.5545V99.546V99.5421V99.5401C120.343 99.5782 120.724 99.197 120.564 99.3584C127.43 99.3774 133.669 99.3951 138.293 99.4076L138.425 99.4083L138.424 99.5395C138.394 102.034 138.371 104.067 138.354 105.519C138.34 106.186 138.329 106.719 138.321 107.12C138.312 107.48 138.303 107.665 138.293 107.656Z" fill="#E0E0E0"/>
<path d="M117.428 80.8928C110.834 90.002 103.246 98.5471 96.6523 107.656L117.428 80.8928Z" fill="white"/>
<path d="M96.6524 107.656C96.6425 107.649 96.7022 107.546 96.8262 107.357C96.9771 107.136 97.1608 106.866 97.3825 106.54C97.8699 105.834 98.5987 104.83 99.5151 103.6C101.345 101.138 103.965 97.8058 106.898 94.1617C109.833 90.5163 112.481 87.2134 114.361 84.7941C115.274 83.6159 116.025 82.6463 116.584 81.9247C116.828 81.6151 117.029 81.3592 117.194 81.1487C117.337 80.9735 117.417 80.8849 117.427 80.8928C117.437 80.9 117.377 81.003 117.253 81.192C117.102 81.413 116.919 81.6826 116.697 82.008C116.21 82.7139 115.481 83.7189 114.564 84.9489C112.734 87.4108 110.114 90.7433 107.18 94.3881C104.247 98.0315 101.599 101.334 99.7185 103.754C98.806 104.933 98.0549 105.902 97.496 106.624C97.2519 106.933 97.0505 107.189 96.8852 107.4C96.7422 107.575 96.6622 107.664 96.6524 107.656Z" fill="#E0E0E0"/>
<path d="M117.955 107.656C117.877 107.719 113.044 101.767 107.162 94.3644C101.278 86.9595 96.5737 80.9085 96.6517 80.8462C96.7298 80.7839 101.561 86.7344 107.445 94.1394C113.327 101.542 118.033 107.594 117.955 107.656Z" fill="#E0E0E0"/>
<path d="M92.7511 80.9033C92.7511 82.744 91.2587 84.2358 89.4187 84.2358C87.5779 84.2358 86.0862 82.744 86.0862 80.9033C86.0862 79.0625 87.5779 77.5708 89.4187 77.5708C91.2594 77.5708 92.7511 79.0632 92.7511 80.9033Z" fill="#E0E0E0"/>
<path d="M147.256 72.8142C147.256 74.6549 145.764 76.1467 143.924 76.1467C142.083 76.1467 140.591 74.6549 140.591 72.8142C140.591 70.9734 142.084 69.4817 143.924 69.4817C145.764 69.4817 147.256 70.9734 147.256 72.8142Z" fill="#E0E0E0"/>
<path d="M277.62 96.0266H239.216V151.692H277.62V96.0266Z" fill="#E0E0E0"/>
<path d="M275.696 96.0266H237.292V151.692H275.696V96.0266Z" fill="#F5F5F5"/>
<path d="M270.925 102.055H242.063V145.663H270.925V102.055Z" fill="white"/>
<path d="M270.925 145.663C270.925 145.663 270.921 145.589 270.919 145.45C270.917 145.306 270.915 145.1 270.914 144.831C270.911 144.283 270.907 143.481 270.902 142.439C270.896 140.349 270.887 137.303 270.876 133.457C270.864 125.767 270.849 114.878 270.829 102.055L270.925 102.151C262.107 102.154 252.336 102.156 242.067 102.16H242.063L242.168 102.055C242.16 118.506 242.153 133.674 242.147 145.663L242.063 145.58C250.852 145.598 258.057 145.613 263.07 145.623C265.578 145.633 267.536 145.64 268.874 145.644C269.539 145.648 270.048 145.652 270.397 145.654C270.743 145.657 270.925 145.663 270.925 145.663C270.925 145.663 270.755 145.669 270.416 145.672C270.07 145.674 269.565 145.677 268.907 145.681C267.574 145.686 265.622 145.693 263.122 145.702C258.097 145.713 250.874 145.728 242.063 145.746H241.98V145.663C241.974 133.673 241.967 118.506 241.959 102.055V101.951H242.063H242.067C252.336 101.954 262.107 101.957 270.925 101.959H271.02V102.055C271.001 114.904 270.985 125.814 270.973 133.52C270.962 137.358 270.954 140.396 270.948 142.481C270.942 143.514 270.938 144.31 270.936 144.854C270.933 145.118 270.931 145.32 270.93 145.461C270.929 145.597 270.925 145.663 270.925 145.663Z" fill="#E0E0E0"/>
<path d="M275.804 96.0266C275.826 96.0443 275.566 96.4248 275.12 97.0211C274.674 97.6174 274.041 98.4288 273.318 99.3066C272.595 100.184 271.919 100.961 271.419 101.513C270.919 102.066 270.596 102.394 270.574 102.375C270.552 102.356 270.836 101.993 271.307 101.417C271.822 100.792 272.456 100.024 273.156 99.1734C273.856 98.3232 274.489 97.5544 275.004 96.9292C275.479 96.3565 275.781 96.0082 275.804 96.0266Z" fill="#E0E0E0"/>
<path d="M271.072 145.522C272.506 147.802 274.198 149.918 276.106 151.818L271.072 145.522Z" fill="white"/>
<path d="M276.106 151.818C276.087 151.837 275.744 151.54 275.228 151.02C274.712 150.499 274.028 149.752 273.329 148.878C272.63 148.003 272.051 147.172 271.657 146.554C271.263 145.936 271.049 145.536 271.072 145.522C271.098 145.505 271.356 145.877 271.779 146.471C272.203 147.065 272.798 147.878 273.492 148.747C274.186 149.615 274.848 150.374 275.335 150.918C275.822 151.462 276.127 151.796 276.106 151.818Z" fill="#E0E0E0"/>
<path d="M237.286 151.648C238.963 149.579 240.64 147.511 242.317 145.442L237.286 151.648Z" fill="white"/>
<path d="M242.317 145.441C242.361 145.477 241.271 146.896 239.883 148.61C238.493 150.324 237.331 151.684 237.286 151.648C237.242 151.612 238.331 150.193 239.721 148.479C241.109 146.765 242.272 145.405 242.317 145.441Z" fill="#E0E0E0"/>
<path d="M237.292 96.0266C237.337 95.9905 238.431 97.2979 239.734 98.9451C241.037 100.594 242.057 101.958 242.011 101.994C241.966 102.03 240.873 100.723 239.57 99.0744C238.266 97.4272 237.247 96.062 237.292 96.0266Z" fill="#E0E0E0"/>
<path d="M261.933 110.909H252.269V138.348H261.933V110.909Z" fill="#E0E0E0"/>
<path d="M268.771 36.8795L263.274 36.9092L263.422 64.2644L268.919 64.2347L268.771 36.8795Z" fill="#E0E0E0"/>
<path d="M229.885 36.9512L215.648 37.0281L215.73 52.1299L229.966 52.053L229.885 36.9512Z" fill="#EBEBEB"/>
<path d="M244.054 36.875L229.817 36.9519L229.899 52.0537L244.135 51.9768L244.054 36.875Z" fill="#F5F5F5"/>
<path d="M215.665 41.2079C225.126 41.2859 234.61 41.2308 244.07 41.0773C244.265 41.0747 244.264 40.7762 244.068 40.7749C234.607 40.7224 225.123 40.769 215.663 40.9487C215.497 40.952 215.499 41.2065 215.665 41.2079Z" fill="#E0E0E0"/>
<path d="M232.638 51.8025L206.772 51.9421L206.839 64.2487L232.704 64.109L232.638 51.8025Z" fill="#EBEBEB"/>
<path d="M258.381 51.6623L232.516 51.802L232.582 64.1086L258.447 63.9689L258.381 51.6623Z" fill="#F5F5F5"/>
<path d="M206.786 55.3723C223.968 55.5671 241.211 55.3926 258.393 55.1178C258.588 55.1145 258.587 54.816 258.392 54.8154C241.208 54.7248 223.964 54.7347 206.785 55.1132C206.618 55.1165 206.618 55.3703 206.786 55.3723Z" fill="#E0E0E0"/>
<path d="M297.321 64.2566H197.113V68.6656H297.321V64.2566Z" fill="#E0E0E0"/>
<path d="M217.587 66.3762H213.519V81.4209H217.587V66.3762Z" fill="#E0E0E0"/>
<path d="M278.313 66.3762H274.245V81.4209H278.313V66.3762Z" fill="#E0E0E0"/>
<path d="M274.136 26.6783L268.638 26.708L268.842 64.3309L274.339 64.3012L274.136 26.6783Z" fill="#EBEBEB"/>
<path d="M282.726 33.6819L274.184 33.728L274.349 64.2169L282.891 64.1708L282.726 33.6819Z" fill="#F5F5F5"/>
<path d="M282.663 39.5667C282.663 39.6487 280.751 39.715 278.393 39.715C276.033 39.715 274.121 39.6487 274.121 39.5667C274.121 39.4847 276.034 39.4185 278.393 39.4185C280.751 39.4185 282.663 39.4847 282.663 39.5667Z" fill="#E0E0E0"/>
<path d="M282.663 38.2857C282.663 38.3677 280.751 38.434 278.393 38.434C276.033 38.434 274.121 38.3677 274.121 38.2857C274.121 38.2037 276.034 38.1375 278.393 38.1375C280.751 38.1381 282.663 38.2044 282.663 38.2857Z" fill="#E0E0E0"/>
<path d="M282.663 59.5945C282.663 59.6765 280.751 59.7428 278.393 59.7428C276.033 59.7428 274.121 59.6765 274.121 59.5945C274.121 59.5125 276.034 59.4463 278.393 59.4463C280.751 59.4463 282.663 59.5125 282.663 59.5945Z" fill="#E0E0E0"/>
<path d="M282.663 58.3133C282.663 58.3953 280.751 58.4615 278.393 58.4615C276.033 58.4615 274.121 58.3953 274.121 58.3133C274.121 58.2313 276.034 58.165 278.393 58.165C280.751 58.1657 282.663 58.2319 282.663 58.3133Z" fill="#E0E0E0"/>
<path d="M278.53 55.5187C278.448 55.5187 278.381 52.4427 278.381 48.6491C278.381 44.8541 278.448 41.7788 278.53 41.7788C278.612 41.7788 278.678 44.8541 278.678 48.6491C278.678 52.4427 278.612 55.5187 278.53 55.5187Z" fill="#E0E0E0"/>
<path d="M292.054 41.1799H282.756V64.1931H292.054V41.1799Z" fill="#EBEBEB"/>
<path d="M287.667 58.2247C286.444 58.2247 285.59 57.3542 285.59 56.155C285.59 55.5043 285.841 54.9401 286.342 54.6023L286.553 54.8929C286.138 55.1907 285.942 55.6453 285.942 56.155C285.942 57.12 286.632 57.8252 287.667 57.8252C288.702 57.8252 289.392 57.1194 289.392 56.155C289.392 55.6453 289.196 55.1907 288.78 54.8929L288.992 54.6023C289.486 54.9395 289.745 55.5043 289.745 56.155C289.745 57.3542 288.883 58.2247 287.667 58.2247Z" fill="#FAFAFA"/>
<path d="M289.22 54.0309L288.906 53.8505C289.173 53.5369 289.4 52.9799 289.4 52.3764C289.4 51.5138 289.095 51.1694 288.631 51.1694C287.439 51.1694 288.318 53.8819 286.711 53.8819C286.091 53.8819 285.59 53.3644 285.59 52.3292C285.59 51.8116 285.746 51.2474 285.989 50.926L286.303 51.1064C286.051 51.4508 285.934 51.8982 285.934 52.3371C285.934 53.1367 286.263 53.4903 286.702 53.4903C287.933 53.4903 287.063 50.7771 288.623 50.7771C289.289 50.7771 289.744 51.3491 289.744 52.3922C289.745 53.0665 289.518 53.7094 289.22 54.0309Z" fill="#FAFAFA"/>
<path d="M289.22 50.2838L288.906 50.1034C289.173 49.7898 289.4 49.2329 289.4 48.6287C289.4 47.7667 289.095 47.4217 288.631 47.4217C287.439 47.4217 288.318 50.1342 286.711 50.1342C286.091 50.1342 285.59 49.6166 285.59 48.5821C285.59 48.0639 285.746 47.4997 285.989 47.1783L286.303 47.3587C286.051 47.7037 285.934 48.1511 285.934 48.59C285.934 49.389 286.263 49.7426 286.702 49.7426C287.933 49.7426 287.063 47.03 288.623 47.03C289.289 47.03 289.744 47.6021 289.744 48.6451C289.745 49.3195 289.518 49.9623 289.22 50.2838Z" fill="#FAFAFA"/>
<path d="M271.301 34.6933C272.174 34.6933 272.881 33.9858 272.881 33.113C272.881 32.2402 272.174 31.5327 271.301 31.5327C270.428 31.5327 269.721 32.2402 269.721 33.113C269.721 33.9858 270.428 34.6933 271.301 34.6933Z" fill="#E0E0E0"/>
<path d="M271.79 37.4583H270.813V59.8397H271.79V37.4583Z" fill="#E0E0E0"/>
<path d="M308.849 297.837C308.849 297.932 245.487 298.008 167.344 298.008C89.1747 298.008 25.826 297.931 25.826 297.837C25.826 297.743 89.174 297.667 167.344 297.667C245.487 297.667 308.849 297.743 308.849 297.837Z" fill="#263238"/>
<path d="M102.454 72.3162C91.9266 88.8749 92.6161 111.833 104.118 127.73C111.785 138.327 123.287 145.431 132.421 154.795C141.554 164.159 148.491 177.959 143.671 190.119C138.764 202.499 124.392 207.535 113.629 215.376C101.906 223.917 93.6716 237.11 91.1492 251.394C88.6269 265.677 91.8439 280.892 99.9324 292.932H211.731C211.731 292.932 231.369 255.504 206.12 226.981C180.87 198.458 167.31 197.991 168.245 179.287C169.18 160.584 182.273 154.505 189.754 147.492C197.235 140.479 233.707 124.113 212.198 72.3168L102.454 72.3162Z" fill="#FAFAFA"/>
<path d="M102.454 72.3162C102.454 72.3162 103.103 72.3057 104.379 72.3004C105.659 72.2972 107.557 72.2919 110.046 72.2854C115.036 72.2781 122.389 72.2676 131.862 72.2539C150.826 72.2401 178.269 72.2198 212.198 72.1948H212.28L212.31 72.2696C213.838 76.1492 215.381 80.1423 216.475 84.3754C217.601 88.5896 218.524 92.9802 218.851 97.5302C219.193 102.071 219.046 106.76 218.142 111.417C217.208 116.061 215.545 120.661 213.088 124.916C211.867 127.048 210.43 129.072 208.878 131.026C207.307 132.967 205.568 134.793 203.728 136.535C201.885 138.276 199.921 139.915 197.882 141.484C195.848 143.057 193.725 144.545 191.651 146.116C190.613 146.899 189.664 147.777 188.675 148.658C187.68 149.521 186.656 150.354 185.623 151.179C183.557 152.832 181.471 154.483 179.501 156.292C175.525 159.85 172.166 164.291 170.319 169.461C169.422 172.041 168.78 174.745 168.57 177.512C168.515 178.202 168.422 178.893 168.397 179.587C168.383 180.281 168.343 180.978 168.376 181.674C168.385 183.068 168.542 184.46 168.795 185.834C169.321 188.58 170.474 191.211 172.151 193.492C173.803 195.794 175.841 197.82 177.949 199.77C182.194 203.651 186.696 207.355 191.008 211.355C195.342 215.332 199.549 219.531 203.603 223.944C205.614 226.158 207.659 228.386 209.417 230.857C211.235 233.282 212.762 235.93 214.103 238.672C216.748 244.18 218.382 250.222 218.918 256.4C219.494 262.579 219.053 268.875 217.829 275.037C217.223 278.121 216.418 281.175 215.43 284.18C214.442 287.185 213.301 290.148 211.881 293.01L211.836 293.102H211.73C210.823 293.102 209.837 293.102 208.851 293.102C170.688 293.1 133.865 293.097 99.9324 293.094H99.8452L99.7973 293.022C94.4706 285.025 91.308 275.839 90.4355 266.633C89.5086 257.425 90.9255 248.191 94.3033 239.996C97.6371 231.771 102.819 224.557 109.082 218.887C112.204 216.029 115.684 213.691 119.171 211.528C122.661 209.361 126.182 207.357 129.509 205.164C132.823 202.966 136.016 200.626 138.609 197.762C141.211 194.922 143.199 191.586 144.24 188C145.286 184.411 145.295 180.648 144.684 177.104C144.064 173.548 142.813 170.185 141.229 167.088C139.641 163.986 137.715 161.139 135.602 158.54C133.494 155.933 131.151 153.62 128.792 151.436C124.059 147.079 119.217 143.268 114.857 139.353C112.674 137.399 110.605 135.427 108.701 133.401C106.81 131.363 105.081 129.274 103.597 127.11C100.603 122.792 98.5496 118.243 97.2002 113.851C95.8488 109.455 95.1771 105.205 95.0229 101.294C94.9311 100.318 94.9671 99.3604 94.9685 98.4256C94.9809 97.4908 94.9527 96.577 95.0498 95.6908C95.118 94.8032 95.1849 93.9379 95.2499 93.095C95.3509 92.2566 95.4893 91.4445 95.6022 90.6533C96.5862 84.3203 98.4971 79.6929 99.9869 76.7311C100.344 75.9786 100.658 75.3167 100.998 74.7808C101.318 74.237 101.586 73.7804 101.801 73.4124C102.232 72.6822 102.454 72.3162 102.454 72.3162C102.408 72.3969 102.226 72.719 101.82 73.4353C101.609 73.804 101.347 74.2612 101.034 74.8064C100.701 75.3397 100.39 76.0029 100.038 76.7566C98.5666 79.7231 96.676 84.3492 95.7111 90.6711C95.6008 91.4609 95.4644 92.271 95.366 93.1081C95.3037 93.9491 95.2387 94.8124 95.1731 95.698C95.0787 96.5823 95.1088 97.4941 95.0983 98.4263C95.099 99.3585 95.0649 100.314 95.1587 101.287C95.3207 105.187 95.9984 109.424 97.353 113.804C98.705 118.179 100.758 122.709 103.747 127.005C105.229 129.159 106.954 131.239 108.842 133.268C110.743 135.286 112.811 137.252 114.994 139.199C119.352 143.104 124.199 146.909 128.945 151.269C131.31 153.454 133.664 155.774 135.784 158.391C137.909 161 139.847 163.858 141.447 166.976C143.042 170.09 144.306 173.473 144.934 177.06C145.554 180.634 145.548 184.439 144.493 188.072C143.442 191.702 141.432 195.077 138.808 197.944C136.194 200.836 132.984 203.19 129.662 205.397C126.325 207.598 122.805 209.606 119.321 211.771C115.84 213.933 112.381 216.261 109.277 219.105C103.052 224.748 97.8982 231.928 94.586 240.111C91.2299 248.265 89.8254 257.445 90.7504 266.602C91.6209 275.758 94.7703 284.893 100.067 292.84L99.9318 292.768C133.864 292.766 170.687 292.764 208.851 292.761C209.837 292.761 210.821 292.761 211.729 292.761L211.578 292.852C212.981 290.024 214.123 287.062 215.106 284.074C216.09 281.083 216.891 278.041 217.494 274.972C218.714 268.837 219.151 262.574 218.579 256.432C218.048 250.29 216.424 244.289 213.799 238.818C212.467 236.096 210.951 233.465 209.145 231.055C207.4 228.602 205.367 226.386 203.355 224.171C199.309 219.764 195.109 215.571 190.783 211.599C186.477 207.602 181.984 203.903 177.726 200.009C175.612 198.053 173.561 196.013 171.886 193.681C170.187 191.37 169.011 188.685 168.479 185.895C168.222 184.501 168.064 183.09 168.055 181.681C168.023 180.977 168.062 180.275 168.076 179.574C168.103 178.874 168.196 178.178 168.252 177.481C168.465 174.692 169.114 171.962 170.021 169.355C171.889 164.13 175.291 159.64 179.291 156.066C181.272 154.248 183.366 152.592 185.431 150.942C186.464 150.118 187.485 149.288 188.474 148.43C189.446 147.566 190.421 146.665 191.466 145.877C193.55 144.3 195.669 142.818 197.699 141.249C199.733 139.685 201.69 138.054 203.526 136.322C205.359 134.588 207.09 132.774 208.653 130.844C210.197 128.902 211.627 126.891 212.842 124.773C215.285 120.547 216.941 115.979 217.872 111.363C218.774 106.735 218.924 102.07 218.587 97.5492C218.266 93.0189 217.349 88.6427 216.23 84.4404C215.143 80.2197 213.606 76.2338 212.085 72.3608L212.197 72.4356C178.288 72.4106 150.862 72.3903 131.909 72.3765C122.429 72.3628 115.07 72.3523 110.076 72.345C107.581 72.3385 105.677 72.3332 104.395 72.33C103.115 72.3267 102.454 72.3162 102.454 72.3162Z" fill="#263238"/>
<path d="M207.736 102.686C224.202 105.392 198.24 134.556 183.545 146.063C175.036 152.727 165.897 159.953 161.856 169.976C157.271 181.349 160.669 194.131 158.448 205.571C158.079 207.47 155.271 207.171 155.299 205.237C155.409 197.728 155.209 190.223 153.965 182.83C152.2 172.345 148.169 161.972 140.82 154.288C134.822 148.016 126.956 143.848 120.558 137.984C111.216 129.423 101.62 118.381 100.684 105.745C100.684 105.745 118.62 91.2969 128.576 93.1206C140.211 95.252 151.666 113.206 169.695 111.15C182.284 109.714 188.637 99.5468 207.736 102.686Z" fill="#207DA9"/>
<path d="M209.198 258.778C208.782 254.66 207.684 250 204.03 248.058C201.816 246.881 199.12 247.012 196.696 247.65C194.271 248.287 191.993 249.39 189.589 250.104C184.86 251.508 179.68 251.344 175.049 249.643C170.582 248.002 166.747 245.036 162.598 242.704C158.45 240.372 153.594 238.633 148.976 239.782C141.012 241.764 136.867 251.352 128.994 253.667C125.494 254.695 121.737 254.118 118.179 253.312C114.622 252.506 111.05 251.471 107.406 251.607C104.549 251.714 101.578 252.702 99.5756 254.659L99.5965 254.632C99.5762 254.652 99.5591 254.674 99.5388 254.695C99.2095 255.021 98.9071 255.373 98.6362 255.753C96.1939 259.008 95.8035 263.386 96.5547 267.361C97.3957 271.812 99.4752 275.927 101.707 279.869C104.335 284.512 107.321 289.135 111.667 292.231C117.028 296.05 123.771 293.414 130.333 293.932C145.639 295.14 162.107 295.964 177.415 294.778C185.501 294.15 193.08 295.027 199.497 290.066C204.011 286.576 206.947 281.316 208.363 275.788C209.778 270.26 209.772 264.455 209.198 258.778Z" fill="#207DA9"/>
<g opacity="0.24">
<path d="M180.311 250.891C179.446 252.214 179.078 253.987 179.911 255.33C180.744 256.674 181.871 257.895 182.232 259.434C182.8 261.85 181.345 264.214 180.26 266.447C178.319 270.441 177.436 274.998 178.09 279.39C178.745 283.783 180.998 287.979 184.514 290.693C186.068 291.892 188.088 292.823 189.962 292.236C191.726 291.682 192.867 289.892 193.217 288.077C193.567 286.262 193.278 284.392 193.048 282.558C191.978 274.045 192.197 265.372 193.695 256.924C193.946 255.511 194.185 253.899 193.29 252.778C192.718 252.062 191.807 251.726 190.937 251.436C187.525 250.3 183.843 251.562 180.311 250.891Z" fill="black"/>
</g>
<path d="M91.7278 298.008C91.7278 298.008 91.4202 292.876 98.112 290.02H215.701C215.701 290.02 221.833 293.124 222.588 297.901L91.7278 298.008Z" fill="#263238"/>
<path d="M213.21 72.9413C213.149 72.9702 213.087 72.999 213.024 73.0279L102.454 72.3161C102.454 72.3161 102.062 72.0649 101.473 71.605C98.3233 69.1411 100.091 64.0801 104.09 64.1122L211.406 64.9788C215.836 65.0149 217.215 71.0488 213.21 72.9413Z" fill="#263238"/>
<g opacity="0.24">
<path d="M195.514 115.119C195.736 115.546 194.907 116.467 193.321 117.875C191.731 119.283 189.41 121.215 186.459 123.594C183.492 125.953 179.898 128.797 175.319 131.451C173.025 132.776 170.472 133.979 167.68 134.957C166.276 135.428 164.821 135.865 163.291 136.17C161.77 136.496 160.181 136.713 158.549 136.788C155.292 136.975 151.98 136.498 149.016 135.485C146.069 134.462 143.555 133.021 141.357 131.575C139.153 130.114 137.252 128.671 135.461 127.29C133.678 125.906 132.052 124.572 130.599 123.317C124.791 118.285 121.737 114.584 122.326 113.87C122.934 113.127 127.046 115.481 133.453 119.418C135.055 120.401 136.807 121.477 138.687 122.631C140.565 123.775 142.586 125.038 144.645 126.206C146.712 127.373 148.868 128.436 151.104 129.124C153.326 129.788 155.694 130.104 158.214 129.963C163.25 129.706 168.137 127.931 172.372 125.888C176.628 123.805 180.433 121.448 183.753 119.59C187.069 117.711 189.905 116.322 191.969 115.584C194.036 114.843 195.3 114.709 195.514 115.119Z" fill="black"/>
</g>
<path d="M155.382 219.276C156.596 218.849 158.046 220.07 157.832 221.338C157.618 222.607 155.847 223.285 154.841 222.483C153.835 221.681 154.099 219.804 155.288 219.312" fill="#207DA9"/>
<path d="M115.834 133.418C115.825 133.426 115.691 133.29 115.444 133.024C115.178 132.733 114.821 132.342 114.372 131.85C113.92 131.329 113.324 130.727 112.715 129.958C112.097 129.189 111.398 128.318 110.627 127.359C109.914 126.351 109.105 125.265 108.291 124.061C107.904 123.445 107.505 122.809 107.093 122.153C106.89 121.823 106.67 121.497 106.474 121.15C106.284 120.8 106.092 120.445 105.897 120.085C104.282 117.243 102.845 113.914 101.823 110.278C100.8 106.64 100.321 103.043 100.277 99.7692C100.275 98.9511 100.319 98.1534 100.338 97.3787C100.356 96.9916 100.349 96.6086 100.388 96.2346C100.428 95.8607 100.467 95.4927 100.506 95.1312C100.588 94.4083 100.646 93.7077 100.743 93.0399C100.863 92.3767 100.979 91.7391 101.089 91.1296C101.277 89.9062 101.6 88.8323 101.832 87.8792C101.957 87.4049 102.056 86.9588 102.181 86.5573C102.311 86.1604 102.43 85.7964 102.539 85.4651C102.751 84.834 102.919 84.3315 103.044 83.9576C103.163 83.6145 103.231 83.4361 103.242 83.44C103.253 83.4439 103.207 83.6296 103.109 83.9792C102.999 84.3571 102.852 84.8648 102.666 85.5031C102.566 85.8364 102.457 86.2024 102.338 86.6013C102.222 87.0041 102.133 87.4514 102.017 87.9257C101.803 88.8802 101.498 89.9528 101.326 91.1729C101.223 91.7797 101.116 92.4154 101.004 93.076C100.914 93.7405 100.864 94.4378 100.787 95.1568C100.752 95.5163 100.716 95.8824 100.679 96.2537C100.644 96.6256 100.653 97.0054 100.638 97.3899C100.624 98.1593 100.584 98.9511 100.592 99.7633C100.653 103.012 101.137 106.576 102.152 110.184C103.165 113.79 104.582 117.098 106.173 119.933C106.364 120.291 106.554 120.645 106.74 120.994C106.933 121.34 107.15 121.666 107.349 121.996C107.754 122.651 108.147 123.287 108.527 123.903C109.327 125.108 110.122 126.198 110.82 127.212C111.574 128.181 112.258 129.058 112.863 129.834C113.456 130.613 114.036 131.227 114.473 131.76C114.901 132.269 115.241 132.675 115.495 132.976C115.726 133.259 115.842 133.41 115.834 133.418Z" fill="#263238"/>
<path d="M109.608 230.875C109.603 230.872 109.645 230.799 109.731 230.659C109.828 230.505 109.957 230.301 110.121 230.042C110.299 229.767 110.514 229.434 110.766 229.044C110.895 228.847 111.033 228.634 111.18 228.409C111.342 228.192 111.53 227.974 111.721 227.736C112.109 227.263 112.539 226.737 113.008 226.164C113.514 225.62 114.092 225.057 114.699 224.437C115.945 223.232 117.451 221.947 119.202 220.647C122.684 218.008 127.177 215.385 132.046 212.325C134.463 210.77 137.006 209.131 139.411 207.136C141.819 205.157 144.141 202.875 146.02 200.152C149.727 194.642 151.232 188.258 151.363 182.552C151.513 176.802 150.29 171.681 148.849 167.599C147.391 163.502 145.718 160.384 144.504 158.28C143.896 157.226 143.397 156.423 143.054 155.883C142.891 155.622 142.764 155.418 142.668 155.264C142.582 155.124 142.541 155.05 142.546 155.047C142.55 155.044 142.601 155.111 142.696 155.245C142.799 155.395 142.936 155.593 143.111 155.845C143.474 156.375 143.991 157.167 144.618 158.213C145.87 160.3 147.582 163.412 149.077 167.518C150.554 171.61 151.812 176.76 151.678 182.56C151.654 184.005 151.537 185.486 151.316 186.984C151.109 188.483 150.792 190.001 150.356 191.515C149.512 194.549 148.158 197.561 146.303 200.344C144.399 203.104 142.05 205.407 139.622 207.396C137.196 209.402 134.641 211.041 132.214 212.592C127.326 215.644 122.832 218.238 119.346 220.842C117.592 222.125 116.082 223.391 114.831 224.576C114.221 225.187 113.638 225.741 113.129 226.275C112.654 226.839 112.219 227.355 111.826 227.821C111.632 228.055 111.439 228.268 111.275 228.482C111.124 228.703 110.982 228.911 110.85 229.105C110.588 229.487 110.364 229.813 110.18 230.082C110.004 230.333 109.866 230.532 109.761 230.68C109.665 230.81 109.613 230.878 109.608 230.875Z" fill="#263238"/>
<path d="M103.508 242.466C103.517 242.473 103.468 242.577 103.364 242.771C103.238 242.996 103.084 243.271 102.897 243.606C102.686 243.962 102.435 244.404 102.182 244.937C101.923 245.466 101.597 246.052 101.32 246.741C101.172 247.082 101.018 247.437 100.858 247.807C100.7 248.179 100.571 248.58 100.417 248.987C100.096 249.797 99.8471 250.694 99.5637 251.63C99.0586 253.52 98.6368 255.633 98.4183 257.881C98.2242 260.133 98.2543 262.289 98.4072 264.239C98.5161 265.211 98.5968 266.139 98.7647 266.993C98.8421 267.422 98.8959 267.84 98.9838 268.234C99.0737 268.627 99.1609 269.005 99.2436 269.367C99.3899 270.094 99.605 270.73 99.7625 271.297C99.9147 271.867 100.081 272.346 100.223 272.736C100.346 273.099 100.447 273.397 100.531 273.642C100.598 273.85 100.627 273.963 100.617 273.967C100.605 273.972 100.554 273.869 100.467 273.668C100.368 273.429 100.246 273.137 100.099 272.783C99.9363 272.398 99.7513 271.923 99.5808 271.356C99.4043 270.79 99.1721 270.155 99.0094 269.426C98.9189 269.063 98.8244 268.684 98.726 268.29C98.6302 267.894 98.5692 267.474 98.4852 267.044C98.3042 266.184 98.211 265.25 98.093 264.269C97.9211 262.302 97.8811 260.124 98.0772 257.851C98.2976 255.582 98.7332 253.448 99.26 251.545C99.5545 250.603 99.8156 249.701 100.15 248.888C100.311 248.48 100.447 248.078 100.613 247.706C100.782 247.337 100.943 246.981 101.099 246.64C101.391 245.953 101.736 245.371 102.012 244.847C102.283 244.321 102.551 243.887 102.781 243.539C102.991 243.217 103.164 242.952 103.305 242.735C103.428 242.552 103.497 242.46 103.508 242.466Z" fill="#263238"/>
<path d="M184.613 258.232C184.616 258.237 184.571 258.269 184.48 258.329C184.37 258.397 184.236 258.481 184.07 258.585C183.683 258.817 183.151 259.137 182.479 259.541C182.129 259.748 181.744 259.977 181.324 260.225C180.894 260.462 180.41 260.687 179.899 260.946C178.867 261.443 177.722 262.077 176.37 262.588C175.701 262.862 175.002 263.149 174.274 263.448C173.542 263.741 172.753 263.968 171.951 264.245C170.355 264.828 168.587 265.244 166.739 265.726C163.014 266.555 158.846 267.162 154.437 267.304C150.027 267.393 145.831 267.003 142.067 266.37C140.196 265.986 138.409 265.663 136.784 265.164C135.968 264.929 135.168 264.743 134.423 264.489C133.68 264.228 132.967 263.978 132.284 263.739C130.908 263.3 129.731 262.727 128.674 262.284C128.15 262.052 127.656 261.852 127.214 261.638C126.782 261.412 126.385 261.203 126.025 261.015C125.332 260.646 124.785 260.356 124.385 260.143C124.215 260.049 124.076 259.971 123.964 259.909C123.87 259.855 123.823 259.824 123.826 259.819C123.829 259.814 123.881 259.834 123.981 259.879C124.097 259.933 124.241 260 124.418 260.083C124.824 260.281 125.38 260.553 126.084 260.896C126.447 261.076 126.847 261.275 127.283 261.491C127.727 261.695 128.224 261.886 128.75 262.108C129.811 262.533 130.989 263.089 132.366 263.511C133.047 263.743 133.76 263.984 134.502 264.236C135.246 264.483 136.045 264.66 136.857 264.889C138.478 265.374 140.259 265.685 142.12 266.059C145.868 266.672 150.041 267.05 154.428 266.961C158.812 266.821 162.958 266.226 166.668 265.418C168.507 264.947 170.269 264.544 171.862 263.974C172.662 263.704 173.45 263.485 174.18 263.2C174.909 262.909 175.607 262.63 176.276 262.364C177.628 261.87 178.776 261.254 179.813 260.774C180.327 260.524 180.813 260.308 181.246 260.08C181.671 259.842 182.06 259.622 182.413 259.424C183.097 259.044 183.639 258.743 184.034 258.524C184.206 258.432 184.346 258.358 184.46 258.297C184.558 258.249 184.61 258.226 184.613 258.232Z" fill="#263238"/>
<path d="M191.455 119.396C191.458 119.401 191.411 119.444 191.315 119.526C191.204 119.618 191.062 119.734 190.885 119.88C190.483 120.201 189.922 120.648 189.21 121.217C187.75 122.371 185.641 124.044 182.974 126.038C180.302 128.02 177.066 130.329 173.217 132.488C171.274 133.526 169.205 134.587 166.931 135.381C164.665 136.18 162.229 136.792 159.678 136.994C154.552 137.341 149.694 136.042 145.741 134.095C143.764 133.104 141.981 131.994 140.358 130.894C138.756 129.763 137.294 128.67 136.001 127.621C133.404 125.537 131.369 123.773 129.955 122.564C129.265 121.969 128.724 121.5 128.334 121.163C128.163 121.011 128.026 120.889 127.918 120.793C127.826 120.707 127.78 120.662 127.784 120.657C127.787 120.653 127.841 120.69 127.94 120.766C128.054 120.856 128.198 120.969 128.379 121.111C128.777 121.435 129.334 121.887 130.041 122.463C131.481 123.641 133.539 125.377 136.151 127.433C137.452 128.467 138.918 129.545 140.519 130.66C142.141 131.745 143.918 132.839 145.88 133.812C149.802 135.724 154.601 136.994 159.653 136.653C162.167 136.454 164.574 135.852 166.819 135.065C169.072 134.284 171.13 133.237 173.066 132.212C176.902 130.08 180.145 127.798 182.832 125.843C185.513 123.878 187.645 122.233 189.129 121.111C189.858 120.564 190.432 120.134 190.844 119.826C191.029 119.691 191.177 119.583 191.295 119.498C191.397 119.426 191.452 119.391 191.455 119.396Z" fill="#263238"/>
<g opacity="0.24">
<path d="M132.292 263.742C135.4 261.342 139.767 261.924 143.611 262.732C147.454 263.539 151.325 264.854 155.215 264.31C158.146 263.9 160.835 262.457 163.728 261.831C166.62 261.204 170.13 261.667 171.734 264.155C159.007 268.292 144.929 268.145 132.292 263.742Z" fill="black"/>
</g>
<path d="M240.774 245.941L226.646 230.122L226.503 249.351L230.755 261.684L188.495 269.015L186.703 235.67L183.66 210.062C183.288 206.924 185.077 203.93 188.017 202.772L199.648 198.192L216.028 201.197L222.618 203.702C225.384 204.753 227.85 206.468 229.798 208.697L249.634 231.38" fill="#207DA9"/>
<path d="M225.655 226.34C225.659 226.272 226.585 226.409 228.042 226.172C229.484 225.947 231.477 225.242 233.13 223.72C234.78 222.195 235.645 220.266 235.986 218.846C236.34 217.414 236.279 216.479 236.346 216.481C236.366 216.481 236.399 216.711 236.405 217.131C236.413 217.551 236.372 218.161 236.221 218.901C235.933 220.368 235.076 222.387 233.362 223.972C231.644 225.553 229.563 226.243 228.077 226.411C227.328 226.502 226.716 226.493 226.298 226.452C225.879 226.412 225.653 226.36 225.655 226.34Z" fill="white"/>
<path d="M226.891 248.532C226.99 248.532 227.015 241.87 226.948 233.656C226.881 225.439 226.746 218.779 226.648 218.781C226.549 218.781 226.524 225.442 226.591 233.659C226.658 241.873 226.792 248.533 226.891 248.532Z" fill="#263238"/>
<path d="M225.343 253.42L199.808 243.141C197.749 242.311 196.338 240.385 196.169 238.172L194.3 213.69C194.3 213.69 194.521 203.278 188.017 202.771L184.318 204.228C179.536 206.767 178.351 213.729 179.002 219.105C179.927 226.743 180.312 237.551 181.347 244.18C182.194 249.602 185.3 254.372 190.607 255.769L222.058 262.577L225.343 253.42Z" fill="#207DA9"/>
<path d="M194.667 217.425C194.678 217.424 194.706 217.617 194.747 217.986C194.788 218.385 194.842 218.922 194.911 219.599C195.042 221.033 195.226 223.054 195.451 225.536C195.668 228.054 195.924 231.036 196.208 234.345C196.278 235.174 196.349 236.024 196.422 236.892C196.498 237.759 196.551 238.648 196.748 239.511C196.935 240.377 197.351 241.188 198.018 241.805C198.68 242.425 199.509 242.878 200.374 243.271C207.415 246.318 213.905 248.833 218.615 250.598C220.954 251.459 222.856 252.161 224.208 252.659C224.845 252.893 225.352 253.08 225.728 253.219C226.075 253.351 226.255 253.425 226.251 253.437C226.247 253.448 226.06 253.395 225.706 253.285C225.325 253.161 224.811 252.994 224.164 252.785C222.827 252.342 220.901 251.678 218.532 250.826C213.794 249.117 207.294 246.639 200.232 243.583C199.354 243.183 198.492 242.716 197.784 242.053C197.07 241.394 196.612 240.492 196.423 239.588C196.219 238.682 196.171 237.786 196.097 236.921C196.029 236.053 195.961 235.203 195.895 234.373C195.638 231.062 195.406 228.077 195.211 225.557C195.03 223.07 194.883 221.047 194.779 219.61C194.737 218.932 194.703 218.392 194.678 217.992C194.659 217.62 194.655 217.425 194.667 217.425Z" fill="#263238"/>
<path d="M180.037 230.734C180.048 230.733 180.065 230.846 180.087 231.062C180.11 231.317 180.138 231.63 180.172 232.008C180.248 232.88 180.35 234.054 180.475 235.482C180.615 236.947 180.792 238.691 181.047 240.618C181.309 242.542 181.62 244.665 182.2 246.82C182.475 247.908 182.861 248.913 183.447 249.777C184.032 250.647 184.682 251.428 185.354 252.121C186.704 253.501 188.145 254.514 189.44 255.186C192.053 256.544 193.952 256.564 193.925 256.654C193.925 256.666 193.811 256.663 193.594 256.646C193.376 256.631 193.055 256.606 192.649 256.524C191.835 256.381 190.664 256.061 189.331 255.401C188.001 254.745 186.519 253.735 185.13 252.341C184.44 251.642 183.772 250.85 183.17 249.964C182.559 249.075 182.144 248 181.871 246.911C181.282 244.723 180.983 242.593 180.735 240.658C180.497 238.722 180.344 236.972 180.235 235.501C180.127 234.031 180.07 232.839 180.04 232.015C180.032 231.635 180.025 231.322 180.02 231.066C180.018 230.848 180.025 230.734 180.037 230.734Z" fill="#263238"/>
<path d="M190.956 247.865C190.921 247.855 191.029 247.309 191.421 246.505C191.807 245.702 192.523 244.663 193.565 243.77C194.61 242.88 195.748 242.336 196.602 242.08C197.458 241.819 198.014 241.798 198.019 241.834C198.029 241.891 197.493 241.997 196.681 242.308C195.87 242.616 194.795 243.173 193.787 244.029C192.783 244.891 192.065 245.866 191.634 246.619C191.2 247.371 191.011 247.884 190.956 247.865Z" fill="#263238"/>
<path d="M195.978 229.246C195.981 229.241 196.036 229.266 196.14 229.318C196.261 229.381 196.411 229.46 196.597 229.557C197.007 229.75 197.605 230.053 198.419 230.33C200.024 230.888 202.54 231.455 205.576 230.942C208.573 230.452 212.059 228.685 214.473 225.414C215.667 223.799 216.592 221.809 216.802 219.629C216.908 218.546 216.819 217.417 216.462 216.355C216.111 215.296 215.47 214.313 214.62 213.542C213.775 212.77 212.726 212.227 211.623 212.086C210.537 211.914 209.372 212.202 208.618 212.93C208.254 213.296 208.027 213.785 208.033 214.289C208.031 214.792 208.225 215.289 208.526 215.692C209.131 216.518 210.15 216.903 211.124 217.047C213.113 217.32 215.068 216.96 216.705 216.248C218.35 215.531 219.693 214.466 220.661 213.291C221.63 212.11 222.228 210.833 222.585 209.675C222.944 208.513 223.053 207.459 223.071 206.603C223.084 205.745 222.994 205.081 222.927 204.633C222.889 204.427 222.858 204.26 222.834 204.126C222.814 204.011 222.806 203.952 222.812 203.95C222.812 203.95 223.174 204.86 223.204 206.603C223.207 207.469 223.116 208.542 222.768 209.73C222.423 210.913 221.83 212.224 220.849 213.443C219.87 214.658 218.502 215.762 216.82 216.508C215.143 217.25 213.142 217.633 211.078 217.359C210.064 217.213 208.951 216.813 208.265 215.888C207.928 215.439 207.703 214.88 207.703 214.289C207.695 213.696 207.965 213.112 208.382 212.694C209.238 211.866 210.503 211.571 211.67 211.75C212.85 211.9 213.962 212.478 214.851 213.29C215.745 214.101 216.416 215.131 216.785 216.248C217.159 217.363 217.248 218.538 217.137 219.66C216.914 221.918 215.955 223.954 214.727 225.601C212.244 228.936 208.674 230.711 205.617 231.18C202.523 231.67 199.982 231.056 198.376 230.455C196.75 229.836 195.978 229.246 195.978 229.246Z" fill="white"/>
<path d="M179.251 222.717C179.236 222.702 179.379 222.511 179.671 222.194C179.965 221.879 180.421 221.447 181.05 220.994C182.289 220.062 184.342 219.214 186.699 218.992C187.877 218.867 189.021 218.923 190.028 219.132C191.037 219.341 191.905 219.681 192.594 220.033C193.284 220.383 193.806 220.729 194.154 220.983C194.5 221.239 194.679 221.397 194.666 221.414C194.631 221.468 193.867 220.891 192.489 220.251C191.127 219.599 189.042 219.055 186.735 219.332C184.425 219.552 182.434 220.334 181.187 221.193C179.924 222.034 179.299 222.764 179.251 222.717Z" fill="white"/>
<path d="M183.336 205.211C183.388 205.153 183.992 205.989 185.403 206.713C186.1 207.075 187.001 207.378 188.033 207.484C189.061 207.593 190.223 207.476 191.327 207.03C192.424 206.565 193.329 205.827 193.98 205.023C194.635 204.219 195.058 203.367 195.296 202.618C195.783 201.109 195.619 200.091 195.697 200.094C195.715 200.093 195.766 200.338 195.783 200.791C195.801 201.242 195.747 201.904 195.528 202.689C195.312 203.473 194.896 204.37 194.226 205.22C193.561 206.07 192.617 206.855 191.458 207.345C190.292 207.817 189.07 207.928 187.999 207.797C186.925 207.669 185.996 207.328 185.289 206.926C184.58 206.526 184.074 206.095 183.767 205.763C183.459 205.432 183.321 205.222 183.336 205.211Z" fill="white"/>
<path d="M205.588 245.467C205.576 245.466 205.594 245.3 205.641 244.984C205.713 244.675 205.814 244.207 206.094 243.663C206.609 242.563 207.892 241.185 209.916 240.345C211.912 239.448 214.657 239.275 217.424 240.076C218.773 240.478 220.323 240.973 221.336 242.292C221.832 242.94 222.002 243.905 221.624 244.693C221.262 245.484 220.551 246.029 219.804 246.41C219.042 246.782 218.216 246.993 217.387 247.009C216.565 247.025 215.707 246.821 215.066 246.289C214.418 245.766 214.077 244.957 214.027 244.186C213.967 243.408 214.125 242.656 214.374 241.974C215.463 239.242 217.663 237.506 219.637 236.646C221.644 235.768 223.461 235.676 224.66 235.784C225.87 235.908 226.496 236.17 226.496 236.17C226.485 236.215 225.846 235.998 224.65 235.916C223.465 235.85 221.687 235.98 219.737 236.867C218.769 237.309 217.771 237.943 216.872 238.812C215.976 239.676 215.171 240.783 214.671 242.082C214.436 242.734 214.294 243.447 214.353 244.16C214.404 244.868 214.709 245.573 215.279 246.032C215.842 246.497 216.614 246.687 217.382 246.671C218.154 246.656 218.939 246.456 219.653 246.107C220.356 245.751 221.006 245.238 221.315 244.556C221.637 243.877 221.502 243.072 221.066 242.489C220.634 241.894 220.002 241.464 219.358 241.133C218.709 240.805 218.014 240.583 217.34 240.381C214.631 239.582 211.97 239.725 210.011 240.571C208.022 241.365 206.753 242.672 206.214 243.727C205.653 244.783 205.636 245.481 205.588 245.467Z" fill="white"/>
<path d="M188.586 254.686C188.576 254.622 189.56 254.539 191.035 254.013C192.501 253.5 194.456 252.447 196.055 250.678C197.654 248.908 198.505 246.858 198.868 245.347C199.243 243.827 199.227 242.84 199.292 242.844C199.313 242.844 199.336 243.088 199.328 243.532C199.322 243.976 199.265 244.62 199.104 245.401C198.794 246.955 197.957 249.083 196.308 250.907C194.66 252.73 192.627 253.777 191.112 254.242C190.351 254.48 189.716 254.601 189.275 254.653C188.834 254.706 188.588 254.707 188.586 254.686Z" fill="white"/>
<path d="M180.311 235.656C180.308 235.644 180.413 235.602 180.619 235.532C180.825 235.465 181.131 235.37 181.531 235.269C182.328 235.076 183.517 234.812 185.009 234.916C185.752 234.974 186.565 235.143 187.374 235.5C188.178 235.856 188.983 236.417 189.58 237.231C190.165 238.045 190.525 239.104 190.437 240.208C190.397 240.759 190.228 241.312 189.931 241.806C189.632 242.292 189.183 242.733 188.593 242.925C188.011 243.108 187.327 243.015 186.868 242.584C186.414 242.144 186.3 241.527 186.273 240.992C186.231 239.903 186.467 238.86 186.874 237.954C187.686 236.123 189.198 234.921 190.598 234.42C192.009 233.898 193.261 233.937 194.071 234.077C194.48 234.148 194.789 234.239 194.995 234.311C195.199 234.388 195.303 234.433 195.299 234.444C195.289 234.477 194.861 234.308 194.052 234.208C193.252 234.111 192.035 234.113 190.685 234.645C189.345 235.158 187.924 236.324 187.161 238.082C186.78 238.949 186.564 239.948 186.606 240.975C186.632 241.477 186.749 242.004 187.101 242.336C187.447 242.664 188.01 242.751 188.489 242.599C188.975 242.443 189.372 242.063 189.641 241.627C189.908 241.184 190.064 240.685 190.104 240.18C190.189 239.169 189.862 238.176 189.324 237.414C188.775 236.651 188.021 236.109 187.257 235.757C186.488 235.404 185.706 235.227 184.987 235.155C183.54 235.023 182.359 235.245 181.56 235.397C180.758 235.563 180.318 235.682 180.311 235.656Z" fill="white"/>
<g opacity="0.3">
<path d="M218.005 250.502C215.275 248.959 212.603 247.774 209.748 246.477C206.893 245.18 204.097 243.514 202.228 240.996C198.704 236.245 199.106 229.39 195.498 224.703C195.734 227.855 195.969 231.007 196.205 234.159C196.421 237.047 195.978 239.904 197.839 241.867C199.406 243.52 202.463 244.789 204.627 245.502C208.975 246.937 213.657 249.068 218.005 250.502Z" fill="black"/>
</g>
<path d="M262.376 286.484C262.376 286.484 283.742 292.397 284.598 292.699C285.885 293.152 285.67 297.867 283.666 297.794C282.719 297.759 267.255 298.37 265.302 298.248C263.347 298.126 257.453 295.803 257.453 295.803L262.376 286.484Z" fill="#207DA9"/>
<path d="M271.276 294.637C271.383 294.651 271.528 293.521 272.217 292.343C272.89 291.154 273.795 290.461 273.728 290.376C273.69 290.293 272.629 290.895 271.907 292.164C271.173 293.425 271.186 294.646 271.276 294.637Z" fill="#263238"/>
<path d="M269.049 293.626C269.154 293.645 269.369 292.634 269.939 291.518C270.497 290.397 271.179 289.621 271.103 289.548C271.043 289.478 270.209 290.176 269.619 291.358C269.021 292.534 268.957 293.62 269.049 293.626Z" fill="#263238"/>
<path d="M266.959 293.067C267.066 293.06 266.984 291.993 267.458 290.809C267.912 289.618 268.697 288.889 268.622 288.811C268.58 288.73 267.621 289.39 267.126 290.679C266.616 291.962 266.872 293.097 266.959 293.067Z" fill="#263238"/>
<path d="M267.338 290.307C267.376 290.317 267.565 289.72 267.567 288.717C267.565 288.218 267.508 287.621 267.35 286.975C267.272 286.652 267.167 286.319 267.032 285.983C266.963 285.814 266.884 285.618 266.69 285.46C266.49 285.281 266.127 285.318 265.956 285.496C265.76 285.666 265.698 285.907 265.671 286.1C265.65 286.296 265.639 286.479 265.643 286.664C265.649 287.032 265.696 287.384 265.775 287.71C265.933 288.363 266.188 288.91 266.432 289.343C266.93 290.21 267.362 290.653 267.392 290.63C267.441 290.596 267.083 290.098 266.657 289.226C266.447 288.791 266.228 288.256 266.097 287.638C266.031 287.33 265.994 287.001 265.994 286.662C266.003 286.334 265.998 285.924 266.19 285.765C266.292 285.681 266.384 285.676 266.473 285.742C266.568 285.814 266.646 285.96 266.707 286.115C266.84 286.435 266.947 286.751 267.031 287.058C267.199 287.672 267.28 288.244 267.313 288.726C267.377 289.694 267.28 290.298 267.338 290.307Z" fill="#263238"/>
<path d="M267.312 290.09C267.321 290.051 266.806 289.873 265.933 289.867C265.499 289.867 264.978 289.912 264.417 290.053C264.14 290.128 263.843 290.199 263.544 290.375C263.252 290.523 262.945 290.929 263.061 291.351C263.153 291.748 263.493 292.026 263.831 292.114C264.171 292.209 264.501 292.175 264.789 292.111C265.376 291.976 265.832 291.688 266.177 291.429C266.862 290.891 267.196 290.481 267.17 290.451C267.133 290.405 266.728 290.757 266.032 291.221C265.682 291.445 265.244 291.687 264.722 291.789C264.462 291.839 264.182 291.854 263.929 291.778C263.678 291.709 263.469 291.517 263.409 291.27C263.348 291.031 263.492 290.813 263.726 290.674C263.955 290.532 264.239 290.45 264.502 290.371C265.031 290.22 265.525 290.151 265.942 290.12C266.778 290.062 267.302 290.147 267.312 290.09Z" fill="#263238"/>
<path d="M274.559 294.865C274.665 294.854 274.56 293.94 274.98 292.938C275.38 291.928 276.093 291.348 276.026 291.265C275.991 291.178 275.098 291.684 274.649 292.803C274.188 293.916 274.473 294.903 274.559 294.865Z" fill="#263238"/>
<path d="M259.651 295.851C259.642 295.874 259.935 296.011 260.477 296.24C261.026 296.448 261.829 296.738 262.855 296.977C264.898 297.492 267.811 297.784 271.012 297.75C274.214 297.714 277.099 297.569 279.192 297.485C280.182 297.432 281.012 297.388 281.667 297.354C282.252 297.315 282.575 297.281 282.574 297.257C282.573 297.232 282.249 297.218 281.663 297.215C281.007 297.219 280.176 297.225 279.184 297.232C277.02 297.275 274.167 297.331 271.011 297.392C267.824 297.426 264.947 297.177 262.911 296.73C260.868 296.311 259.676 295.785 259.651 295.851Z" fill="#263238"/>
<path d="M259.019 296.338C259.048 296.387 259.632 296.045 260.62 295.613C261.595 295.195 263.057 294.693 264.663 294.941C266.272 295.187 267.414 296.269 268.157 297.02C268.906 297.797 269.345 298.314 269.388 298.277C269.421 298.25 269.056 297.683 268.343 296.848C267.982 296.435 267.525 295.956 266.926 295.523C266.334 295.088 265.572 294.718 264.718 294.588C262.996 294.324 261.478 294.899 260.513 295.384C259.533 295.885 258.997 296.303 259.019 296.338Z" fill="#263238"/>
<path d="M239.697 280.585C239.697 280.585 219.479 293.823 218.754 294.37C217.665 295.193 218.914 299.111 220.8 298.432C221.692 298.112 238.657 293.392 240.482 292.682C242.306 291.973 247.217 287.969 247.217 287.969L239.697 280.585Z" fill="#207DA9"/>
<path d="M233.693 291.056C233.781 291.037 233.423 289.87 232.34 288.891C231.267 287.902 230.073 287.651 230.062 287.741C230.025 287.842 231.097 288.228 232.099 289.156C233.114 290.07 233.595 291.102 233.693 291.056Z" fill="#263238"/>
<path d="M235.508 289.417C235.593 289.383 235.202 288.368 234.275 287.429C233.355 286.482 232.347 286.07 232.313 286.155C232.261 286.248 233.147 286.779 234.019 287.678C234.901 288.569 235.414 289.466 235.508 289.417Z" fill="#263238"/>
<path d="M237.329 288.249C237.421 288.253 237.32 287.093 236.445 286.025C235.581 284.948 234.468 284.61 234.452 284.7C234.405 284.797 235.373 285.253 236.167 286.25C236.979 287.234 237.225 288.275 237.329 288.249Z" fill="#263238"/>
<path d="M236.13 285.735C236.183 285.709 235.906 285.162 235.672 284.221C235.557 283.752 235.461 283.182 235.435 282.546C235.421 282.228 235.427 281.894 235.457 281.55C235.468 281.384 235.499 281.22 235.566 281.122C235.631 281.032 235.72 281.01 235.843 281.059C236.074 281.151 236.194 281.544 236.303 281.854C236.406 282.177 236.47 282.501 236.501 282.815C236.563 283.443 236.518 284.019 236.45 284.498C236.308 285.458 236.119 286.041 236.175 286.059C236.211 286.073 236.487 285.519 236.699 284.542C236.801 284.054 236.878 283.455 236.83 282.785C236.806 282.452 236.745 282.101 236.638 281.749C236.586 281.571 236.52 281.4 236.439 281.22C236.356 281.044 236.224 280.833 235.985 280.73C235.767 280.613 235.41 280.688 235.275 280.918C235.139 281.129 235.122 281.339 235.108 281.521C235.082 281.882 235.083 282.232 235.106 282.563C235.152 283.226 235.278 283.813 235.429 284.289C235.735 285.245 236.096 285.755 236.13 285.735Z" fill="#263238"/>
<path d="M236.089 285.52C236.115 285.571 236.589 285.331 237.403 285.133C237.81 285.036 238.302 284.952 238.852 284.935C239.126 284.931 239.421 284.922 239.682 284.988C239.947 285.049 240.152 285.213 240.166 285.459C240.183 285.712 240.042 285.959 239.824 286.101C239.606 286.25 239.335 286.321 239.072 286.352C238.544 286.414 238.053 286.317 237.651 286.21C236.847 285.978 236.355 285.766 236.333 285.821C236.317 285.857 236.76 286.147 237.576 286.452C237.984 286.594 238.507 286.73 239.106 286.681C239.401 286.654 239.725 286.586 240.02 286.392C240.315 286.206 240.555 285.838 240.522 285.432C240.505 284.995 240.089 284.701 239.765 284.648C239.427 284.572 239.123 284.593 238.836 284.606C238.259 284.643 237.748 284.757 237.335 284.89C236.505 285.16 236.068 285.486 236.089 285.52Z" fill="#263238"/>
<path d="M223.376 297.694C223.399 297.725 223.716 297.489 223.87 296.91C224.04 296.346 223.933 295.477 223.492 294.716C223.281 294.332 223.039 294 222.814 293.707C222.593 293.413 222.364 293.147 222.128 292.97C221.895 292.787 221.65 292.705 221.482 292.7C221.313 292.692 221.227 292.734 221.229 292.755C221.23 292.81 221.591 292.784 221.965 293.163C222.154 293.344 222.343 293.598 222.548 293.901C222.755 294.201 222.981 294.528 223.178 294.888C223.588 295.601 223.71 296.338 223.623 296.859C223.55 297.383 223.329 297.659 223.376 297.694Z" fill="#263238"/>
<path d="M230.634 292.271C230.728 292.28 230.699 291.254 229.922 290.333C229.155 289.404 228.15 289.193 228.143 289.286C228.104 289.386 228.96 289.721 229.648 290.562C230.352 291.39 230.53 292.292 230.634 292.271Z" fill="#263238"/>
<path d="M245.138 288.683C245.12 288.662 244.811 288.89 244.249 289.293C243.68 289.687 242.845 290.238 241.756 290.82C240.669 291.404 239.327 292.01 237.797 292.583C236.266 293.154 234.549 293.692 232.733 294.218C229.096 295.265 225.803 296.223 223.427 296.937C222.288 297.287 221.342 297.578 220.617 297.8C219.956 298.011 219.594 298.139 219.601 298.163C219.607 298.187 219.983 298.104 220.655 297.934C221.388 297.74 222.344 297.487 223.496 297.181C225.89 296.528 229.191 295.61 232.833 294.561C234.652 294.034 236.377 293.483 237.914 292.891C239.449 292.296 240.795 291.66 241.878 291.041C242.963 290.424 243.785 289.835 244.332 289.404C244.872 288.964 245.152 288.699 245.138 288.683Z" fill="#263238"/>
<path d="M245.888 288.955C245.898 288.915 245.261 288.68 244.174 288.499C243.107 288.331 241.486 288.244 239.925 289.018C239.152 289.402 238.538 289.986 238.106 290.58C237.667 291.175 237.377 291.769 237.158 292.273C236.732 293.285 236.558 293.936 236.596 293.952C236.649 293.974 236.91 293.348 237.387 292.379C237.868 291.438 238.627 290.061 240.086 289.338C241.54 288.613 243.085 288.647 244.142 288.75C245.214 288.863 245.875 289.011 245.888 288.955Z" fill="#263238"/>
<path d="M281.713 248.301C281.713 248.301 287.778 250.466 287.803 257.267C287.851 270.294 261.481 284.654 261.481 284.654L226.388 261.402L224.189 260.512C224.189 260.512 271.561 242.717 281.713 248.301Z" fill="#263238"/>
<path d="M244.165 273.147C244.18 273.166 244.505 272.945 245.079 272.527C245.654 272.11 246.475 271.491 247.479 270.714C249.489 269.161 252.222 266.96 255.163 264.436C258.104 261.91 260.693 259.541 262.532 257.789C263.452 256.914 264.187 256.196 264.686 255.691C265.186 255.186 265.454 254.899 265.437 254.881C265.42 254.863 265.12 255.117 264.59 255.589C264.017 256.107 263.266 256.785 262.36 257.603C260.479 259.306 257.866 261.642 254.93 264.165C251.993 266.685 249.289 268.914 247.322 270.516C246.376 271.288 245.592 271.928 244.994 272.417C244.446 272.869 244.15 273.127 244.165 273.147Z" fill="#455A64"/>
<path d="M271.806 253.17C271.819 253.083 270.254 252.929 268.424 253.477C266.59 254.011 265.359 254.989 265.418 255.055C265.476 255.149 266.755 254.333 268.526 253.82C270.29 253.29 271.807 253.28 271.806 253.17Z" fill="#455A64"/>
<path d="M268.783 251.117C268.751 251.032 267.626 251.527 266.703 252.681C265.768 253.828 265.521 255.032 265.611 255.045C265.713 255.08 266.097 253.988 266.982 252.906C267.851 251.815 268.839 251.209 268.783 251.117Z" fill="#455A64"/>
<path d="M283.642 292.366C283.66 292.325 283.223 292.24 282.737 292.64C282.26 293.022 281.854 293.786 281.723 294.677C281.591 295.574 281.791 296.399 282.043 296.923C282.292 297.456 282.565 297.706 282.596 297.681C282.644 297.648 282.452 297.352 282.278 296.829C282.1 296.312 281.957 295.55 282.077 294.727C282.197 293.908 282.533 293.201 282.907 292.827C283.279 292.438 283.649 292.423 283.642 292.366Z" fill="#263238"/>
<path d="M273.641 227.019L261.142 258.702L207.326 259.579L206.329 256.667L225.19 255.983L234.254 227.877L273.641 227.019Z" fill="#455A64"/>
<path d="M248.508 240.735C249.199 240.267 250.475 240.455 251.096 241.011C251.717 241.568 251.919 242.532 251.602 243.304C251.287 244.076 250.491 244.617 249.658 244.662C248.773 244.709 247.85 244.156 247.603 243.305C247.356 242.454 247.631 241.184 248.508 240.735Z" fill="#EBEBEB"/>
<path d="M264.804 286.237C264.804 286.237 215.222 253.715 213.192 253.038C211.162 252.361 206.256 249.147 201.349 250.5C196.443 251.854 192.044 256.253 189.844 262.681C188.588 266.354 187.994 272.621 187.716 277.321C187.383 282.94 189.123 288.543 192.798 292.806C194.471 294.746 196.534 296.434 198.981 297.196C199.497 297.356 200.033 297.495 200.583 297.614C209.957 299.646 219.591 295.438 224.858 287.422L226.015 285.661C226.015 285.661 258.45 297.577 258.957 297.408L264.804 286.237Z" fill="#263238"/>
<path d="M203.464 277.285C203.464 277.285 203.554 277.331 203.736 277.405C203.932 277.483 204.201 277.59 204.547 277.727C205.279 278.01 206.334 278.416 207.691 278.938C210.449 279.977 214.427 281.475 219.372 283.338C224.335 285.189 230.278 287.39 236.947 289.818C243.617 292.242 251.008 294.903 258.901 297.575L259.045 297.624L259.115 297.489C260.354 295.123 261.661 292.626 262.988 290.092C263.665 288.799 264.336 287.517 264.963 286.319L265.039 286.173L264.902 286.086C250.013 276.635 236.694 268.179 227.081 262.077C222.281 259.05 218.408 256.607 215.72 254.911C214.389 254.081 213.353 253.434 212.635 252.986C212.291 252.775 212.023 252.612 211.83 252.493C211.647 252.384 211.55 252.336 211.55 252.336C211.55 252.336 211.635 252.404 211.811 252.523C212.001 252.649 212.262 252.822 212.598 253.045C213.308 253.505 214.334 254.171 215.65 255.025C218.323 256.743 222.176 259.218 226.95 262.285C236.547 268.41 249.845 276.898 264.709 286.386L264.647 286.154C264.02 287.351 263.349 288.634 262.672 289.926C261.347 292.46 260.04 294.958 258.801 297.325L259.014 297.239C251.125 294.574 243.731 291.925 237.055 289.52C230.391 287.095 224.437 284.928 219.456 283.115C214.494 281.295 210.503 279.831 207.737 278.816C206.371 278.32 205.308 277.933 204.572 277.665C204.221 277.541 203.947 277.444 203.748 277.374C203.561 277.31 203.464 277.285 203.464 277.285Z" fill="#455A64"/>
<path d="M208.609 161.794C209.454 159.508 211.323 158.516 213.691 157.943C216.059 157.369 218.695 158.048 220.491 159.694C221.693 160.795 222.574 162.316 224.058 162.989C226.502 164.097 229.634 162.478 231.95 163.832C233.321 164.634 233.995 166.458 233.473 167.958C232.951 169.459 231.291 170.472 229.718 170.249C231.311 171.001 231.608 173.398 230.511 174.776C229.414 176.154 227.387 176.528 225.692 176.048C223.998 175.569 222.59 174.386 221.393 173.094C220.196 171.803 219.147 170.369 217.852 169.177C216.555 167.984 214.938 167.024 213.178 166.958C210.796 166.869 208.597 168.471 207.347 170.5C206.096 172.53 205.629 174.937 205.281 177.295C204.932 179.654 204.669 182.06 203.76 184.265C203.653 184.523 203.5 184.81 203.226 184.867C202.831 184.95 202.541 184.512 202.382 184.14C200.59 179.94 199.634 175.386 199.585 170.82C199.557 168.168 199.854 165.686 201.501 163.607C203.147 161.528 206.946 160.235 208.609 161.794Z" fill="#263238"/>
<path d="M203.018 172.377L199.373 198.864C198.754 203.369 202.03 207.475 206.559 207.872C210.785 208.242 214.559 205.225 215.133 201.021C215.405 199.026 215.637 197.364 215.678 197.161C215.678 197.161 222.509 197.455 223.914 190.847C224.593 187.655 225.456 180.965 226.167 174.903C226.931 168.394 222.558 162.392 216.132 161.107L215.493 160.979C208.521 160.006 203.799 165.382 203.018 172.377Z" fill="#FFBE9D"/>
<path d="M215.709 197.068C215.709 197.068 211.455 196.572 207.564 192.888C207.564 192.888 208.653 198.063 215.381 198.786L215.709 197.068Z" fill="#EB996E"/>
<path d="M223.351 178.954C223.269 179.457 222.775 179.802 222.248 179.726C221.722 179.65 221.361 179.182 221.444 178.679C221.526 178.176 222.02 177.83 222.546 177.906C223.072 177.982 223.433 178.451 223.351 178.954Z" fill="#263238"/>
<path d="M224.094 177.87C223.953 177.97 223.342 177.297 222.323 177.096C221.309 176.881 220.457 177.255 220.372 177.108C220.329 177.042 220.493 176.843 220.865 176.671C221.233 176.5 221.824 176.379 222.458 176.509C223.091 176.639 223.578 176.978 223.837 177.279C224.102 177.582 224.163 177.826 224.094 177.87Z" fill="#263238"/>
<path d="M213.3 177.306C213.218 177.809 212.724 178.154 212.197 178.078C211.671 178.002 211.31 177.533 211.392 177.03C211.474 176.527 211.968 176.181 212.494 176.258C213.021 176.333 213.382 176.803 213.3 177.306Z" fill="#263238"/>
<path d="M214.052 176.061C213.91 176.16 213.298 175.487 212.281 175.287C211.267 175.071 210.415 175.446 210.329 175.299C210.286 175.233 210.449 175.034 210.823 174.863C211.19 174.691 211.782 174.571 212.415 174.7C213.048 174.831 213.535 175.17 213.794 175.47C214.059 175.773 214.12 176.017 214.052 176.061Z" fill="#263238"/>
<path d="M216.237 184.347C216.244 184.288 216.899 184.305 217.95 184.379C218.215 184.404 218.472 184.402 218.551 184.233C218.649 184.057 218.597 183.756 218.531 183.428C218.413 182.751 218.289 182.04 218.158 181.296C217.654 178.265 217.344 175.794 217.466 175.774C217.588 175.755 218.096 178.196 218.601 181.227C218.719 181.973 218.832 182.684 218.939 183.365C218.979 183.68 219.081 184.048 218.87 184.412C218.762 184.592 218.542 184.695 218.367 184.706C218.19 184.724 218.044 184.697 217.913 184.679C216.871 184.529 216.23 184.406 216.237 184.347Z" fill="#263238"/>
<path d="M213.102 184.452C213.269 184.476 213.05 185.58 213.84 186.554C214.626 187.529 215.829 187.64 215.807 187.796C215.808 187.869 215.502 187.958 215.002 187.873C214.511 187.792 213.83 187.493 213.348 186.898C212.867 186.301 212.747 185.611 212.8 185.149C212.849 184.68 213.027 184.431 213.102 184.452Z" fill="#263238"/>
<path d="M215.112 172.125C214.956 172.381 213.966 172.047 212.743 171.953C211.523 171.833 210.489 171.991 210.38 171.711C210.333 171.577 210.554 171.351 210.996 171.161C211.436 170.971 212.102 170.839 212.835 170.902C213.568 170.967 214.202 171.212 214.601 171.476C215.004 171.74 215.181 172.002 215.112 172.125Z" fill="#263238"/>
<path d="M224.309 174.85C224.084 175.045 223.43 174.665 222.589 174.485C221.755 174.276 221.001 174.329 220.885 174.055C220.836 173.923 220.995 173.713 221.351 173.557C221.702 173.401 222.251 173.325 222.827 173.458C223.403 173.592 223.863 173.902 224.109 174.198C224.36 174.495 224.41 174.753 224.309 174.85Z" fill="#263238"/>
<path d="M202.579 177.389C202.476 177.318 198.297 175.134 197.537 179.691C196.776 184.248 201.508 184.071 201.538 183.942C201.568 183.813 202.579 177.389 202.579 177.389Z" fill="#FFBE9D"/>
<path d="M200.434 181.983C200.417 181.965 200.346 182.026 200.201 182.064C200.06 182.102 199.829 182.106 199.606 181.978C199.154 181.721 198.876 180.889 198.991 180.064C199.049 179.647 199.202 179.267 199.403 178.964C199.598 178.654 199.852 178.457 200.102 178.454C200.352 178.439 200.5 178.612 200.534 178.75C200.574 178.888 200.529 178.974 200.552 178.986C200.563 179 200.663 178.926 200.657 178.731C200.653 178.637 200.618 178.521 200.525 178.416C200.431 178.309 200.277 178.237 200.106 178.227C199.75 178.193 199.38 178.463 199.158 178.795C198.918 179.126 198.736 179.551 198.671 180.019C198.547 180.942 198.874 181.88 199.501 182.18C199.807 182.317 200.091 182.265 200.247 182.18C200.408 182.092 200.449 181.994 200.434 181.983Z" fill="#EB996E"/>
<path d="M227.844 173.809C224.771 174.002 221.641 172.609 219.729 170.197C218.39 168.509 217.539 166.297 215.645 165.271C214.37 164.581 212.801 164.573 211.418 165.012C210.036 165.451 208.818 166.3 207.727 167.256C208.334 170.878 206.724 174.463 205.154 177.783C204.981 178.149 204.782 178.542 204.418 178.722C203.8 179.027 203.063 178.545 202.694 177.963C202.102 177.031 202.033 175.868 202.055 174.765C202.105 172.252 202.546 169.726 203.567 167.429C204.587 165.132 206.208 163.072 208.331 161.724C210.982 160.041 214.323 159.561 217.393 160.223C220.463 160.886 223.251 162.645 225.339 164.993C226.307 166.082 227.15 167.332 227.479 168.751" fill="#263238"/>
<path d="M44.2537 280.669C44.2478 280.666 44.2865 280.572 44.3685 280.392C44.4604 280.197 44.5831 279.934 44.7405 279.6C45.056 278.9 45.4667 277.839 45.8327 276.427C46.5556 273.607 46.8075 269.296 45.7396 264.176C45.2436 261.612 44.444 258.862 43.4672 255.947C42.5055 253.027 41.3883 249.928 40.4758 246.578C39.5738 243.236 38.8614 239.609 38.9985 235.806C39.1369 231.996 40.2646 228.192 41.5058 224.407C42.7436 220.615 44.0241 216.908 44.4079 213.18C44.8415 209.459 44.0451 205.806 42.35 202.812C40.7081 199.787 38.6423 197.2 37.0961 194.52C35.5257 191.849 34.5436 189.102 33.9381 186.547C32.7646 181.397 33.1759 177.057 33.7381 174.197C34.3475 171.322 35.0271 169.835 35.0271 169.835C35.0337 169.838 35.0074 169.936 34.951 170.125C34.8867 170.332 34.8001 170.609 34.6899 170.962C34.4623 171.696 34.1684 172.794 33.8889 174.226C33.3753 177.081 33.0125 181.391 34.2097 186.484C34.827 189.011 35.8136 191.721 37.3782 194.356C38.9205 197.004 40.9954 199.581 42.6702 202.641C44.4013 205.668 45.2338 209.44 44.7923 213.22C44.4066 217.011 43.1162 220.742 41.881 224.529C40.6405 228.312 39.5259 232.075 39.3849 235.822C39.2445 239.566 39.9386 243.159 40.8268 246.484C41.7242 249.817 42.8283 252.917 43.7781 255.846C44.7425 258.77 45.5323 261.542 46.0131 264.124C47.0529 269.282 46.7564 273.636 45.9816 276.466C45.59 277.883 45.1531 278.942 44.8127 279.634C44.6408 279.962 44.5056 280.22 44.4046 280.412C44.3102 280.585 44.2596 280.672 44.2537 280.669Z" fill="#263238"/>
<path d="M39.1953 197.164C39.1953 197.164 36.0557 187.125 41.6875 181.247C41.8849 181.04 42.2332 181.138 42.2844 181.419C42.5849 183.077 42.9608 188.126 39.1953 197.164Z" fill="#207DA9"/>
<path d="M41.0767 184.592C41.1298 184.602 41.04 185.309 40.8655 186.444C40.6595 187.72 40.4168 189.217 40.1491 190.872C39.8867 192.527 39.6486 194.024 39.4465 195.3C39.2747 196.433 39.1717 197.137 39.114 197.132C39.0634 197.128 39.068 196.414 39.1704 195.266C39.274 194.118 39.4767 192.541 39.7608 190.808C40.0442 189.076 40.3459 187.516 40.5919 186.393C40.8366 185.269 41.0229 184.581 41.0767 184.592Z" fill="#263238"/>
<path d="M42.8833 220.842C42.8833 220.842 44.8034 210.5 52.5298 207.938C52.8014 207.848 53.0631 208.096 52.9765 208.369C52.4675 209.975 50.4378 214.614 42.8833 220.842Z" fill="#207DA9"/>
<path d="M50.4253 210.609C50.4673 210.643 50.058 211.225 49.3724 212.147C48.5931 213.178 47.6786 214.389 46.6691 215.726C45.6628 217.066 44.7522 218.279 43.9768 219.311C43.2946 220.233 42.8748 220.806 42.8262 220.776C42.7829 220.749 43.1214 220.12 43.7485 219.153C44.377 218.188 45.2934 216.887 46.3548 215.489C47.4149 214.09 48.4121 212.853 49.1546 211.975C49.8966 211.096 50.3833 210.574 50.4253 210.609Z" fill="#263238"/>
<path d="M40.7952 246.787C40.7952 246.787 39.6288 236.333 46.2787 231.637C46.5123 231.472 46.835 231.634 46.8317 231.92C46.8101 233.605 46.2157 238.634 40.7952 246.787Z" fill="#207DA9"/>
<path d="M45.0402 234.804C45.0907 234.825 44.8677 235.501 44.4794 236.582C44.0333 237.795 43.5098 239.219 42.9312 240.792C42.3579 242.367 41.839 243.791 41.3968 245.004C41.0117 246.085 40.7762 246.755 40.7205 246.739C40.6713 246.726 40.813 246.026 41.1318 244.918C41.4526 243.812 41.9518 242.302 42.5619 240.656C43.1706 239.01 43.7643 237.536 44.2202 236.48C44.6755 235.423 44.9897 234.784 45.0402 234.804Z" fill="#263238"/>
<path d="M46.616 272.883C46.616 272.883 45.8249 262.394 52.6381 257.939C52.8775 257.783 53.1944 257.956 53.1806 258.242C53.0992 259.925 52.3245 264.929 46.616 272.883Z" fill="#207DA9"/>
<path d="M51.2873 261.06C51.3372 261.083 51.0899 261.751 50.6635 262.817C50.1741 264.014 49.6001 265.418 48.9657 266.969C48.3366 268.522 47.7666 269.927 47.2811 271.123C46.8574 272.189 46.5989 272.851 46.5438 272.834C46.4952 272.819 46.6612 272.124 47.0201 271.028C47.3802 269.934 47.9339 268.443 48.6023 266.819C49.2695 265.196 49.9163 263.745 50.4089 262.706C50.9003 261.666 51.2375 261.037 51.2873 261.06Z" fill="#263238"/>
<path d="M34.684 188.344C34.684 188.344 25.3602 183.475 25.1772 175.336C25.1707 175.05 25.4855 174.873 25.721 175.035C27.1065 175.993 30.9467 179.295 34.684 188.344Z" fill="#207DA9"/>
<path d="M27.1131 178.132C27.1584 178.102 27.5946 178.664 28.2749 179.59C29.0319 180.637 29.9214 181.867 30.9035 183.225C31.8894 184.58 32.7816 185.806 33.5413 186.85C34.2222 187.772 34.6473 188.342 34.6033 188.38C34.5646 188.413 34.0628 187.905 33.3222 187.022C32.5835 186.138 31.6093 184.88 30.584 183.455C29.558 182.031 28.6672 180.716 28.0453 179.748C27.4234 178.78 27.0678 178.162 27.1131 178.132Z" fill="#263238"/>
<path d="M44.6958 209.904C44.6958 209.904 35.0933 205.61 34.4169 197.497C34.3933 197.213 34.6971 197.017 34.9411 197.164C36.3823 198.037 40.4154 201.098 44.6958 209.904Z" fill="#207DA9"/>
<path d="M36.5187 200.171C36.562 200.138 37.0317 200.672 37.7671 201.555C38.5865 202.555 39.5488 203.728 40.6115 205.024C41.6775 206.316 42.6425 207.486 43.4645 208.482C44.2005 209.362 44.6591 209.904 44.6177 209.944C44.581 209.98 44.0496 209.503 43.2565 208.666C42.4654 207.829 41.4171 206.633 40.3072 205.272C39.1965 203.913 38.2276 202.654 37.548 201.726C36.8677 200.798 36.4755 200.203 36.5187 200.171Z" fill="#263238"/>
<path d="M39.1703 233.953C39.1703 233.953 32.5775 225.756 35.6699 218.226C35.7781 217.962 36.1383 217.926 36.2885 218.169C37.1748 219.602 39.3704 224.164 39.1703 233.953Z" fill="#207DA9"/>
<path d="M36.3239 221.563C36.3777 221.553 36.5521 222.244 36.8047 223.365C37.0789 224.628 37.401 226.11 37.7572 227.748C38.118 229.384 38.4441 230.865 38.7222 232.126C38.9767 233.245 39.1381 233.937 39.0823 233.953C39.0338 233.968 38.7773 233.301 38.4526 232.196C38.1298 231.09 37.7408 229.548 37.3728 227.831C37.0028 226.116 36.7142 224.553 36.5318 223.418C36.3488 222.282 36.2707 221.573 36.3239 221.563Z" fill="#263238"/>
<path d="M45.7009 262.254C45.7009 262.254 36.1725 257.799 35.6319 249.677C35.6129 249.392 35.9199 249.201 36.162 249.353C37.5888 250.248 41.5701 253.377 45.7009 262.254Z" fill="#207DA9"/>
<path d="M37.6892 252.384C37.7332 252.352 38.1937 252.895 38.914 253.789C39.7162 254.802 40.6589 255.992 41.6993 257.305C42.7437 258.615 43.689 259.8 44.4939 260.81C45.2148 261.702 45.6642 262.252 45.6222 262.292C45.5848 262.326 45.0613 261.841 44.2827 260.992C43.506 260.141 42.4774 258.927 41.3904 257.549C40.3027 256.171 39.3554 254.896 38.6916 253.957C38.0277 253.018 37.6453 252.416 37.6892 252.384Z" fill="#263238"/>
<path d="M64.6809 220.897C64.6901 220.898 64.694 220.977 64.6927 221.129C64.6881 221.312 64.6829 221.533 64.6763 221.801C64.6481 222.433 64.6107 223.287 64.5635 224.352C64.4408 226.594 64.2696 229.721 64.0643 233.461L64.0636 233.469L64.061 233.482C63.3807 237.288 61.4422 241.507 58.8386 245.603C56.9283 248.62 54.9262 251.363 53.1996 253.915C51.4612 256.459 49.9944 258.815 48.9717 260.903C47.9424 262.988 47.3441 264.779 46.9938 266.032C46.8265 266.66 46.7006 267.15 46.6278 267.485C46.5497 267.819 46.5018 267.994 46.488 267.992C46.4749 267.989 46.4959 267.81 46.5497 267.47C46.5969 267.129 46.6993 266.632 46.8449 265.994C47.1513 264.723 47.7148 262.9 48.7204 260.782C49.7195 258.661 51.1725 256.273 52.8978 253.713C54.6126 251.143 56.6042 248.396 58.504 245.394C61.0939 241.318 63.0225 237.164 63.7277 233.419L63.7251 233.44C63.9875 229.704 64.2073 226.581 64.3647 224.341C64.4506 223.278 64.5195 222.427 64.5707 221.796C64.5976 221.529 64.6199 221.309 64.6383 221.127C64.6586 220.975 64.6724 220.897 64.6809 220.897Z" fill="#263238"/>
<path d="M59.0072 244.821C59.0072 244.821 63.0429 235.107 57.9668 228.743C57.7883 228.52 57.4328 228.586 57.3567 228.861C56.9073 230.484 56.0755 235.479 59.0072 244.821Z" fill="#207DA9"/>
<path d="M58.2725 232.13C58.3263 232.124 58.4502 232.826 58.5926 233.968C58.7356 235.109 58.895 236.69 59.0203 238.44C59.1469 240.191 59.2053 241.781 59.2046 242.933C59.202 244.086 59.143 244.798 59.0918 244.797C59.0341 244.796 58.9954 244.087 58.9265 242.942C58.8406 241.654 58.7395 240.141 58.6274 238.469C58.5106 236.796 58.405 235.283 58.3151 233.994C58.2436 232.847 58.218 232.136 58.2725 232.13Z" fill="#263238"/>
<g opacity="0.3">
<path d="M59.0072 244.821C59.0072 244.821 63.0429 235.107 57.9668 228.743C57.7883 228.52 57.4328 228.586 57.3567 228.861C56.9073 230.484 56.0755 235.479 59.0072 244.821Z" fill="black"/>
</g>
<path d="M46.5078 268.229C46.5078 268.229 49.7425 258.219 44.1665 252.289C43.9703 252.08 43.622 252.174 43.5682 252.455C43.252 254.11 42.8282 259.156 46.5078 268.229Z" fill="#207DA9"/>
<path d="M44.7464 255.639C44.7995 255.629 44.9799 256.319 45.2141 257.445C45.4489 258.571 45.7363 260.134 46.0033 261.868C46.2716 263.603 46.4585 265.183 46.5517 266.331C46.6429 267.479 46.6409 268.194 46.5904 268.197C46.5327 268.201 46.4369 267.497 46.2755 266.362C46.0853 265.084 45.8616 263.585 45.6149 261.927C45.363 260.27 45.1347 258.77 44.9405 257.492C44.7759 256.356 44.6932 255.649 44.7464 255.639Z" fill="#263238"/>
<g opacity="0.3">
<path d="M46.5078 268.229C46.5078 268.229 49.7425 258.219 44.1665 252.289C43.9703 252.08 43.622 252.174 43.5682 252.455C43.252 254.11 42.8282 259.156 46.5078 268.229Z" fill="black"/>
</g>
<path d="M64.1469 232.949C64.1469 232.949 72.7641 226.916 71.8943 218.823C71.8634 218.539 71.5282 218.403 71.3163 218.594C70.066 219.724 66.6843 223.493 64.1469 232.949Z" fill="#207DA9"/>
<g opacity="0.3">
<path d="M64.1469 232.949C64.1469 232.949 72.7641 226.916 71.8943 218.823C71.8634 218.539 71.5282 218.403 71.3163 218.594C70.066 219.724 66.6843 223.493 64.1469 232.949Z" fill="black"/>
</g>
<path d="M70.335 221.845C70.3835 221.869 70.1113 222.528 69.6193 223.567C69.1273 224.607 68.4142 226.027 67.5804 227.572C66.748 229.117 65.9444 230.49 65.3257 231.462C64.7058 232.432 64.2735 233.001 64.2309 232.974C64.1823 232.942 64.53 232.323 65.0863 231.32C65.7049 230.186 66.4311 228.855 67.234 227.385C68.0324 225.911 68.7553 224.577 69.3713 223.441C69.9263 222.435 70.2864 221.821 70.335 221.845Z" fill="#263238"/>
<path d="M49.9825 258.306C49.9825 258.306 60.3756 256.686 63.1596 249.036C63.2574 248.768 63.016 248.499 62.7411 248.577C61.1214 249.039 56.4251 250.934 49.9825 258.306Z" fill="#207DA9"/>
<g opacity="0.3">
<path d="M49.9825 258.306C49.9825 258.306 60.3756 256.686 63.1596 249.036C63.2574 248.768 63.016 248.499 62.7411 248.577C61.1214 249.039 56.4251 250.934 49.9825 258.306Z" fill="black"/>
</g>
<path d="M60.4293 251.062C60.4621 251.106 59.9275 251.577 59.0281 252.294C58.1287 253.011 56.8633 253.971 55.4345 254.99C54.0064 256.011 52.68 256.89 51.6966 257.49C50.712 258.089 50.0737 258.41 50.0475 258.366C50.0179 258.316 50.6031 257.913 51.5444 257.258C52.5993 256.512 53.8372 255.637 55.2056 254.67C56.5714 253.699 57.8079 252.82 58.8608 252.071C59.8022 251.412 60.3959 251.019 60.4293 251.062Z" fill="#263238"/>
<path d="M40.0678 277.432L37.0364 297.837H55.9292L53.4797 277.432H40.0678Z" fill="#455A64"/>
<path d="M54.2354 283.755C54.2354 283.864 50.8242 283.952 46.6173 283.952C42.4091 283.952 38.9985 283.864 38.9985 283.755C38.9985 283.646 42.4091 283.558 46.6173 283.558C50.8242 283.559 54.2354 283.647 54.2354 283.755Z" fill="#263238"/>
<path d="M54.61 285.378C54.61 285.487 51.0866 285.575 46.7419 285.575C42.3952 285.575 38.8732 285.487 38.8732 285.378C38.8732 285.27 42.3952 285.182 46.7419 285.182C51.0866 285.182 54.61 285.27 54.61 285.378Z" fill="#263238"/>
</svg>
