<svg width="228" height="64" viewBox="0 0 228 64" fill="none" xmlns="http://www.w3.org/2000/svg">
<path d="M31.6025 1.50525C31.3189 1.6563 31.0937 1.80471 30.9188 1.96106C30.8499 2.02202 30.4497 2.52819 30.0283 3.08471C28.8994 4.58202 28.1892 5.4963 27.1424 6.81075C24.3995 10.2479 23.4349 11.3583 19.8016 15.2646C18.9774 16.1497 17.6444 17.488 16.8017 18.2725C16.473 18.5772 15.9907 19.0304 15.7284 19.2795C13.6533 21.2459 12.0235 22.6902 10.1896 24.1848C7.6853 26.2281 6.35495 27.2404 3.03172 29.6361C2.30029 30.1635 2.10153 30.3569 1.92132 30.7253C1.65631 31.258 1.65366 31.8383 1.91072 32.379C1.99818 32.5592 2.06443 32.6493 2.29234 32.8825C2.5865 33.1899 2.80116 33.3568 3.61474 33.9107C4.45482 34.4858 8.19942 37.3055 9.51387 38.3576C10.7515 39.3461 12.3124 40.6791 13.5023 41.7656C13.7355 41.9776 14.194 42.3884 14.5226 42.6799C15.4316 43.4882 15.9934 44.0076 16.9209 44.9086C17.8829 45.8441 20.5489 48.5393 20.9676 49.0004C21.1187 49.1674 21.5162 49.6099 21.8501 49.9809C22.8651 51.1099 23.4428 51.7433 23.9516 52.2865C24.4499 52.8166 25.2131 53.7653 26.9966 56.0762C29.1167 58.827 29.6679 59.5876 30.2668 60.5867C30.561 61.0769 30.7015 61.2624 30.9135 61.4267C31.2209 61.6705 31.5203 61.7978 31.9417 61.8667C32.591 61.9727 33.0388 61.872 33.4708 61.5221C33.6987 61.3393 33.8047 61.2041 34.6899 59.9851C37.2631 56.4366 38.9221 54.3828 41.9114 51.0277C42.9476 49.867 43.5386 49.2416 45.595 47.1347C46.8114 45.8892 46.9413 45.7593 47.5694 45.1843C47.8635 44.9166 48.7593 44.0739 49.9412 42.9555C50.193 42.717 52.2759 40.8831 52.9491 40.3054C54.8121 38.7101 57.9048 36.2428 59.5876 35.0105C60.1547 34.5944 60.9285 34.083 61.4029 33.8127C62.3569 33.272 62.6432 33.0203 62.879 32.53C63.2262 31.8012 63.0115 30.8472 62.3331 30.1237C62.1502 29.925 61.9462 29.7792 61.5858 29.5857C61.4056 29.4877 61.2227 29.3843 61.1776 29.3552C60.8914 29.1564 58.6706 27.524 56.8712 26.1883C55.994 25.5364 54.0886 24.0073 53.1902 23.2334C52.7477 22.8518 52.4455 22.5842 50.7495 21.0683C49.1223 19.6134 47.9748 18.5057 46.3927 16.8546C45.9263 16.367 45.0067 15.4183 44.3495 14.7478C42.02 12.3707 42.2108 12.5747 41.1402 11.3159C39.619 9.52976 37.3506 6.74185 36.37 5.4592C35.8718 4.80728 35.5538 4.36206 34.8754 3.37887C33.9478 2.02732 33.7173 1.78086 33.0918 1.4867L32.8666 1.37804H32.3551H31.841L31.6025 1.50525ZM33.2721 9.3257C33.9982 9.47411 34.5918 9.74707 35.3789 10.2956C36.961 11.4034 39.2798 13.2929 41.5563 15.3308C42.0121 15.739 42.5156 16.1842 42.6773 16.322C43.2788 16.8334 46.0853 19.6717 47.3971 21.0975C49.125 22.9737 51.6081 25.9869 53.5559 28.5681C54.6133 29.9674 55.0162 30.7756 55.0612 31.5892C55.0904 32.1219 54.9949 32.4717 54.6133 33.2323C54.0118 34.4354 53.3651 35.3974 52.2044 36.8099C50.2751 39.1606 49.064 40.5625 48.0994 41.5669C44.8212 44.9802 42.5872 47.1241 39.9636 49.3741C37.4433 51.5366 35.2543 53.1319 33.8816 53.8103C32.909 54.2927 32.2094 54.3086 31.364 53.8739C30.8472 53.6089 29.66 52.8696 28.8914 52.3342C27.4604 51.3378 26.5779 50.5984 23.5329 47.8344C23.0585 47.405 22.3536 46.7664 21.9694 46.4166C20.162 44.7761 17.5304 42.2108 16.4942 41.0766C14.9413 39.3779 13.5712 37.7587 12.4263 36.2667C11.8407 35.5061 10.5262 33.7279 10.3513 33.4602C9.70733 32.4823 9.61722 31.4753 10.0783 30.4311C10.3142 29.8932 10.7753 29.1432 11.3053 28.4329C11.9838 27.524 13.7858 25.3323 14.8008 24.1822C16.2981 22.4835 19.253 19.4067 20.7901 17.9412C21.4976 17.2681 23.4614 15.4607 24.2617 14.7478C25.5868 13.5659 27.1212 12.323 28.8782 11.0006C30.5928 9.71262 31.038 9.43966 31.629 9.2992C31.9364 9.22765 32.8507 9.24355 33.2721 9.3257Z" fill="#207DA9"/>
<path d="M31.8886 10.5342C31.6342 10.5925 31.3374 10.725 31.075 10.9026C30.7676 11.1066 29.2253 12.2647 28.2633 13.0147C26.9727 14.0164 25.9577 14.8698 25.0434 15.7178C24.8022 15.9404 24.1344 16.542 23.5567 17.0561C22.2263 18.2407 21.8845 18.564 20.101 20.3316C17.6125 22.7989 16.7645 23.7158 14.6921 26.1831C12.4475 28.857 11.8379 29.6759 11.3662 30.6485C11.1357 31.1229 11.0747 31.3508 11.0747 31.735C11.0747 32.2703 11.1913 32.5592 11.6975 33.2853C12.3733 34.2553 12.5959 34.5521 13.4333 35.5909C14.8458 37.3479 16.3007 39.0785 17.0533 39.8973C17.5701 40.4618 19.4649 42.3831 20.3925 43.2868C22.2104 45.0571 23.1062 45.8813 25.1892 47.7019C25.5098 47.9828 26.1803 48.5685 26.6759 49.0058C27.6962 49.8962 28.0804 50.2169 28.674 50.6674C29.4903 51.2875 30.2429 51.791 31.2393 52.3899C32.1139 52.9147 32.1616 52.9332 32.6492 52.8935C33.2402 52.8484 33.4946 52.7397 34.3797 52.1567C35.127 51.6638 35.2967 51.5366 36.2931 50.7389C38.9008 48.6506 40.4829 47.315 42.0173 45.8998C42.7805 45.1949 44.9828 42.998 46.6656 41.2621C48.314 39.5634 48.3643 39.5078 49.2123 38.4928C49.5542 38.0847 50.1028 37.4354 50.4314 37.0485C51.3298 35.9964 51.6345 35.6121 52.1434 34.9125C52.7317 34.1016 53.4101 33.0097 53.6009 32.5672C53.8633 31.9682 53.8739 31.4144 53.638 30.9055C53.4843 30.5769 53.1848 30.1476 52.1328 28.7457C50.3996 26.4348 49.5569 25.396 47.7044 23.2812C46.2045 21.5692 45.966 21.3175 44.0738 19.4253C42.0889 17.443 41.7258 17.0985 40.0907 15.6674C38.7126 14.4617 36.1924 12.3681 35.3921 11.7665C34.5891 11.1623 33.8894 10.7992 33.1183 10.5845C32.8109 10.4997 32.1589 10.4732 31.8886 10.5342ZM32.4451 15.6807C32.4955 15.8106 33.0944 17.4457 33.7755 19.3193C34.4539 21.1929 35.18 23.1778 35.3841 23.7317C35.5882 24.2856 35.7631 24.7891 35.7684 24.8501C35.7816 24.9587 35.7816 24.9614 35.6942 24.9746C35.559 24.9958 34.4009 25.0435 34.0405 25.0435C33.6827 25.0435 33.5449 25.0727 33.4548 25.1628C33.3965 25.2211 33.3912 25.2476 33.3912 25.5126C33.3912 25.6689 33.4151 26.3421 33.4442 27.0046C33.5264 28.9286 33.5158 28.6397 33.6032 31.5628C33.6165 32.0504 33.6483 32.8083 33.6721 33.2456C33.7304 34.3136 33.7331 34.303 33.3064 34.3772C33.0838 34.4169 32.0423 34.4169 31.34 34.3798C30.9452 34.3586 30.8895 34.3507 30.8551 34.3056C30.7968 34.2314 30.8233 33.227 30.924 31.5363C30.9664 30.7995 31.0088 29.8402 31.0194 29.4029C31.0326 28.6848 31.1095 26.4984 31.1545 25.5603C31.1784 25.07 31.1996 25.0912 30.6537 25.0674C29.5936 25.017 29.1643 24.9826 29.106 24.9481C29.0716 24.9269 29.0451 24.8845 29.0451 24.8501C29.0451 24.7759 29.3816 23.79 30.1528 21.5984C30.4708 20.6867 30.81 19.7142 30.9001 19.4385C30.9929 19.1603 31.3135 18.2009 31.6183 17.3026C32.1139 15.8344 32.2782 15.4051 32.3338 15.4395C32.3444 15.4448 32.3948 15.5535 32.4451 15.6807ZM25.6052 27.0311C25.7059 27.0602 25.8676 27.1477 26.0107 27.2458C26.4453 27.5399 26.9038 27.8394 27.4815 28.1971C27.7942 28.3932 28.1016 28.6 28.1652 28.6583L28.2792 28.7643L28.1838 28.812C28.1308 28.8411 27.7571 28.963 27.3543 29.0849C26.228 29.4268 25.6397 29.6335 25.2846 29.8137C24.8393 30.0363 24.2855 30.4868 23.9595 30.8843C23.7316 31.1626 23.4931 31.5363 23.4533 31.6794C23.3102 32.1961 23.7369 32.9885 24.4021 33.4417C24.5955 33.5715 25.0752 33.8127 25.4383 33.9611C26.7951 34.515 29.0636 34.947 31.5097 35.1139C32.0079 35.1484 33.4919 35.1484 34.0538 35.1139C35.8161 35.0079 37.43 34.7243 39.142 34.2261C40.2152 33.9134 40.6472 33.7306 41.2249 33.341C42.0306 32.803 42.2823 32.5062 42.3804 31.9868C42.4599 31.5654 42.285 30.9479 41.9776 30.561C41.694 30.2006 40.9864 29.758 40.202 29.448C39.9158 29.334 39.884 29.3287 39.6455 29.3287C39.3831 29.3287 39.0518 29.3923 38.4609 29.5513C38.1376 29.6361 38.0581 29.6335 37.9786 29.5301C37.9494 29.4957 37.8461 29.2254 37.748 28.9312C37.6499 28.6371 37.4883 28.1706 37.3902 27.8924C37.2021 27.3756 37.1809 27.2776 37.2445 27.2537C37.2736 27.2431 40.9334 28.1521 42.2691 28.5019L42.4943 28.5602L42.3883 28.5894C42.33 28.6053 42.1763 28.645 42.0438 28.6768C41.8424 28.7272 41.7894 28.751 41.7046 28.8358C41.6224 28.9153 41.6092 28.9471 41.6277 28.9842C41.6436 29.0107 41.8133 29.1326 42.0094 29.2545C42.2028 29.3791 42.5579 29.6096 42.7991 29.7713C43.4908 30.2324 43.8565 30.6352 44.0711 31.1732C44.3786 31.9417 44.2461 32.5089 43.5862 33.2615C42.8468 34.1069 41.5721 34.7747 39.6614 35.3153C38.3469 35.689 36.4574 36.0229 34.8355 36.1713C33.0838 36.3303 31.5017 36.3515 29.7473 36.2402C27.4338 36.0918 25.5045 35.7181 23.6388 35.0583C22.8438 34.7747 21.487 34.2235 21.0391 33.9982C20.4243 33.6908 19.7564 33.1131 19.4093 32.591C19.1761 32.2412 19.0807 31.9391 19.0807 31.5495C19.0807 30.7942 19.5842 29.9171 20.3925 29.2625C20.8854 28.8623 21.7758 28.3243 22.6159 27.9189C23.1883 27.6406 23.5885 27.4763 24.2219 27.2537C25.0408 26.9701 25.2793 26.9304 25.6052 27.0311ZM32.2517 36.9981C33.2084 36.9981 33.7198 37.0193 33.7755 37.0591C33.8311 37.0988 33.8576 37.3135 33.8947 37.9893C33.9477 39.044 34.0273 40.4009 34.0538 40.7454C34.0697 40.9335 34.0935 41.5537 34.1068 42.1234C34.1386 43.3557 34.2022 45.0624 34.2419 45.6348C34.2737 46.1304 34.2631 46.2205 34.1545 46.3106L34.075 46.3769H32.31C30.6802 46.3769 30.5344 46.3742 30.4496 46.3291C30.2853 46.2496 30.288 46.2549 30.3701 45.1843C30.4099 44.6516 30.4523 43.9838 30.4602 43.7002C30.4947 42.7144 30.5318 41.824 30.598 40.4671C30.6378 39.7171 30.6696 38.7499 30.6749 38.3205C30.6855 37.2949 30.7093 37.0935 30.8286 37.0061C30.8763 36.9716 30.9372 36.969 31.1784 36.9822C31.34 36.9902 31.8224 36.9981 32.2517 36.9981Z" fill="#207DA9"/>
<path d="M42.4891 55.3315C41.392 55.5064 40.6234 56.4313 40.687 57.494C40.7241 58.0664 40.9335 58.5143 41.3522 58.9038C41.9988 59.508 43.0112 59.6432 43.8062 59.2271C44.323 58.9568 44.7046 58.4878 44.8583 57.9312C44.9245 57.6874 44.9245 57.0832 44.8583 56.8447C44.6622 56.1318 44.0924 55.5726 43.3663 55.3845C43.1331 55.3262 42.6985 55.2997 42.4891 55.3315ZM43.3053 55.8085C43.7611 55.9543 44.1587 56.3597 44.3124 56.8447C44.3919 57.0912 44.4104 57.5178 44.3521 57.7828C44.2223 58.3606 43.7797 58.8296 43.2232 58.978C43.0324 59.0284 42.6136 59.0284 42.4149 58.978C41.6994 58.7899 41.2064 58.1406 41.2091 57.3827C41.2117 56.5929 41.7444 55.9198 42.4944 55.7581C42.672 55.7184 43.1119 55.7449 43.3053 55.8085Z" fill="#207DA9"/>
<path d="M42.2427 56.357C42.2056 56.3623 42.1367 56.3756 42.0916 56.3835L42.0042 56.3968V57.4276V58.4612H42.2427H42.4812V58.0504V57.6396H42.6667C42.9953 57.6396 43.0721 57.7033 43.1569 58.0372C43.1808 58.1326 43.2179 58.2651 43.2391 58.334L43.2815 58.4612H43.5465C43.7903 58.4612 43.8089 58.4585 43.7903 58.4135C43.7797 58.3896 43.7373 58.2412 43.6976 58.0875C43.5942 57.6741 43.5333 57.5681 43.3451 57.47L43.2682 57.4303L43.3902 57.3746C43.6896 57.2342 43.7903 56.9506 43.6472 56.6591C43.5863 56.5399 43.528 56.4895 43.369 56.4153C43.2497 56.3623 43.1914 56.3543 42.7727 56.3517C42.5183 56.349 42.2798 56.3517 42.2427 56.357ZM43.0377 56.7333C43.141 56.7837 43.1967 56.8738 43.1967 56.9904C43.1967 57.1759 43.0456 57.2713 42.7144 57.2898L42.4812 57.3031V56.993V56.6856H42.7144C42.8813 56.6856 42.9714 56.6989 43.0377 56.7333Z" fill="#207DA9"/>
<path d="M85.64 21.508V38.5H81.344V21.508H85.64ZM92.6724 25.54V28.18H99.5604V31.9H92.6724V34.444H100.16V38.5H88.3284V21.508H100.16V25.54H92.6724ZM106.782 25.54V28.18H113.67V31.9H106.782V34.444H114.27V38.5H102.438V21.508H114.27V25.54H106.782ZM120.891 25.54V28.18H127.779V31.9H120.891V34.444H128.379V38.5H116.547V21.508H128.379V25.54H120.891ZM139.336 32.092V38.5H135.016V21.508H139.336V27.94H144.232V21.508H148.552V38.5H144.232V32.092H139.336ZM155.579 25.54V28.18H162.467V31.9H155.579V34.444H163.067V38.5H151.235V21.508H163.067V25.54H155.579ZM165.344 38.5V21.508H169.664V34.252H176.576V38.5H165.344ZM190.354 29.692L192.418 21.508H196.858L191.962 38.5H187.978L186.466 33.796L185.866 29.908H185.794L185.146 33.772L183.802 38.5H179.818L174.898 21.508H179.362L181.378 29.644L181.81 33.244H181.93L182.338 29.668L184.234 23.716H187.498L189.25 29.692L189.802 33.244H189.874L190.354 29.692ZM205.032 21.508L211.104 38.5H206.496L205.392 35.092H200.856L199.8 38.5H195.192L201.12 21.508H205.032ZM201.816 31.276H204.36L203.184 26.308H203.064L201.816 31.276ZM212.242 38.5V21.508H216.322L220.426 28.756L221.866 32.164L221.986 32.14C221.962 32.14 221.53 29.212 221.506 29.212V21.508H225.778V38.5H221.434L217.594 31.804L216.106 28.396L215.986 28.42L216.538 31.708V38.5H212.242Z" fill="#207DA9"/>
</svg>
